<svg width="339" height="258" viewBox="0 0 339 258" fill="none" xmlns="http://www.w3.org/2000/svg">
<path d="M54.6 254.889H315.821C358.325 202.794 336.463 125.069 297.705 77.7169C266.534 39.6353 220.66 19.6488 176.74 22.5241C95.9491 27.8133 -18.7904 148.464 51.3981 250.557C52.4161 252.037 53.4941 253.474 54.6 254.889Z" fill="#FFF3E1"/>
<path d="M12.5471 128.064C16.9838 131.03 21.1688 134.37 25.0437 138.036C34.8321 147.298 38.5344 158.556 37.8369 171.425C37.6031 175.739 37.3003 178.768 37.4258 180.91C38.0599 191.753 40.434 200.548 41.4963 210.576C41.7466 212.935 42.0691 215.327 42.4127 217.736C42.095 217.764 41.782 217.843 41.4861 217.971C37.7415 204.741 37.1722 184.361 29.9843 177.258C11.96 159.447 2.95302 142.305 0 120.999C0.150685 122.093 11.0539 127.067 12.5471 128.064Z" fill="#40746E"/>
<path d="M44.0519 130.313C45.7987 108.387 41.2168 87.7479 22.4119 70.1257C18.2834 88.7856 21.5616 108.485 31.695 125.908C42.4687 144.433 40.1913 163.707 41.4091 183.23C41.6116 186.472 43.4539 222.188 43.1246 222.184L43.878 222.195C43.7526 210.357 43.563 198.519 43.3237 186.681C43.0748 174.369 42.8628 162.056 42.8982 149.746C42.9173 143.302 43.5357 136.795 44.0519 130.313Z" fill="#529665"/>
<path d="M49.8144 194.253C48.6321 201.028 47.8732 206.821 46.62 212.521H45.7656C46.3295 208.788 46.6595 205.373 47.1361 201.791C47.8616 196.331 48.7971 191.162 49.1912 185.697C49.4428 182.21 48.746 175.733 49.2887 172.723C51.0117 163.181 59.8305 158.217 67.482 153.359C69.175 152.284 70.9048 151.266 72.6585 150.293C72.2276 150.532 72.066 154.758 71.9766 155.28C71.3146 159.135 70.3921 162.961 69.102 166.656C67.6531 170.806 65.7413 174.95 62.8531 178.312C61.4948 179.893 59.9205 181.309 58.0945 182.335C53.636 184.84 50.8501 188.32 49.8144 194.253Z" fill="#529665"/>
<path d="M47.9562 172.876C47.7114 174.81 43.6122 214.393 43.3824 216.329C42.9781 215.936 42.5765 215.539 42.1729 215.145C42.3501 209.549 46.1302 165.712 46.2427 160.066C46.3457 154.876 45.2902 145.815 45.9127 140.658C46.6886 134.226 48.8664 128.017 51.8535 122.284C53.9331 118.292 56.4273 114.522 59.1812 110.961C60.5551 109.185 69.8948 100.895 69.7271 99.3921C70.9987 110.78 70.2705 123.138 66.9636 134.112C64.5704 142.054 57.5461 150.967 52.6697 157.932C48.5173 163.86 48.3339 169.884 47.9562 172.876Z" fill="#96CF90"/>
<path d="M35.0338 255.664H53.4883L53.4883 204.842H35.0338L35.0338 255.664Z" fill="#313858"/>
<path d="M243.878 252.922V74.1662C243.878 68.4339 237.929 64.6228 232.697 67.0041L131.328 113.138C124.985 116.025 120.916 122.335 120.916 129.286V252.923" stroke="#8D8F96" stroke-width="5.0648" stroke-miterlimit="10"/>
<path d="M94.2083 218.306C98.2734 219.839 100.132 216.527 100.132 216.527C100.132 216.527 104.197 207.474 110.075 200.357C111.238 198.952 112.291 197.556 113.234 196.205C116.484 191.587 118.572 187.399 119.945 184.342C120.971 182.07 121.749 180.573 122.371 177.343C122.545 176.476 122.921 174.852 123.287 172.325C123.873 168.255 124.431 161.83 124.001 152.467C123.754 147.129 123.608 141.544 123.507 136.407C115.623 136.845 107.768 137.803 99.931 138.889C100.343 140.942 100.783 143.068 101.277 145.167C102.623 150.897 104.115 163.153 104.985 170.955C105.442 175.089 105.727 177.973 105.727 177.973C106.13 178.539 102.66 182.609 99.6562 189.443C99.0609 190.803 98.5025 192.117 97.9809 193.376C92.964 205.549 91.5444 213.005 91.5444 213.005C90.7753 214.273 90.3539 216.855 94.2083 218.306Z" fill="#BD8368"/>
<path d="M125.321 113.612C125.321 113.612 127.564 133.09 128.137 140.451C128.709 147.811 127.073 157.734 127.073 157.734C127.073 157.734 122.236 160.102 112.859 159.758C103.483 159.414 100.629 156.78 100.629 156.78C100.629 156.78 97.2481 141.941 95.742 135.21C94.2351 128.479 93.3828 120.888 93.3828 120.888L125.321 113.612Z" fill="#252B42"/>
<path d="M123.889 127.565C123.889 127.565 130.912 132.52 136.706 138.294C138.268 139.851 140.091 144.435 140.695 147.614C142.876 159.088 145.353 183.505 145.852 187.712C146.489 193.084 148.473 203.225 148.473 203.225C148.473 203.225 148.112 204.564 145.062 205.184C142.012 205.803 139.595 202.974 139.595 202.974C139.595 202.974 131.867 181.073 129.07 172.844C126.272 164.614 124.57 156.211 124.57 156.211L109.271 143.374L123.889 127.565Z" fill="#BD8368"/>
<path d="M99.045 111.841L111.259 111.19C111.259 111.19 119.677 120.796 126.524 127.795C129.762 131.105 134.562 135.514 134.562 135.514C134.562 135.514 127.433 137.838 123.218 144.142C119.003 150.447 118.623 156.841 118.623 156.841C118.623 156.841 113.532 153.866 105.28 147.567C97.4283 141.572 89.7598 133.247 87.6093 122.57C86.3581 116.352 99.045 111.841 99.045 111.841Z" fill="#313858"/>
<path d="M109.72 34.8218C109.72 34.8218 109.775 35.5999 109.332 38.3141C108.889 41.0284 107.545 42.412 106.816 43.2458C106.087 44.0804 101.397 46.0559 100.295 46.5778C100.295 46.5778 108.978 67.2799 116.461 67.3879C130.777 67.5945 125.407 49.343 125.407 49.343C125.407 49.343 120.6 45.8962 119.032 44.4052C118.099 43.5184 117.882 38.7858 117.882 38.7858L109.72 34.8218Z" fill="#BD8368"/>
<path d="M121.586 50.675C114.984 47.9288 111.646 43.0582 109.5 37.2023C109.756 35.3919 109.72 34.821 109.72 34.821L117.882 38.785C117.882 38.785 118.1 43.5176 119.033 44.4045C120.6 45.8955 125.407 49.3423 125.407 49.3423C125.407 49.3423 125.742 50.4799 126.021 52.1843C124.502 51.7745 123.017 51.2696 121.586 50.675Z" fill="#A6735B"/>
<path d="M127.468 51.3062C131.157 52.9412 137.119 67.5746 138.926 70.6484C140.733 73.7221 145.064 78.104 148.097 81.6691C151.131 85.2342 158.506 92.594 158.506 92.594C158.506 92.594 155.998 95.3511 154.832 96.0001C153.666 96.6498 148.337 91.7092 144.666 89.6385C137.997 85.8757 135.091 82.6015 132.732 80.4228C130.373 78.244 125.734 72.7109 121.79 68.0768C117.847 63.4421 115.093 54.6463 115.093 54.6463C115.093 54.6463 124.647 50.0558 127.468 51.3062Z" fill="#BD8368"/>
<path d="M130.057 61.2276C131.101 69.9826 129.098 80.0682 128.564 87.6999C128.03 95.3316 127.383 99.9228 126.952 102.984C126.52 106.044 125.684 120.834 125.684 120.834C125.684 120.834 121.715 121.752 109.422 121.599C97.1291 121.447 88.5864 120.709 87.4048 118.317C87.4048 118.317 92.2581 95.1794 91.9738 87.5776C91.6895 79.9758 85.5679 60.8497 91.8844 52.9809C95.5145 48.4583 105.409 44.0376 105.409 44.0376C105.409 44.0376 107.749 59.4573 115.475 61.6061C123.201 63.7549 123.399 51.4504 122.137 46.9299C122.137 46.9299 126.96 48.9591 128.131 51.0475C129.3 53.1358 129.659 57.8929 130.057 61.2276Z" fill="#CC272F"/>
<path d="M122.083 104.019C123.916 99.7467 128.614 74.0028 128.992 71.3464C129.33 68.9712 129.852 66.4914 130.281 63.9919C130.694 72.0497 129.042 80.8591 128.563 87.6998C128.03 95.3314 127.382 99.9227 126.951 102.984C126.519 106.044 125.683 120.834 125.683 120.834C125.683 120.834 121.714 121.751 109.421 121.599C108.093 121.583 106.818 121.558 105.582 121.527C112.833 120.12 118.89 111.455 122.083 104.019Z" fill="#B32229"/>
<path d="M122.696 18.7383C123.962 19.4688 126.145 21.0346 126.29 22.2551C126.435 23.4756 127.039 27.0427 126.961 29.1508C126.883 31.2589 126.763 33.3003 126.525 35.7665C126.288 38.232 122.935 43.7332 122.364 44.198C121.793 44.6629 118.394 44.8715 117.136 44.3156C116.451 44.0125 111.757 40.6846 109.72 34.8219C108.02 29.9282 109.848 23.844 110.049 23.178C111.125 19.6211 118.28 20.2565 120.199 19.9051C122.118 19.5538 122.696 18.7383 122.696 18.7383Z" fill="#BD8368"/>
<path d="M112.274 27.3974C111.573 29.5388 110.577 29.3899 110.577 29.3899C110.538 30.444 110.686 31.0393 110.686 31.0393L111.264 33.9037C111.095 34.5051 110.795 35.1215 110.449 35.7162C110.299 35.9431 110.147 36.1688 109.991 36.3923C108.478 34.2503 106.895 31.9323 106.146 30.5982C103.819 26.4555 103.112 21.5299 105.352 20.3244C105.352 20.3244 105.109 15.0746 110.595 13.8582C116.081 12.6417 124 14.0559 125.661 16.3923C128.325 20.1409 126.29 22.2544 126.29 22.2544C126.29 22.2544 126.075 20.5398 124.703 21.3043C123.332 22.0688 122.235 22.588 119.605 21.8928C117.391 21.307 113.41 19.2384 111.871 22.3481C110.03 26.0675 112.606 26.3808 112.274 27.3974Z" fill="#1F1E2F"/>
<path d="M111.059 29.7209C111.059 29.7209 110.135 27.6325 108.986 27.7528C107.836 27.8731 107.599 31.1799 108.687 32.2652C109.776 33.3505 111.614 33.5938 111.614 33.5938L111.059 29.7209Z" fill="#BD8368"/>
<path d="M144.302 204.581L137.086 208.914C137.086 208.914 135.326 210.332 136.627 212.341C136.627 212.341 138.655 213.673 144.866 213.144C151.606 212.571 154.555 213.763 158.193 212.953C161.831 212.142 164.157 209.972 164.428 208.579C164.93 206.007 162.8 205.651 162.8 205.651L149.373 205.284L144.302 204.581Z" fill="#313858"/>
<path d="M146.221 197.069C144.756 197.576 143.051 200.511 140.73 199.69C138.409 198.87 138.172 199.307 138.172 199.307C138.172 199.307 137.536 200.65 137.722 202.67C137.907 204.691 137.085 208.913 137.085 208.913C137.085 208.913 142.63 210.1 148.542 210.18C146.751 210.155 155.542 213.409 163.173 207.746C163.895 207.209 164.927 205.452 161.106 204.756C159.728 204.505 158.872 204.278 155.334 202.142C150.848 199.434 148.686 196.215 146.221 197.069Z" fill="#252B42"/>
<path d="M93.8241 221.333L84.6207 220.216C84.6207 220.216 82.1804 220.249 82.3229 222.806C82.3229 222.806 83.5229 225.272 89.7037 228.935C96.4109 232.91 96.6973 233.763 100.589 235.485C104.481 237.208 111.013 236.904 112.028 235.907C113.901 234.068 112.075 232.359 112.075 232.359L98.2526 225.281L93.8241 221.333Z" fill="#313858"/>
<path d="M99.728 216.261C98.3527 217.022 95.7993 217.792 94.0429 215.564C92.2872 213.336 90.8737 212.825 90.8737 212.825C90.8737 212.825 89.5407 213.538 88.6189 215.366C87.6964 217.194 84.6206 220.215 84.6206 220.215C84.6206 220.215 89.236 224.885 94.8038 228.866C93.7074 228.082 97.4227 231.209 102.444 233.092C105.149 234.107 107.678 234.28 111.291 234.373C112.268 234.399 114.202 233.598 110.955 230.483C109.784 229.359 106.372 229.178 105.391 227.655C102.166 222.655 99.728 216.261 99.728 216.261Z" fill="#252B42"/>
<path d="M245.978 184.67H206.657V255.452H245.978V184.67Z" fill="#A2A5AD"/>
<path d="M86.4907 255.451V235.665H126.546V210.181H166.601V184.696H206.657V255.451H86.4907Z" fill="#BEC1CB"/>
<path d="M208 255.664V74.1708C208 68.4385 202.051 64.6275 196.819 67.0087L95.4503 113.143C89.1073 116.03 85.0381 122.34 85.0381 129.29V255.665" stroke="#A2A5AD" stroke-width="5.0648" stroke-miterlimit="10"/>
<path d="M156.701 90.7532C157.299 91.4817 160.965 93.5564 161.814 93.759C162.293 93.8731 163.731 94.1518 165.179 93.8894C166.295 93.6876 167.43 93.1093 168.106 92.9747C169.636 92.6696 171.078 93.2697 171.297 93.2364C170.821 93.8792 165.937 96.1742 165.937 96.1742C165.937 96.1742 163.77 97.3736 163.463 98.0716C163.156 98.7695 165.537 99.653 165.537 99.653C165.537 99.653 165.87 100.578 165.557 100.877C165.084 101.328 164.139 101.319 163.705 101.382C162.984 101.488 161.859 101.081 160.529 100.95C159.199 100.818 155.432 99.2472 154.949 98.0933C154.485 96.9876 151.105 94.1076 151.105 94.1076L156.701 90.7532Z" fill="#BD8368"/>
<path d="M89.1616 57.956C90.5457 53.7256 94.5631 49.1534 99.1443 52.7552C103.912 56.5024 100.344 63.6862 100.052 68.5846C99.7212 74.1348 96.8091 86.2163 96.8091 86.2163C96.8091 86.2163 98.892 89.7807 99.7239 93.1304C100.556 96.4807 101.495 100.02 101.922 100.778C104.276 104.956 106.477 103.559 107.755 103.503C109.032 103.448 110.476 104.223 110.476 104.223C110.476 104.223 109.088 105.164 109.92 106.816C110.164 107.301 110.87 107.41 111.37 107.901C113.22 109.72 112.525 110.318 112.146 110.689C111.766 111.06 111.324 111.493 111.324 111.493C111.324 111.493 110.933 112.55 110.195 113.396C109.456 114.242 108.836 113.717 108.836 113.717C108.836 113.717 108.49 114.115 107.629 114.216C106.385 114.362 106.376 114.204 106.376 114.204C106.376 114.204 105.744 114.823 104.928 115.003C104.111 115.183 103.74 114.68 103.74 114.68C103.74 114.68 102.481 115.418 101.426 114.222C100.372 113.026 98.7939 110.048 97.8311 107.33C96.9543 104.854 95.054 103.653 91.5487 97.2826C89.0648 92.7681 87.3472 90.6676 87.4332 86.796C87.5013 83.7202 87.3786 76.0851 87.3459 71.5231C87.3132 66.9625 88.4818 60.0328 89.1616 57.956Z" fill="#BD8368"/>
<path d="M119.945 184.341C118.715 187.08 116.904 190.731 114.204 194.781C112.56 194.84 110.867 194.681 109.029 194.135C105.602 193.117 102.433 191.616 99.5981 189.578C99.6179 189.532 99.6363 189.488 99.6568 189.442C102.66 182.607 106.13 178.537 105.727 177.972C105.727 177.972 105.443 175.088 104.985 170.954C106.029 171.329 107.631 171.739 109.902 171.995C113.985 172.433 120.12 172.77 123.288 172.323C122.922 174.851 122.546 176.475 122.372 177.342C121.749 180.572 120.97 182.069 119.945 184.341Z" fill="#313858"/>
<path d="M239.269 87.1419C239.269 87.1419 234.116 85.6625 233.48 84.675C232.844 83.6883 231.5 81.8324 230.539 81.1555C229.678 80.5493 229.27 80.2136 229.023 80.5391C228.43 81.324 230.165 84.3013 230.165 84.3013C230.165 84.3013 224.948 83.4069 223.651 82.7355C222.353 82.0648 218.401 80.3767 217.852 80.6941C217.302 81.0114 217.592 81.9391 218.141 82.4358C218.141 82.4358 215.346 80.6567 214.958 81.0848C214.57 81.5136 214.657 82.9673 215.845 83.6706C215.845 83.6706 215.18 84.4005 215.659 85.1134C216.139 85.8262 217.362 86.5507 217.362 86.5507C217.362 86.5507 216.508 86.7009 216.879 87.3037C217.252 87.9064 218.6 88.7953 220.544 89.9649C222.488 91.1344 224.881 91.8759 227.137 91.9642C227.984 91.9975 230.222 91.7087 231.903 91.8181C234.7 92.0002 238.566 93.6584 238.566 93.6584L239.269 87.1419Z" fill="#EAAD96"/>
<path d="M287.827 68.1326L288.975 59.7908C288.975 59.7908 283.941 62.312 282.338 63.3531C276.893 66.8903 269.074 81.2736 258.17 87.3369L235.901 85.5536C235.901 85.5536 233.258 89.9791 233.427 92.9468C233.427 92.9468 259.119 100.578 259.895 100.438C261.969 100.064 265.08 101.06 267.598 99.7514C278.47 94.1007 289.981 82.8897 289.981 82.8897L287.827 68.1326Z" fill="#EAF3F4"/>
<path d="M301.521 145.597C301.521 145.597 302.82 172.153 301.998 188.69C301.719 194.301 301.074 208.427 301.189 219.101C301.342 233.437 300.771 247.997 300.771 247.997C300.771 247.997 293.943 248.497 289.736 247.287C289.736 247.287 288.17 234.883 286.825 219.011C286.112 210.594 285.654 202.09 284.741 193.434C283.113 177.98 282.708 163.26 282.56 160.026C282.17 151.567 283.11 111.957 283.11 111.957L307.338 113.205L301.521 145.597Z" fill="#313858"/>
<path d="M323.734 252.248C323.379 250.589 323.581 246.95 323.581 246.95L320.319 247.245C320.337 245.671 319.395 244.836 318.1 244.93C316.827 245.022 315.947 245.705 315.279 246.619L314.747 246.421C314.747 246.421 313.287 248.514 311.958 250.295C311.331 251.134 310.57 252.142 310.429 252.27C307.953 254.531 307.204 257.152 308.671 257.137C314.033 257.08 324.163 256.972 324.163 256.972C324.163 256.972 324.088 253.907 323.734 252.248Z" fill="#313858"/>
<path d="M285.258 253.167C286.044 252.643 287.354 251.389 287.981 250.549C289.572 248.416 289.488 248.514 290.77 246.675L291.302 246.873C291.97 245.959 292.851 245.276 294.124 245.184C295.418 245.091 296.36 245.925 296.342 247.5L299.604 247.205C299.604 247.205 299.402 250.844 299.757 252.503C300.111 254.162 300.185 257.227 300.185 257.227C300.185 257.227 287.956 257.371 282.594 257.428C282.594 257.428 282.56 254.968 285.258 253.167Z" fill="#313858"/>
<path d="M299.005 157.144L299.618 162.298C300.335 168.111 304.359 186.757 305.408 194.191C306.233 200.03 308.027 210.974 309.488 221.198C311.472 235.089 313.086 247.981 313.086 247.981C313.086 247.981 319.395 249.119 323.574 247.821C323.574 247.821 323.847 235.631 323.833 219.59C323.825 210.406 323.261 199.433 322.942 190.105C322.436 175.332 323.564 162.688 323.64 159.592C323.85 151.126 322.063 111.545 322.063 111.545L297.867 113.307L299.005 157.144Z" fill="#313858"/>
<path d="M306.782 38.9026C306.782 38.9026 306.29 51.1282 308.752 53.5394C310.17 54.9278 315.49 58.87 315.49 58.87C315.49 58.87 312.75 68.4996 308.189 68.7993C286.846 70.2013 290.8 58.274 290.8 58.274C290.8 58.274 294.787 55.5006 295.157 53.5611C295.534 51.5849 295.251 44.2373 295.251 44.2373L306.782 38.9026Z" fill="#EAAD96"/>
<path d="M307.802 51.7745C303.822 56.5825 295.984 54.9767 295.278 52.4731C295.462 49.7229 295.251 44.238 295.251 44.238L306.782 38.9026C306.782 38.9026 306.432 47.6732 307.802 51.7745Z" fill="#DB9D86"/>
<path d="M280.496 123.42C281.577 120.725 282.797 118.355 282.797 118.355L321.111 117.837C321.111 117.837 321.34 119.729 321.67 122.983L280.496 123.42Z" fill="#313858"/>
<path d="M281.409 138.549C281.028 138.248 280.666 122.92 280.666 122.92C280.666 122.92 282.723 78.7185 283.365 73.6332C284.007 68.5479 285.464 63.799 285.464 63.799L292.958 56.7497C292.958 56.7497 290.781 61.1031 296.213 61.9254C305.101 63.2703 311.465 55.3579 311.465 55.3579L322.666 61.9675L322.555 138.112L281.409 138.549Z" fill="#283D50"/>
<path d="M328.057 145.586C318.855 148.61 308.978 149.284 299.264 148.601C297.327 148.464 295.783 146.943 295.609 145.013C295.198 140.523 294.869 137.044 294.695 135.359C294.622 134.549 294.467 132.992 294.266 131.052C293.617 124.54 292.502 113.711 292.32 112.364C292.174 111.28 292.228 109.705 292.43 107.828C292.64 105.743 293.023 103.274 293.499 100.652C293.965 98.0015 294.522 95.1969 295.079 92.446C296.294 86.3807 297.483 80.6063 297.693 77.5374C298.369 67.8744 311.573 54.259 311.573 54.259C311.573 54.259 323.159 59.0766 325.48 61.6087C326.138 62.3284 326.686 65.3518 326.769 67.8472C326.805 68.6396 326.787 69.3865 326.705 69.9784C325.965 75.5795 326.156 82.7287 326.074 85.6882C326.047 86.745 325.974 87.2635 325.818 86.9998C326.065 91.3804 327.271 127.345 327.381 132.053L328.057 145.586Z" fill="#EAF3F4"/>
<path d="M309.413 53.9819C309.413 53.9819 297.573 65.4736 294.462 80.5657C291.35 95.6578 295.095 114.857 295.095 114.857C295.095 114.857 296.14 89.5253 300.983 80.2857L297.487 77.6401L302.33 74.7363L311.439 55.0224L309.413 53.9819Z" fill="#DAE2E3"/>
<path d="M294.267 131.052C294.267 131.052 294.267 131.06 294.267 131.07C294.111 135.268 293.956 139.841 293.837 144.33C293.773 146.689 291.662 148.483 289.323 148.137C289.213 148.119 289.104 148.1 288.995 148.091C285.677 147.591 282.37 146.953 279.08 146.206C279.336 135.014 279.546 125.76 279.61 123.429C279.647 121.279 279.701 118.994 279.784 116.562C280.031 109.531 280.369 103.046 280.753 97.1902V97.1813C281.045 92.5364 281.374 88.2836 281.694 84.4678C282.927 70.0967 284.179 61.8636 284.179 61.8636L292.512 56.5269L291.534 73.7671C291.534 73.7671 292.028 81.8181 292.722 91.0529C292.96 94.2041 293.225 97.4919 293.499 100.652C293.764 103.73 294.038 106.681 294.321 109.249C294.504 110.916 294.678 112.428 294.86 113.703C294.933 114.248 294.605 121.716 294.267 131.052Z" fill="#EAF3F4"/>
<path d="M294.228 54.7737C294.228 54.7737 293.169 58.7832 292.85 63.579C292.171 73.8182 292.764 90.3205 294.095 98.8879C294.826 103.591 294.359 108.228 294.359 108.228L287.773 78.6174L290.632 76.5549L287.872 72.2328L291.922 56.5358L294.228 54.7737Z" fill="#DAE2E3"/>
<path d="M291.414 33.2907C291.021 30.285 290.135 26.0219 293.585 24.2143C297.035 22.4066 298.027 22.8612 298.027 22.8612L294.414 31.7454L291.414 33.2907Z" fill="#422129"/>
<path d="M313.918 32.9625C313.7 34.1497 313.366 34.8986 312.839 36.6397C312.714 37.059 312.574 37.5381 312.424 38.096C311.25 42.4467 308.344 46.9652 307.88 47.8208C307.114 49.2411 302.531 52.4392 300.89 53.1426C299.249 53.8459 296.554 53.4824 295.12 52.4202C293.686 51.358 292.287 47.3424 291.871 45.7841C291.615 44.8272 290.952 39.8833 290.822 35.3063C290.807 34.7837 290.787 34.3325 290.763 33.9336C290.658 32.1436 291.77 29.0753 292.58 27.6176C294.413 24.3175 295.718 21.5326 303.322 22.4208C312.315 23.4708 314.595 29.2506 313.918 32.9625Z" fill="#EAAD96"/>
<path d="M312.424 38.096C312.138 39.1548 311.83 40.3073 311.523 41.4565L310.09 42.6655C310.532 41.7324 309.447 39.748 309.537 38.2353C309.61 37.0202 309.878 34.6879 310.025 34.1748C310.025 34.1748 307.709 33.3695 307.9 31.3688L308.109 28.2217C308.109 28.2217 304.923 28.9815 299.953 27.9539C295.821 27.099 292.294 27.9845 292.26 27.833C291.877 26.1109 295.381 18.0389 306.7 20.7789C311.346 21.903 311.857 24.6376 311.857 24.6376C315.895 25.3559 316.045 30.745 314.316 33.6257C313.541 34.9149 312.573 37.538 312.424 38.096Z" fill="#422129"/>
<path d="M308.891 40.7768C308.891 40.7768 309.15 37.0691 312.302 37.5325C314.314 37.8288 314.258 39.6542 312.411 41.803C311.633 42.7075 311.306 44.9202 310.399 45.5387C309.298 46.2903 308.619 44.853 308.386 44.2067C308.001 43.1384 308.891 40.7768 308.891 40.7768Z" fill="#EAAD96"/>
<path d="M277.212 88.646L264.356 88.7847C263.035 88.7915 261.403 87.5676 260.706 86.0521L245.515 52.6338C244.823 51.1319 245.317 49.9005 246.623 49.8835L259.358 49.6538C261.718 50.1186 262.946 50.9763 263.658 52.5182L278.862 85.7211C279.58 87.2767 279.425 88.1683 277.212 88.646Z" fill="#969BB3"/>
<path d="M276.492 88.7187L263.574 88.8648C262.245 88.8722 260.606 87.6449 259.906 86.1247L244.654 52.5596C243.961 51.0529 244.46 49.8188 245.774 49.8025L258.577 49.581C259.955 49.564 261.658 50.809 262.376 52.3618L277.709 85.8678C278.431 87.4349 277.884 88.7112 276.492 88.7187Z" fill="#313858"/>
<path d="M275.157 90.0409C273.726 89.9166 275.181 86.4004 276.938 84.0314C278.908 81.3736 281.165 81.2859 281.165 81.2859C281.548 82.9393 277.463 90.2421 275.157 90.0409Z" fill="#313858"/>
<path d="M284.388 84.7919C284.388 84.7919 280.528 80.8551 279.619 79.9655C278.709 79.0752 278.355 76.2645 277.67 75.2689C276.983 74.2733 275.488 71.9322 274.744 71.3416C274.372 71.0467 272.119 69.9383 271.916 70.4568C271.916 70.4568 272.758 72.1157 272.181 72.7708C271.989 72.9882 270.272 72.3399 269.449 71.8078C268.626 71.275 267.364 69.8696 266.73 69.1398C265.951 68.2421 264.782 66.3997 264.025 66.3861C263.268 66.3725 263.232 67.3301 263.324 67.7528C263.415 68.1748 264.152 69.0052 264.474 69.608C264.796 70.2108 265.823 71.4721 265.823 71.4721C265.823 71.4721 264.061 69.5842 263.297 68.5934C262.794 67.941 261.989 66.715 261.143 66.8978C260.296 67.0807 260.369 67.6916 260.534 68.0647C260.848 68.7776 261.388 69.2247 261.388 69.2247C261.388 69.2247 260.24 69.4836 260.173 70.0946C260.106 70.7055 261.082 71.8989 261.082 71.8989C261.082 71.8989 259.923 72.1116 259.909 72.7844C259.896 73.4572 264.484 79.3049 265.393 80.1952C266.303 81.0848 270.06 82.868 271.396 83.1982C272.732 83.5285 275.201 84.643 276.015 85.2431C276.828 85.8432 281.806 93.5285 281.806 93.5285L284.388 84.7919Z" fill="#E59782"/>
<path d="M326.705 69.9777C325.965 75.5788 326.157 82.728 326.074 85.6876C322.721 93.1738 314.716 105.596 313.154 107.563C309.143 112.618 306.237 114.357 304.017 114.121C301.989 113.911 299.969 113.383 294.322 109.248C293.737 108.82 293.107 108.346 292.431 107.827C292.074 107.554 291.7 107.271 291.316 106.971C286.043 102.872 282.773 99.6393 280.753 97.1895V97.1806C281.045 92.5357 281.374 88.2829 281.694 84.467C283.211 85.3777 287.789 88.1191 292.722 91.0515C293.509 91.5068 294.294 91.9805 295.08 92.4446C298.224 94.2938 301.348 96.1239 303.77 97.5082C303.77 97.5082 316.608 62.7823 324.211 65.1683C325.363 65.5326 326.194 66.5071 326.769 67.8459C326.805 68.639 326.787 69.3858 326.705 69.9777Z" fill="#313858"/>
<path d="M312.028 104.518C313.746 102.356 324.384 86.3827 326.948 79.3803C328.202 75.9559 329.254 63.8954 324.208 62.3119C316.61 59.928 303.772 94.6518 303.772 94.6518C296.04 90.2366 281.167 81.2946 281.167 81.2946C281.167 81.2946 278.994 87.7914 274.796 89.8709C274.796 89.8709 281.086 97.2369 291.318 104.122C299.738 109.787 300.941 110.532 303.299 110.784C305.526 111.021 308.016 109.567 312.028 104.518Z" fill="#EAF3F4"/>
<path d="M269.221 0H242.438C238.387 0 235.103 3.27353 235.103 7.31159V16.2569C235.103 20.295 238.387 23.5685 242.438 23.5685H259.438L265.958 28.0143L265.623 23.5685H269.221C273.273 23.5685 276.557 20.295 276.557 16.2569V7.31159C276.558 3.27353 273.273 0 269.221 0Z" fill="#4EA9D0"/>
<path d="M249.932 12.4765C249.932 13.2628 249.292 13.8995 248.504 13.8995C247.715 13.8995 247.076 13.2621 247.076 12.4765C247.076 11.6909 247.716 11.0535 248.504 11.0535C249.292 11.0528 249.932 11.6902 249.932 12.4765Z" fill="white"/>
<path d="M257.258 12.4765C257.258 13.2628 256.618 13.8995 255.83 13.8995C255.041 13.8995 254.402 13.2621 254.402 12.4765C254.402 11.6909 255.041 11.0535 255.83 11.0535C256.618 11.0528 257.258 11.6902 257.258 12.4765Z" fill="white"/>
<path d="M264.585 12.4765C264.585 13.2628 263.945 13.8995 263.157 13.8995C262.369 13.8995 261.729 13.2621 261.729 12.4765C261.729 11.6909 262.369 11.0535 263.157 11.0535C263.945 11.0535 264.585 11.6902 264.585 12.4765Z" fill="white"/>
<path d="M156.33 17.8123H183.114C187.165 17.8123 190.449 21.0858 190.449 25.1238V34.0692C190.449 38.1072 187.165 41.3808 183.114 41.3808H166.114L159.594 45.8266L159.929 41.3808H156.33C152.279 41.3808 148.995 38.1072 148.995 34.0692V25.1238C148.994 21.0858 152.278 17.8123 156.33 17.8123Z" fill="#EEB300"/>
<path d="M175.62 30.2888C175.62 31.075 176.26 31.7118 177.048 31.7118C177.837 31.7118 178.476 31.0744 178.476 30.2888C178.476 29.5032 177.836 28.8657 177.048 28.8657C176.26 28.8657 175.62 29.5032 175.62 30.2888Z" fill="white"/>
<path d="M168.294 30.2888C168.294 31.075 168.934 31.7118 169.722 31.7118C170.511 31.7118 171.15 31.0744 171.15 30.2888C171.15 29.5032 170.511 28.8657 169.722 28.8657C168.933 28.8657 168.294 29.5032 168.294 30.2888Z" fill="white"/>
<path d="M160.967 30.2888C160.967 31.075 161.606 31.7118 162.395 31.7118C163.183 31.7118 163.822 31.0744 163.822 30.2888C163.822 29.5032 163.183 28.8657 162.395 28.8657C161.606 28.8657 160.967 29.5032 160.967 30.2888Z" fill="white"/>
</svg>
