<svg width="48" height="48" viewBox="0 0 48 48" fill="none" xmlns="http://www.w3.org/2000/svg">
<g clip-path="url(#clip0_804_5081)">
<rect width="48" height="48" rx="12" fill="#5C93ED"/>
<path d="M28.7778 11C29.5066 10.9998 30.2086 11.275 30.743 11.7706C31.2774 12.2662 31.6048 12.9454 31.6594 13.6722L31.6667 13.8889C31.6667 14.2427 31.7966 14.5842 32.0317 14.8485C32.2668 15.1129 32.5907 15.2818 32.9421 15.3232L33.1111 15.3333H34.5556C35.6609 15.3333 36.7244 15.7556 37.5286 16.5139C38.3328 17.2721 38.8168 18.309 38.8817 19.4124L38.8889 19.6667V32.6667C38.889 33.772 38.4666 34.8355 37.7084 35.6397C36.9501 36.4439 35.9132 36.9279 34.8098 36.9928L34.5556 37H14.3333C13.228 37.0001 12.1645 36.5778 11.3603 35.8195C10.5561 35.0612 10.0721 34.0243 10.0072 32.9209L10 32.6667V19.6667C9.99994 18.5614 10.4222 17.4978 11.1805 16.6936C11.9388 15.8894 12.9757 15.4054 14.0791 15.3406L14.3333 15.3333H15.7778C16.1609 15.3333 16.5283 15.1812 16.7992 14.9103C17.07 14.6394 17.2222 14.272 17.2222 13.8889C17.222 13.1601 17.4973 12.4581 17.9928 11.9237C18.4884 11.3892 19.1677 11.0619 19.8944 11.0072L20.1111 11H28.7778ZM24.4444 21.1111C23.3706 21.111 22.335 21.5096 21.5384 22.2297C20.7418 22.9497 20.2409 23.9399 20.1328 25.0082L20.1169 25.2278L20.1111 25.4444L20.1169 25.6611C20.1593 26.5079 20.4491 27.3236 20.9506 28.0073C21.452 28.691 22.143 29.2125 22.9379 29.5073C23.7328 29.8022 24.5968 29.8573 25.4228 29.666C26.2487 29.4746 27.0004 29.0452 27.5847 28.4309C28.169 27.8165 28.5603 27.0443 28.71 26.2098C28.8598 25.3752 28.7614 24.5151 28.4271 23.736C28.0929 22.9568 27.5374 22.2928 26.8294 21.8263C26.1215 21.3597 25.2923 21.111 24.4444 21.1111Z" fill="white"/>
</g>
<defs>
<clipPath id="clip0_804_5081">
<rect width="48" height="48" rx="12" fill="white"/>
</clipPath>
</defs>
</svg>
