<svg width="48" height="48" viewBox="0 0 48 48" fill="none" xmlns="http://www.w3.org/2000/svg">
<g clip-path="url(#clip0_861_4346)">
<rect width="48" height="48" rx="12" fill="#5C93ED"/>
<circle cx="23.4546" cy="23.4546" r="12.4546" fill="white" stroke="white" stroke-width="1.5" stroke-linecap="round" stroke-linejoin="round"/>
<path fill-rule="evenodd" clip-rule="evenodd" d="M32.1172 32.7639L37.0001 37.6342L32.1172 32.7639Z" fill="white"/>
<path d="M32.1172 32.7639L37.0001 37.6342" stroke="white" stroke-width="1.5" stroke-linecap="round" stroke-linejoin="round"/>
<path d="M27.559 23.0862L22.1483 19.7315C22.033 19.6601 21.902 19.6221 21.7684 19.6213C21.6348 19.6206 21.5034 19.6572 21.3874 19.7275C21.2715 19.7977 21.1752 19.899 21.1082 20.0212C21.0412 20.1435 21.0059 20.2822 21.0059 20.4235V27.1328C21.0059 27.2741 21.0412 27.4129 21.1082 27.5351C21.1752 27.6573 21.2715 27.7587 21.3874 27.8289C21.5034 27.8991 21.6348 27.9357 21.7684 27.935C21.902 27.9343 22.033 27.8963 22.1483 27.8248L27.559 24.4701C27.6732 24.3994 27.7678 24.2983 27.8335 24.1769C27.8993 24.0555 27.9339 23.9181 27.9339 23.7782C27.9339 23.6383 27.8993 23.5008 27.8335 23.3794C27.7678 23.2581 27.6732 23.157 27.559 23.0862ZM22.5232 25.7325V21.8238L25.6753 23.7782L22.5232 25.7325Z" fill="#5C93ED"/>
</g>
<defs>
<clipPath id="clip0_861_4346">
<rect width="48" height="48" rx="12" fill="white"/>
</clipPath>
</defs>
</svg>
