<svg width="48" height="48" viewBox="0 0 48 48" fill="none" xmlns="http://www.w3.org/2000/svg">
<rect width="48" height="48" rx="12" fill="#5C93ED"/>
<path d="M19.8569 23.4956C20.451 23.0016 21.0503 23.0016 21.6587 23.5099L21.7991 23.6373L28.2809 30.1191L28.4031 30.227C28.6532 30.4209 28.9655 30.5169 29.2814 30.4969C29.5972 30.477 29.895 30.3425 30.1188 30.1188C30.3425 29.895 30.477 29.5972 30.4969 29.2814C30.5169 28.9655 30.4209 28.6532 30.227 28.4031L30.1191 28.2809L28.4395 26.6L28.8191 26.2191L28.9569 26.0956C29.551 25.6016 30.1503 25.6016 30.7587 26.1099L30.8991 26.2373L36.9753 32.3148C36.8522 33.5528 36.2894 34.7056 35.389 35.564C34.4886 36.4224 33.3102 36.9296 32.0678 36.9935L31.8 37H16.2C14.9103 36.9999 13.6666 36.5206 12.7105 35.655C11.7544 34.7894 11.154 33.5994 11.026 32.3161L19.7191 23.6191L19.8569 23.4956ZM31.8 11C33.1341 11 34.4172 11.5128 35.3839 12.4322C36.3505 13.3517 36.9268 14.6076 36.9935 15.94L37 16.2V28.6605L32.7191 24.3809L32.5241 24.2028C30.8913 22.7793 28.8191 22.7767 27.1993 24.1807L26.9991 24.3627L26.6 24.7605L23.6191 21.7809L23.4241 21.6028C21.7913 20.1793 19.7191 20.1767 18.0993 21.5807L17.8991 21.7627L11 28.6605V16.2C11 14.8659 11.5128 13.5828 12.4322 12.6161C13.3517 11.6495 14.6076 11.0732 15.94 11.0065L16.2 11H31.8ZM27.913 17.5L27.7479 17.5091C27.4319 17.5467 27.1407 17.6988 26.9294 17.9368C26.7181 18.1747 26.6014 18.4818 26.6014 18.8C26.6014 19.1182 26.7181 19.4253 26.9294 19.6632C27.1407 19.9012 27.4319 20.0533 27.7479 20.0909L27.9 20.1L28.0651 20.0909C28.3811 20.0533 28.6723 19.9012 28.8836 19.6632C29.0949 19.4253 29.2116 19.1182 29.2116 18.8C29.2116 18.4818 29.0949 18.1747 28.8836 17.9368C28.6723 17.6988 28.3811 17.5467 28.0651 17.5091L27.913 17.5Z" fill="white"/>
</svg>
