<svg width="26" height="26" viewBox="0 0 26 26" fill="none" xmlns="http://www.w3.org/2000/svg">
<rect x="0.5" y="0.5" width="25" height="25" rx="12.5" fill="white"/>
<rect x="0.5" y="0.5" width="25" height="25" rx="12.5" stroke="#5C93ED"/>
<path fill-rule="evenodd" clip-rule="evenodd" d="M17.5 9.25H16.375L16 8.5C15.7791 8.06388 15.664 7.75 15.25 7.75H10.75C10.336 7.75 10.1988 8.10775 10 8.5L9.625 9.25H8.5C7.67162 9.25 7 9.92162 7 10.75V16.75C7 17.5784 7.67162 18.25 8.5 18.25H17.5C18.3284 18.25 19 17.5784 19 16.75V10.75C19 9.92162 18.3284 9.25 17.5 9.25ZM13 16.75C11.3432 16.75 10 15.4068 10 13.75C10 12.0932 11.3432 10.75 13 10.75C14.6568 10.75 16 12.0932 16 13.75C16 15.4068 14.6568 16.75 13 16.75ZM13 11.5C11.7576 11.5 10.75 12.5076 10.75 13.75C10.75 14.9924 11.7576 16 13 16C14.2424 16 15.25 14.9924 15.25 13.75C15.25 12.5076 14.2424 11.5 13 11.5Z" fill="#5C93ED"/>
</svg>
