<svg width="61" height="26" viewBox="0 0 61 26" fill="none" xmlns="http://www.w3.org/2000/svg">
<rect x="0.5" y="0.5" width="60" height="25" rx="12.5" fill="white"/>
<rect x="0.5" y="0.5" width="60" height="25" rx="12.5" stroke="#5C93ED"/>
<path d="M13.45 17L16.6 10H17.88L21.04 17H19.68L16.97 10.69H17.49L14.79 17H13.45ZM14.9 15.38L15.25 14.36H19.03L19.38 15.38H14.9ZM24.0214 17.07C23.5081 17.07 23.0447 16.9567 22.6314 16.73C22.2247 16.4967 21.9047 16.1767 21.6714 15.77C21.4381 15.3633 21.3214 14.8833 21.3214 14.33C21.3214 13.7767 21.4381 13.2967 21.6714 12.89C21.9047 12.4833 22.2247 12.1667 22.6314 11.94C23.0447 11.7133 23.5081 11.6 24.0214 11.6C24.4681 11.6 24.8681 11.7 25.2214 11.9C25.5747 12.0933 25.8547 12.39 26.0614 12.79C26.2681 13.19 26.3714 13.7033 26.3714 14.33C26.3714 14.95 26.2714 15.4633 26.0714 15.87C25.8714 16.27 25.5947 16.57 25.2414 16.77C24.8881 16.97 24.4814 17.07 24.0214 17.07ZM24.1714 16C24.4714 16 24.7381 15.9333 24.9714 15.8C25.2114 15.6667 25.4014 15.4733 25.5414 15.22C25.6881 14.9667 25.7614 14.67 25.7614 14.33C25.7614 13.9833 25.6881 13.6867 25.5414 13.44C25.4014 13.1867 25.2114 12.9933 24.9714 12.86C24.7381 12.7267 24.4714 12.66 24.1714 12.66C23.8714 12.66 23.6014 12.7267 23.3614 12.86C23.1281 12.9933 22.9381 13.1867 22.7914 13.44C22.6514 13.6867 22.5814 13.9833 22.5814 14.33C22.5814 14.67 22.6514 14.9667 22.7914 15.22C22.9381 15.4733 23.1281 15.6667 23.3614 15.8C23.6014 15.9333 23.8714 16 24.1714 16ZM25.7914 17V15.74L25.8414 14.32L25.7414 12.9V9.58H26.9814V17H25.7914ZM30.8866 17.07C30.3733 17.07 29.91 16.9567 29.4966 16.73C29.09 16.4967 28.77 16.1767 28.5366 15.77C28.3033 15.3633 28.1866 14.8833 28.1866 14.33C28.1866 13.7767 28.3033 13.2967 28.5366 12.89C28.77 12.4833 29.09 12.1667 29.4966 11.94C29.91 11.7133 30.3733 11.6 30.8866 11.6C31.3333 11.6 31.7333 11.7 32.0866 11.9C32.44 12.0933 32.72 12.39 32.9266 12.79C33.1333 13.19 33.2366 13.7033 33.2366 14.33C33.2366 14.95 33.1366 15.4633 32.9366 15.87C32.7366 16.27 32.46 16.57 32.1066 16.77C31.7533 16.97 31.3466 17.07 30.8866 17.07ZM31.0366 16C31.3366 16 31.6033 15.9333 31.8366 15.8C32.0766 15.6667 32.2666 15.4733 32.4066 15.22C32.5533 14.9667 32.6266 14.67 32.6266 14.33C32.6266 13.9833 32.5533 13.6867 32.4066 13.44C32.2666 13.1867 32.0766 12.9933 31.8366 12.86C31.6033 12.7267 31.3366 12.66 31.0366 12.66C30.7366 12.66 30.4666 12.7267 30.2266 12.86C29.9933 12.9933 29.8033 13.1867 29.6566 13.44C29.5166 13.6867 29.4466 13.9833 29.4466 14.33C29.4466 14.67 29.5166 14.9667 29.6566 15.22C29.8033 15.4733 29.9933 15.6667 30.2266 15.8C30.4666 15.9333 30.7366 16 31.0366 16ZM32.6566 17V15.74L32.7066 14.32L32.6066 12.9V9.58H33.8466V17H32.6566Z" fill="#5C93ED"/>
<path d="M39.5 13H47.5" stroke="#5C93ED" stroke-width="1.5" stroke-linecap="round" stroke-linejoin="round"/>
<path d="M43.5 17V9" stroke="#5C93ED" stroke-width="1.5" stroke-linecap="round" stroke-linejoin="round"/>
</svg>
