<svg width="21" height="20" viewBox="0 0 21 20" fill="none" xmlns="http://www.w3.org/2000/svg">
<path d="M10.8204 0C16.426 0 20.9701 4.477 20.9701 10C20.9701 15.523 16.426 20 10.8204 20C8.12849 20 5.54687 18.9464 3.64343 17.0711C1.73999 15.1957 0.670654 12.6522 0.670654 10C0.670654 7.34784 1.73999 4.8043 3.64343 2.92893C5.54687 1.05357 8.12849 0 10.8204 0ZM14.5828 12.293C14.4169 12.1295 14.1986 12.0277 13.9651 12.0049C13.7315 11.9821 13.4972 12.0397 13.302 12.168L12.3428 12.798L11.3837 12.168L11.2659 12.102C11.1066 12.0252 10.9296 11.9908 10.7526 12.0024C10.5755 12.014 10.4047 12.0711 10.257 12.168L9.2979 12.798L8.33875 12.168C8.1435 12.0397 7.90916 11.9821 7.67562 12.0049C7.44209 12.0277 7.22378 12.1295 7.05786 12.293L6.04289 13.293C5.85261 13.4805 5.74572 13.7348 5.74572 14C5.74572 14.2652 5.85261 14.5195 6.04289 14.707L6.1383 14.79C6.33358 14.9393 6.57743 15.0132 6.82409 14.9979C7.07076 14.9826 7.30329 14.8792 7.47806 14.707L7.90435 14.287L8.73459 14.832L8.85233 14.898C9.01168 14.9748 9.18869 15.0092 9.3657 14.9976C9.54272 14.986 9.71357 14.9289 9.86121 14.832L10.8204 14.202L11.7795 14.832L11.8972 14.898C12.0566 14.9748 12.2336 15.0092 12.4106 14.9976C12.5876 14.986 12.7585 14.9289 12.9061 14.832L13.7353 14.287L14.1616 14.707C14.2559 14.7999 14.3678 14.8736 14.4909 14.9239C14.6141 14.9742 14.7461 15.0002 14.8794 15.0002C15.0127 15.0002 15.1447 14.9744 15.2679 14.9242C15.3911 14.874 15.503 14.8003 15.5973 14.7075C15.6916 14.6147 15.7664 14.5044 15.8175 14.3831C15.8686 14.2618 15.8949 14.1317 15.8949 14.0004C15.8949 13.869 15.8687 13.7389 15.8178 13.6176C15.7668 13.4962 15.6921 13.3859 15.5978 13.293L14.5828 12.293ZM7.98554 5.793C7.79521 5.60553 7.53709 5.50021 7.26796 5.50021C6.99883 5.50021 6.74071 5.60553 6.55038 5.793L6.46613 5.887C6.31465 6.0794 6.23962 6.31965 6.25513 6.56268C6.27064 6.80571 6.37562 7.03481 6.55038 7.207L7.35423 8L6.55038 8.793C6.36549 8.9816 6.26319 9.2342 6.2655 9.4964C6.26781 9.7586 6.37456 10.0094 6.56274 10.1948C6.75092 10.3802 7.00549 10.4854 7.27161 10.4877C7.53773 10.49 7.79412 10.3892 7.98554 10.207L9.508 8.707C9.69828 8.51947 9.80517 8.26516 9.80517 8C9.80517 7.73484 9.69828 7.48053 9.508 7.293L7.98554 5.793ZM15.0903 5.793C14.9 5.60553 14.6419 5.50021 14.3728 5.50021C14.1036 5.50021 13.8455 5.60553 13.6552 5.793L12.1327 7.293C11.9424 7.48053 11.8355 7.73484 11.8355 8C11.8355 8.26516 11.9424 8.51947 12.1327 8.707L13.6552 10.207C13.8455 10.3945 14.1036 10.4998 14.3728 10.4998C14.6419 10.4998 14.9 10.3945 15.0903 10.207L15.1746 10.113C15.3261 9.9206 15.4011 9.68034 15.3856 9.43732C15.3701 9.19429 15.2651 8.96519 15.0903 8.793L14.2865 8L15.0903 7.207C15.2806 7.01947 15.3875 6.76516 15.3875 6.5C15.3875 6.23484 15.2806 5.98053 15.0903 5.793Z" fill="url(#paint0_linear_717_4200)"/>
<defs>
<linearGradient id="paint0_linear_717_4200" x1="10.8204" y1="0" x2="10.8204" y2="20" gradientUnits="userSpaceOnUse">
<stop stop-color="#FEDC31"/>
<stop offset="1" stop-color="#D87C04"/>
</linearGradient>
</defs>
</svg>
