<svg width="42" height="35" viewBox="0 0 42 35" fill="none" xmlns="http://www.w3.org/2000/svg">
<path fill-rule="evenodd" clip-rule="evenodd" d="M36.75 5H32.8125L31.5 2.5C30.7269 1.04625 30.324 0 28.875 0H13.125C11.676 0 11.1956 1.1925 10.5 2.5L9.1875 5H5.25C2.35069 5 0 7.23875 0 10V30C0 32.7612 2.35069 35 5.25 35H36.75C39.6493 35 42 32.7612 42 30V10C42 7.23875 39.6493 5 36.75 5ZM21 30C15.2014 30 10.5 25.5225 10.5 20C10.5 14.4775 15.2014 10 21 10C26.7986 10 31.5 14.4775 31.5 20C31.5 25.5225 26.7986 30 21 30ZM21 12.5C16.6517 12.5 13.125 15.8588 13.125 20C13.125 24.1413 16.6517 27.5 21 27.5C25.3483 27.5 28.875 24.1413 28.875 20C28.875 15.8588 25.3483 12.5 21 12.5Z" fill="white" fill-opacity="0.7"/>
</svg>
