<svg width="20" height="20" viewBox="0 0 20 20" fill="none" xmlns="http://www.w3.org/2000/svg">
<path fill-rule="evenodd" clip-rule="evenodd" d="M6.39175 1.66663H13.6167C16.4417 1.66663 18.3334 3.64996 18.3334 6.59996V13.4091C18.3334 16.35 16.4417 18.3333 13.6167 18.3333H6.39175C3.56675 18.3333 1.66675 16.35 1.66675 13.4091V6.59996C1.66675 3.64996 3.56675 1.66663 6.39175 1.66663ZM9.52508 12.4916L13.4834 8.53329C13.7667 8.24996 13.7667 7.79163 13.4834 7.49996C13.2001 7.21663 12.7334 7.21663 12.4501 7.49996L9.00841 10.9416L7.55008 9.48329C7.26675 9.19996 6.80008 9.19996 6.51675 9.48329C6.23341 9.76663 6.23341 10.225 6.51675 10.5166L8.50008 12.4916C8.64175 12.6333 8.82508 12.7 9.00841 12.7C9.20008 12.7 9.38341 12.6333 9.52508 12.4916Z" fill="#5C93ED"/>
</svg>
