<svg width="18" height="18" viewBox="0 0 18 18" fill="none" xmlns="http://www.w3.org/2000/svg">
<g clip-path="url(#clip0_20_5008)">
<path d="M14.9877 14.9913C18.2965 11.6824 18.2965 6.31949 14.9877 3.01067C11.6788 -0.298153 6.3212 -0.298153 3.01238 3.01067C-0.296444 6.32479 -0.296444 11.6824 3.01238 14.9913C6.3159 18.2948 11.6788 18.3001 14.9877 14.9913ZM4.91828 9.17833C5.12473 8.97185 5.46356 8.97185 5.67004 9.17833L7.39592 10.8989L12.33 5.97539C12.5418 5.77422 12.8753 5.77422 13.0818 5.98066C13.2883 6.18714 13.2883 6.52067 13.0818 6.72715L7.76649 12.0213C7.66593 12.1272 7.52828 12.1748 7.39592 12.1748C7.25827 12.1748 7.12592 12.1272 7.02003 12.0213L4.91828 9.93008C4.7118 9.72361 4.7118 9.3848 4.91828 9.17833Z" fill="#03B10F"/>
</g>
<defs>
<clipPath id="clip0_20_5008">
<rect width="18" height="18" fill="white"/>
</clipPath>
</defs>
</svg>
