<svg width="20" height="20" viewBox="0 0 20 20" fill="" xmlns="http://www.w3.org/2000/svg">
<path d="M17.1924 4.96644H15.0336V2.79642C15.0336 2.05476 14.7389 1.34348 14.2145 0.819053C13.6901 0.294622 12.9788 0 12.2371 0H7.76286C7.02121 0 6.30993 0.294622 5.7855 0.819053C5.26107 1.34348 4.96644 2.05476 4.96644 2.79642V4.96644H2.79642C2.05476 4.96644 1.34348 5.26106 0.819053 5.78549C0.294622 6.30993 0 7.02121 0 7.76286V18.3221C0.00322069 18.7661 0.181028 19.191 0.494991 19.505C0.808954 19.819 1.23385 19.9968 1.67785 20H18.311C18.756 20 19.1827 19.8232 19.4974 19.5086C19.812 19.1939 19.9888 18.7671 19.9888 18.3221V7.76286C19.9888 7.39563 19.9165 7.032 19.7759 6.69272C19.6354 6.35344 19.4294 6.04517 19.1698 5.78549C18.9101 5.52582 18.6018 5.31984 18.2625 5.17931C17.9233 5.03877 17.5596 4.96644 17.1924 4.96644ZM4.96644 18.8814H1.67785C1.53024 18.8791 1.38932 18.8195 1.28493 18.7151C1.18054 18.6107 1.12088 18.4698 1.11857 18.3221V7.76286C1.11857 7.31787 1.29534 6.8911 1.61 6.57644C1.92466 6.26178 2.35143 6.08501 2.79642 6.08501H4.96644V18.8814ZM13.915 18.8814H12.2371V16.085C12.233 15.4897 11.9961 14.9196 11.5772 14.4966C11.2637 14.185 10.8649 13.9732 10.4311 13.888C9.99735 13.8028 9.54807 13.8481 9.13999 14.018C8.73191 14.1879 8.38332 14.475 8.13823 14.8428C7.89313 15.2107 7.76251 15.643 7.76286 16.085V18.8814H6.08501V2.79642C6.08501 2.35143 6.26178 1.92466 6.57644 1.61C6.8911 1.29534 7.31787 1.11857 7.76286 1.11857H12.2371C12.6821 1.11857 13.1089 1.29534 13.4236 1.61C13.7382 1.92466 13.915 2.35143 13.915 2.79642V18.8814ZM18.8702 18.3221C18.8702 18.4705 18.8113 18.6127 18.7064 18.7176C18.6015 18.8225 18.4593 18.8814 18.311 18.8814H15.0336V6.08501H17.1924C17.6374 6.08501 18.0642 6.26178 18.3788 6.57644C18.6935 6.8911 18.8702 7.31787 18.8702 7.76286V18.3221Z" fill=""/>
<path d="M12.7965 6.15213C12.7965 6.30047 12.7375 6.44272 12.6326 6.54761C12.5278 6.65249 12.3855 6.71142 12.2372 6.71142H10.5593V8.38927C10.5593 8.5376 10.5004 8.67986 10.3955 8.78474C10.2906 8.88963 10.1484 8.94855 10 8.94855C9.8517 8.94855 9.70945 8.88963 9.60456 8.78474C9.49967 8.67986 9.44075 8.5376 9.44075 8.38927V6.71142H7.7629C7.61457 6.71142 7.47231 6.65249 7.36742 6.54761C7.26254 6.44272 7.20361 6.30047 7.20361 6.15213C7.20361 6.0038 7.26254 5.86155 7.36742 5.75666C7.47231 5.65177 7.61457 5.59285 7.7629 5.59285H9.44075V3.915C9.44075 3.76667 9.49967 3.62441 9.60456 3.51952C9.70945 3.41464 9.8517 3.35571 10 3.35571C10.1476 3.35802 10.2886 3.41768 10.393 3.52208C10.4973 3.62647 10.557 3.76738 10.5593 3.915V5.59285H12.2372C12.3848 5.59516 12.5257 5.65482 12.6301 5.75921C12.7345 5.8636 12.7941 6.00452 12.7965 6.15213Z" fill=""/>
<path d="M3.04366 11.3614C2.89533 11.3614 2.75307 11.3024 2.64819 11.1976C2.5433 11.0927 2.48438 10.9504 2.48438 10.8021V9.12423C2.48438 8.97589 2.5433 8.83364 2.64819 8.72875C2.75307 8.62387 2.89533 8.56494 3.04366 8.56494C3.19199 8.56494 3.33425 8.62387 3.43913 8.72875C3.54402 8.83364 3.60294 8.97589 3.60294 9.12423V10.8021C3.60294 10.9504 3.54402 11.0927 3.43913 11.1976C3.33425 11.3024 3.19199 11.3614 3.04366 11.3614Z" fill=""/>
<path d="M3.04366 16.3951C2.89533 16.3951 2.75307 16.3361 2.64819 16.2312C2.5433 16.1264 2.48438 15.9841 2.48438 15.8358V14.1579C2.48438 14.0096 2.5433 13.8673 2.64819 13.7624C2.75307 13.6576 2.89533 13.5986 3.04366 13.5986C3.19199 13.5986 3.33425 13.6576 3.43913 13.7624C3.54402 13.8673 3.60294 14.0096 3.60294 14.1579V15.8358C3.60294 15.9841 3.54402 16.1264 3.43913 16.2312C3.33425 16.3361 3.19199 16.3951 3.04366 16.3951Z" fill=""/>
<path d="M16.9528 11.3614C16.8045 11.3614 16.6623 11.3024 16.5574 11.1976C16.4525 11.0927 16.3936 10.9504 16.3936 10.8021V9.12423C16.3936 8.97589 16.4525 8.83364 16.5574 8.72875C16.6623 8.62387 16.8045 8.56494 16.9528 8.56494C17.1012 8.56494 17.2434 8.62387 17.3483 8.72875C17.4532 8.83364 17.5121 8.97589 17.5121 9.12423V10.8021C17.5121 10.9504 17.4532 11.0927 17.3483 11.1976C17.2434 11.3024 17.1012 11.3614 16.9528 11.3614Z" fill=""/>
<path d="M16.9528 16.3951C16.8045 16.3951 16.6623 16.3361 16.5574 16.2312C16.4525 16.1264 16.3936 15.9841 16.3936 15.8358V14.1579C16.3936 14.0096 16.4525 13.8673 16.5574 13.7624C16.6623 13.6576 16.8045 13.5986 16.9528 13.5986C17.1012 13.5986 17.2434 13.6576 17.3483 13.7624C17.4532 13.8673 17.5121 14.0096 17.5121 14.1579V15.8358C17.5121 15.9841 17.4532 16.1264 17.3483 16.2312C17.2434 16.3361 17.1012 16.3951 16.9528 16.3951Z" fill=""/>
</svg>
