<svg width="10" height="10" viewBox="0 0 10 10" fill="none" xmlns="http://www.w3.org/2000/svg">
<g clip-path="url(#clip0_272_3716)">
<path d="M5.41669 0.854583V0.416667C5.41669 0.30616 5.37279 0.200179 5.29465 0.122039C5.21651 0.0438987 5.11053 0 5.00002 0C4.88952 0 4.78354 0.0438987 4.7054 0.122039C4.62725 0.200179 4.58336 0.30616 4.58336 0.416667V0.854583C3.74451 0.929787 2.9427 1.23509 2.26627 1.73684C1.58984 2.2386 1.06503 2.91734 0.749683 3.69828C0.434332 4.47923 0.340671 5.33207 0.47902 6.16284C0.617369 6.99361 0.982357 7.77007 1.53377 8.40667C1.31601 8.51439 1.13404 8.68278 1.00977 8.89155C0.885498 9.10031 0.824235 9.34055 0.833356 9.58333C0.833356 9.69384 0.877255 9.79982 0.955395 9.87796C1.03353 9.9561 1.13952 10 1.25002 10C1.36053 10 1.46651 9.9561 1.54465 9.87796C1.62279 9.79982 1.66669 9.69384 1.66669 9.58333C1.66323 9.4549 1.70933 9.33007 1.79545 9.23472C1.88156 9.13938 2.00107 9.08084 2.12919 9.07125C2.15785 9.0658 2.1858 9.05713 2.21252 9.04542C3.01066 9.66446 3.99204 10.0004 5.00211 10.0004C6.01217 10.0004 6.99355 9.66446 7.79169 9.04542C7.81608 9.05665 7.84147 9.06558 7.86752 9.07208C7.99609 9.08085 8.11631 9.13892 8.2031 9.23417C8.28989 9.32942 8.33655 9.45451 8.33336 9.58333C8.33336 9.69384 8.37725 9.79982 8.45539 9.87796C8.53354 9.9561 8.63952 10 8.75002 10C8.86053 10 8.96651 9.9561 9.04465 9.87796C9.12279 9.79982 9.16669 9.69384 9.16669 9.58333C9.17581 9.34055 9.11455 9.10031 8.99028 8.89155C8.86601 8.68278 8.68404 8.51439 8.46627 8.40667C9.01769 7.77007 9.38268 6.99361 9.52103 6.16284C9.65937 5.33207 9.56571 4.47923 9.25036 3.69828C8.93501 2.91734 8.41021 2.2386 7.73378 1.73684C7.05735 1.23509 6.25554 0.929787 5.41669 0.854583ZM1.25002 5.41667C1.25002 4.67499 1.46996 3.94996 1.88201 3.33328C2.29407 2.71659 2.87974 2.23595 3.56496 1.95212C4.25018 1.66829 5.00418 1.59403 5.73161 1.73872C6.45904 1.88342 7.12723 2.24057 7.65167 2.76502C8.17612 3.28946 8.53327 3.95765 8.67797 4.68508C8.82266 5.41251 8.7484 6.16651 8.46457 6.85173C8.18074 7.53695 7.7001 8.12262 7.08341 8.53468C6.46673 8.94673 5.7417 9.16667 5.00002 9.16667C4.00583 9.16545 3.05271 8.76998 2.34971 8.06698C1.64671 7.36398 1.25124 6.41086 1.25002 5.41667Z" fill="#5C93ED"/>
<path d="M8.00627 0.000102838C7.89576 0.000102838 7.78978 0.0440015 7.71164 0.122142C7.6335 0.200282 7.5896 0.306263 7.5896 0.41677C7.5896 0.527276 7.6335 0.633257 7.71164 0.711397C7.78978 0.789538 7.89576 0.833436 8.00627 0.833436C8.15156 0.822391 8.29759 0.840886 8.43554 0.887803C8.5735 0.934721 8.70052 1.00909 8.80895 1.10643C8.91739 1.20377 9.00499 1.32206 9.06647 1.45416C9.12795 1.58627 9.16204 1.72946 9.16668 1.8751C9.16668 1.98561 9.21058 2.09159 9.28872 2.16973C9.36686 2.24787 9.47284 2.29177 9.58335 2.29177C9.69386 2.29177 9.79984 2.24787 9.87798 2.16973C9.95612 2.09159 10 1.98561 10 1.8751C9.99468 1.62031 9.93859 1.36914 9.83502 1.13628C9.73146 0.903426 9.58249 0.693564 9.39684 0.518971C9.21119 0.344379 8.99258 0.208564 8.75382 0.119471C8.51505 0.0303785 8.26091 -0.0102023 8.00627 0.000102838Z" fill="#5C93ED"/>
<path d="M0.833333 1.8751C0.837978 1.72946 0.872068 1.58627 0.933549 1.45416C0.995031 1.32206 1.08263 1.20377 1.19106 1.10643C1.2995 1.00909 1.42652 0.934721 1.56447 0.887803C1.70243 0.840886 1.84846 0.822391 1.99375 0.833436C2.10426 0.833436 2.21024 0.789538 2.28838 0.711397C2.36652 0.633257 2.41042 0.527276 2.41042 0.41677C2.41042 0.306263 2.36652 0.200282 2.28838 0.122142C2.21024 0.0440015 2.10426 0.000102838 1.99375 0.000102838C1.73911 -0.0102023 1.48497 0.0303785 1.2462 0.119471C1.00743 0.208564 0.788827 0.344379 0.603178 0.518971C0.417528 0.693564 0.268561 0.903426 0.164992 1.13628C0.061423 1.36914 0.00533177 1.62031 0 1.8751C0 1.98561 0.0438987 2.09159 0.122039 2.16973C0.200179 2.24787 0.30616 2.29177 0.416667 2.29177C0.527174 2.29177 0.633154 2.24787 0.711294 2.16973C0.789435 2.09159 0.833333 1.98561 0.833333 1.8751Z" fill="#5C93ED"/>
<path d="M5.41671 4.8275V2.91667C5.41671 2.80616 5.37281 2.70018 5.29467 2.62204C5.21653 2.5439 5.11055 2.5 5.00004 2.5C4.88953 2.5 4.78355 2.5439 4.70541 2.62204C4.62727 2.70018 4.58337 2.80616 4.58337 2.91667V5C4.5834 5.1105 4.62731 5.21646 4.70546 5.29458L5.95546 6.54458C6.03404 6.62048 6.13929 6.66248 6.24854 6.66153C6.35779 6.66058 6.4623 6.61676 6.53955 6.53951C6.6168 6.46225 6.66062 6.35775 6.66157 6.2485C6.66252 6.13925 6.62052 6.034 6.54462 5.95542L5.41671 4.8275Z" fill="#5C93ED"/>
</g>
<defs>
<clipPath id="clip0_272_3716">
<rect width="10" height="10" fill="white"/>
</clipPath>
</defs>
</svg>
