<svg width="18" height="18" viewBox="0 0 22 22" fill="none" xmlns="http://www.w3.org/2000/svg">
<g clip-path="url(#clip0_195_1558)">
<path d="M19.25 3.66667H16.4083C16.1956 2.63213 15.6327 1.70257 14.8145 1.03466C13.9963 0.366749 12.9729 0.00133331 11.9167 0L10.0833 0C9.02714 0.00133331 8.00371 0.366749 7.18552 1.03466C6.36733 1.70257 5.80442 2.63213 5.59167 3.66667H2.75C2.50688 3.66667 2.27373 3.76324 2.10182 3.93515C1.92991 4.10706 1.83333 4.34022 1.83333 4.58333C1.83333 4.82645 1.92991 5.05961 2.10182 5.23151C2.27373 5.40342 2.50688 5.5 2.75 5.5H3.66667V17.4167C3.66812 18.6318 4.15147 19.7967 5.0107 20.656C5.86993 21.5152 7.03487 21.9985 8.25 22H13.75C14.9651 21.9985 16.1301 21.5152 16.9893 20.656C17.8485 19.7967 18.3319 18.6318 18.3333 17.4167V5.5H19.25C19.4931 5.5 19.7263 5.40342 19.8982 5.23151C20.0701 5.05961 20.1667 4.82645 20.1667 4.58333C20.1667 4.34022 20.0701 4.10706 19.8982 3.93515C19.7263 3.76324 19.4931 3.66667 19.25 3.66667ZM10.0833 1.83333H11.9167C12.4853 1.83403 13.0397 2.01059 13.504 2.33882C13.9683 2.66705 14.3196 3.13087 14.5099 3.66667H7.49008C7.68037 3.13087 8.03174 2.66705 8.49602 2.33882C8.9603 2.01059 9.51475 1.83403 10.0833 1.83333ZM16.5 17.4167C16.5 18.146 16.2103 18.8455 15.6945 19.3612C15.1788 19.8769 14.4793 20.1667 13.75 20.1667H8.25C7.52065 20.1667 6.82118 19.8769 6.30546 19.3612C5.78973 18.8455 5.5 18.146 5.5 17.4167V5.5H16.5V17.4167Z" fill="red"/>
<path d="M9.16667 16.5C9.40978 16.5 9.64294 16.4034 9.81485 16.2315C9.98676 16.0596 10.0833 15.8265 10.0833 15.5834V10.0834C10.0833 9.84024 9.98676 9.60708 9.81485 9.43517C9.64294 9.26326 9.40978 9.16669 9.16667 9.16669C8.92355 9.16669 8.69039 9.26326 8.51849 9.43517C8.34658 9.60708 8.25 9.84024 8.25 10.0834V15.5834C8.25 15.8265 8.34658 16.0596 8.51849 16.2315C8.69039 16.4034 8.92355 16.5 9.16667 16.5Z" fill="white"/>
<path d="M12.8333 16.5C13.0764 16.5 13.3096 16.4034 13.4815 16.2315C13.6534 16.0596 13.75 15.8265 13.75 15.5834V10.0834C13.75 9.84024 13.6534 9.60708 13.4815 9.43517C13.3096 9.26326 13.0764 9.16669 12.8333 9.16669C12.5902 9.16669 12.3571 9.26326 12.1852 9.43517C12.0132 9.60708 11.9167 9.84024 11.9167 10.0834V15.5834C11.9167 15.8265 12.0132 16.0596 12.1852 16.2315C12.3571 16.4034 12.5902 16.5 12.8333 16.5Z" fill="white"/>
</g>
<defs>
<clipPath id="clip0_195_1558">
<rect width="22" height="22" fill="red"/>
</clipPath>
</defs>
</svg>
