<svg width="16" height="16" viewBox="0 0 16 16" fill="none" xmlns="http://www.w3.org/2000/svg">
<path d="M6.85735 13.7143C6.85735 13.0857 7.37164 12.5714 8.00021 12.5714C8.62878 12.5714 9.14307 13.0857 9.14307 13.7143C9.14307 14.3428 8.62878 14.8571 8.00021 14.8571C7.37164 14.8571 6.85735 14.3428 6.85735 13.7143ZM6.85735 7.99997C6.85735 7.37139 7.37164 6.85711 8.00021 6.85711C8.62878 6.85711 9.14307 7.37139 9.14307 7.99997C9.14307 8.62854 8.62878 9.14282 8.00021 9.14282C7.37164 9.14282 6.85735 8.62854 6.85735 7.99997ZM6.85735 2.28568C6.85735 1.65711 7.37164 1.14282 8.00021 1.14282C8.62878 1.14282 9.14307 1.65711 9.14307 2.28568C9.14307 2.91425 8.62878 3.42854 8.00021 3.42854C7.37164 3.42854 6.85735 2.91425 6.85735 2.28568Z" fill="#0A0B12"/>
</svg>
