<svg width="16" height="17" viewBox="0 0 16 17" fill="none" xmlns="http://www.w3.org/2000/svg">
<path d="M15.2936 1.20647C14.8403 0.753933 14.226 0.499756 13.5855 0.499756C12.945 0.499756 12.3307 0.753933 11.8775 1.20647L0 13.084V16.5H3.41605L15.2936 4.62252C15.7459 4.1692 16 3.55493 16 2.9145C16 2.27407 15.7459 1.6598 15.2936 1.20647ZM2.86671 15.1667H1.33335V13.6333L10.2068 4.76653L11.7402 6.29988L2.86671 15.1667ZM14.3509 3.67984L12.6795 5.3512L11.1495 3.81785L12.8202 2.14916C13.0235 1.94582 13.2993 1.83159 13.5869 1.83159C13.8744 1.83159 14.1502 1.94582 14.3535 2.14916C14.5569 2.35249 14.6711 2.62827 14.6711 2.91583C14.6711 3.20339 14.5569 3.47918 14.3535 3.68251L14.3509 3.67984Z" fill="#5C93ED"/>
</svg>
