<svg width="40" height="40" viewBox="0 0 40 40" fill="none" xmlns="http://www.w3.org/2000/svg">
<rect width="40" height="40" rx="10" fill="#5C93ED"/>
<path d="M18.7476 23.4447H14.0221" stroke="white" stroke-width="1.5" stroke-linecap="round" stroke-linejoin="round"/>
<path d="M20.8553 16.1753H25.5809" stroke="white" stroke-width="1.5" stroke-linecap="round" stroke-linejoin="round"/>
<path fill-rule="evenodd" clip-rule="evenodd" d="M17.5447 16.1347C17.5447 15.1629 16.7511 14.375 15.7724 14.375C14.7936 14.375 14 15.1629 14 16.1347C14 17.1064 14.7936 17.8944 15.7724 17.8944C16.7511 17.8944 17.5447 17.1064 17.5447 16.1347Z" stroke="white" stroke-width="1.5" stroke-linecap="round" stroke-linejoin="round"/>
<path fill-rule="evenodd" clip-rule="evenodd" d="M26 23.4153C26 22.4436 25.207 21.6556 24.2283 21.6556C23.2489 21.6556 22.4553 22.4436 22.4553 23.4153C22.4553 24.3871 23.2489 25.175 24.2283 25.175C25.207 25.175 26 24.3871 26 23.4153Z" stroke="white" stroke-width="1.5" stroke-linecap="round" stroke-linejoin="round"/>
</svg>
