<svg width="22" height="18" viewBox="0 0 22 18" fill="none" xmlns="http://www.w3.org/2000/svg">
<path d="M19.25 0H2.75C2.15326 0 1.58097 0.237053 1.15901 0.65901C0.737053 1.08097 0.5 1.65326 0.5 2.25V15.75C0.505834 16.0595 0.575452 16.3644 0.704501 16.6457C0.83355 16.927 1.01925 17.1787 1.25 17.385H1.295C1.68974 17.7591 2.20661 17.9776 2.75 18H19.25C19.8467 18 20.419 17.7629 20.841 17.341C21.2629 16.919 21.5 16.3467 21.5 15.75V2.25C21.5 1.65326 21.2629 1.08097 20.841 0.65901C20.419 0.237053 19.8467 0 19.25 0ZM2.75 1.5H19.25C19.4489 1.5 19.6397 1.57902 19.7803 1.71967C19.921 1.86032 20 2.05109 20 2.25V9.3375L19.0025 8.85C18.6079 8.66137 18.1721 8.57553 17.7354 8.60044C17.2988 8.62535 16.8756 8.76022 16.505 8.9925L12.845 11.37C12.845 11.37 12.8 11.415 12.7775 11.4375L10.6475 9.54C10.1972 9.15293 9.6166 8.95151 9.02334 8.97658C8.43008 9.00165 7.86853 9.25132 7.4525 9.675L2 15.4875V2.25C2 2.05109 2.07902 1.86032 2.21967 1.71967C2.36032 1.57902 2.55109 1.5 2.75 1.5ZM16.25 16.5H3.11L8.5475 10.7025C8.69487 10.5632 8.88768 10.4819 9.09033 10.4736C9.29297 10.4653 9.49176 10.5306 9.65 10.6575L16.25 16.5ZM19.25 16.5H18.4025C18.361 16.4246 18.3078 16.3563 18.245 16.2975L13.925 12.4575L17.3225 10.245C17.4765 10.1564 17.6495 10.1061 17.827 10.0983C18.0045 10.0904 18.1813 10.1253 18.3425 10.2L20 11.01V15.75C20 15.9489 19.921 16.1397 19.7803 16.2803C19.6397 16.421 19.4489 16.5 19.25 16.5Z" fill="#878589"/>
</svg>
