<svg width="42" height="42" viewBox="0 0 42 42" fill="none" xmlns="http://www.w3.org/2000/svg">
<circle opacity="0.1" cx="21" cy="21" r="21" fill="#5C93ED"/>
<g clip-path="url(#clip0_7_1490)">
<path d="M20.47 32.7501C26.655 32.7501 31.69 27.7151 31.69 21.5301C31.69 19.8151 31.3 18.1551 30.535 16.5951C30.415 16.3501 30.115 16.2451 29.865 16.3651C29.8058 16.3939 29.7529 16.4341 29.7093 16.4833C29.6657 16.5326 29.6323 16.5901 29.6109 16.6523C29.5895 16.7145 29.5806 16.7804 29.5848 16.8461C29.5889 16.9118 29.606 16.976 29.635 17.0351C30.335 18.4551 30.69 19.9701 30.69 21.5301C30.69 27.1651 26.105 31.7501 20.47 31.7501C14.835 31.7501 10.25 27.1651 10.25 21.5301C10.25 15.8951 14.835 11.3101 20.47 11.3101C22.03 11.3101 23.545 11.6651 24.965 12.3651C25.215 12.4851 25.515 12.3851 25.635 12.1351C25.755 11.8851 25.655 11.5901 25.405 11.4651C23.845 10.7001 22.185 10.3101 20.47 10.3101C14.285 10.3101 9.25 15.3451 9.25 21.5301C9.25 27.7151 14.285 32.7501 20.47 32.7501Z" fill="#5C93ED"/>
<path d="M29.29 15.965C29.42 15.965 29.55 15.91 29.645 15.82L32.605 12.86C32.75 12.715 32.79 12.5 32.715 12.315C32.6768 12.2227 32.6124 12.1437 32.5297 12.0877C32.4471 12.0317 32.3498 12.0012 32.25 12H30V9.74997C30 9.54997 29.88 9.36497 29.69 9.28997C29.505 9.21497 29.29 9.25497 29.145 9.39997L26.185 12.36C26.09 12.455 26.035 12.585 26.04 12.72L26.07 15.23L20.12 21.18C20.0502 21.2498 20.0028 21.3388 19.9837 21.4356C19.9646 21.5325 19.9747 21.6328 20.0127 21.7239C20.0508 21.815 20.115 21.8927 20.1973 21.9472C20.2796 22.0017 20.3763 22.0305 20.475 22.03C20.605 22.03 20.73 21.98 20.83 21.885L26.78 15.935L29.29 15.965C29.285 15.965 29.285 15.965 29.29 15.965ZM27.06 14.94L27.04 12.92L29 10.955V12.5C29 12.775 29.225 13 29.5 13H31.045L29.085 14.96L27.06 14.94Z" fill="#5C93ED"/>
<path d="M21.165 19.0349C21.228 19.0527 21.2939 19.0578 21.359 19.0501C21.424 19.0423 21.4868 19.0218 21.544 18.9898C21.6011 18.9578 21.6513 18.9148 21.6918 18.8634C21.7323 18.8119 21.7623 18.753 21.78 18.6899C21.7977 18.6269 21.8029 18.561 21.7951 18.496C21.7874 18.431 21.7669 18.3681 21.7349 18.311C21.7028 18.2539 21.6599 18.2036 21.6084 18.1631C21.557 18.1226 21.498 18.0927 21.435 18.0749C21.115 17.9849 20.79 17.9399 20.47 17.9399C18.485 17.9399 16.875 19.5549 16.875 21.5349C16.875 23.5149 18.49 25.1299 20.47 25.1299C22.455 25.1299 24.065 23.5149 24.065 21.5349C24.065 21.2149 24.02 20.8899 23.93 20.5699C23.9123 20.5069 23.8823 20.448 23.8418 20.3965C23.8013 20.3451 23.7511 20.3021 23.694 20.2701C23.6368 20.238 23.574 20.2176 23.509 20.2098C23.4439 20.2021 23.378 20.2072 23.315 20.2249C23.252 20.2427 23.193 20.2726 23.1416 20.3131C23.0901 20.3536 23.0472 20.4039 23.0151 20.461C22.9831 20.5181 22.9626 20.581 22.9549 20.646C22.9471 20.711 22.9523 20.7769 22.97 20.8399C23.035 21.0749 23.07 21.3099 23.07 21.5399C23.07 22.9699 21.905 24.1349 20.475 24.1349C19.045 24.1349 17.88 22.9699 17.88 21.5399C17.87 19.8699 19.47 18.5599 21.165 19.0349Z" fill="#5C93ED"/>
<path d="M24.5751 15.9651C24.7251 15.7301 24.6551 15.4251 24.4201 15.2751C23.2384 14.5219 21.8664 14.1212 20.4651 14.1201C16.3801 14.1201 13.0601 17.4451 13.0601 21.5251C13.0601 25.6101 16.3851 28.9351 20.4651 28.9351C24.5451 28.9351 27.8751 25.6101 27.8751 21.5251C27.8751 20.1301 27.4751 18.7601 26.7201 17.5701C26.5701 17.3351 26.2601 17.2701 26.0301 17.4151C25.7951 17.5651 25.7251 17.8701 25.8751 18.1051C26.5301 19.1351 26.8751 20.3151 26.8751 21.5201C26.8751 25.0551 24.0001 27.9301 20.4651 27.9301C16.9301 27.9301 14.0601 25.0551 14.0601 21.5201C14.0601 17.9851 16.9351 15.1151 20.4651 15.1151C21.6701 15.1151 22.8551 15.4601 23.8801 16.1151C23.9352 16.1519 23.9972 16.1773 24.0624 16.1897C24.1275 16.2021 24.1945 16.2013 24.2593 16.1873C24.3241 16.1733 24.3855 16.1464 24.4397 16.1083C24.494 16.0701 24.54 16.0214 24.5751 15.9651Z" fill="#5C93ED"/>
</g>
<defs>
<clipPath id="clip0_7_1490">
<rect width="24" height="24" fill="white" transform="translate(9 9)"/>
</clipPath>
</defs>
</svg>
