<svg width="21" height="20" viewBox="0 0 21 20" fill="none" xmlns="http://www.w3.org/2000/svg">
<path d="M15.2246 1.33989C16.7554 2.21075 18.0289 3.46042 18.9189 4.96519C19.8089 6.46997 20.2845 8.17766 20.2988 9.91923C20.3131 11.6608 19.8655 13.3758 19.0003 14.8946C18.135 16.4133 16.8822 17.6831 15.3659 18.5782C13.8495 19.4733 12.1222 19.9627 10.3548 19.998C8.58749 20.0332 6.84146 19.6131 5.28957 18.7791C3.73769 17.9452 2.43377 16.7264 1.50689 15.2434C0.580017 13.7604 0.0623286 12.0646 0.00507497 10.3239L0 9.99989L0.00507497 9.67589C0.0619164 7.94888 0.571984 6.26585 1.48555 4.79089C2.39912 3.31592 3.685 2.09934 5.21785 1.25977C6.7507 0.420205 8.47819 -0.0137108 10.2319 0.000330246C11.9856 0.0143713 13.7058 0.47589 15.2246 1.33989ZM13.1946 10.9999H7.10479C6.8356 10.9999 6.57744 11.1052 6.3871 11.2928C6.19675 11.4803 6.08982 11.7347 6.08982 11.9999V12.0499C6.08984 13.0698 6.48779 14.0508 7.20133 14.7897C7.91488 15.5287 8.88943 15.9691 9.92336 16.0199L10.1538 16.0249C11.1909 16.0175 12.1864 15.6218 12.9385 14.918C13.6905 14.2142 14.1427 13.255 14.2035 12.2349L14.2096 12.0289C14.2135 11.8952 14.1902 11.762 14.1409 11.6373C14.0917 11.5126 14.0176 11.3989 13.9229 11.303C13.8283 11.207 13.715 11.1307 13.5899 11.0787C13.4648 11.0266 13.3304 10.9998 13.1946 10.9999ZM7.11494 5.99989L6.98604 6.00689C6.72915 6.037 6.49363 6.16261 6.32759 6.35806C6.16155 6.55351 6.07753 6.80406 6.09269 7.0585C6.10785 7.31294 6.22105 7.55208 6.40916 7.72704C6.59727 7.90201 6.8461 7.99961 7.10479 7.99989L7.23369 7.99289C7.49058 7.96279 7.7261 7.83718 7.89214 7.64173C8.05818 7.44627 8.1422 7.19573 8.12704 6.94129C8.11188 6.68685 7.99868 6.44771 7.81057 6.27274C7.62246 6.09777 7.37364 6.00018 7.11494 5.99989ZM13.2048 5.99989L13.0759 6.00689C12.819 6.037 12.5835 6.16261 12.4174 6.35806C12.2514 6.55351 12.1673 6.80406 12.1825 7.0585C12.1977 7.31294 12.3109 7.55208 12.499 7.72704C12.6871 7.90201 12.9359 7.99961 13.1946 7.99989L13.3235 7.99289C13.5804 7.96279 13.8159 7.83718 13.982 7.64173C14.148 7.44627 14.232 7.19573 14.2169 6.94129C14.2017 6.68685 14.0885 6.44771 13.9004 6.27274C13.7123 6.09777 13.4635 6.00018 13.2048 5.99989Z" fill="url(#paint0_linear_717_4201)"/>
<defs>
<linearGradient id="paint0_linear_717_4201" x1="10.1496" y1="0" x2="10.1496" y2="20" gradientUnits="userSpaceOnUse">
<stop stop-color="#FEDC31"/>
<stop offset="1" stop-color="#E18A0B"/>
</linearGradient>
</defs>
</svg>
