<svg width="18" height="18" viewBox="0 0 18 18" fill="none" xmlns="http://www.w3.org/2000/svg">
<g clip-path="url(#clip0_804_4705)">
<rect width="18" height="18" rx="9" fill="#EBEBEB"/>
<path d="M7.52073 6.06167C6.84129 5.92523 6.13582 6.01661 5.51358 6.32168C4.89133 6.62675 4.38704 7.12847 4.0788 7.74915C3.77056 8.36983 3.67557 9.07482 3.80855 9.75495C3.94152 10.4351 4.29505 11.0524 4.81436 11.5112C5.33367 11.9701 5.9898 12.245 6.68112 12.2932C7.37245 12.3414 8.06039 12.1604 8.6384 11.7781C9.21641 11.3958 9.65224 10.8336 9.87838 10.1785C10.1045 9.52343 10.1084 8.81208 9.88932 8.1546" stroke="#5C93ED" stroke-width="1.4" stroke-linecap="round" stroke-linejoin="round"/>
<path d="M10.4769 12.2397C11.1571 12.3768 11.8635 12.2856 12.4865 11.9801C13.1095 11.6747 13.6142 11.1721 13.9224 10.5505C14.2305 9.92879 14.3248 9.22278 14.1906 8.54204C14.0564 7.8613 13.7012 7.2439 13.1802 6.78569C12.6591 6.32748 12.0014 6.05409 11.3091 6.00795C10.6168 5.96182 9.92863 6.14552 9.35142 6.53055C8.77421 6.91557 8.34024 7.48038 8.1169 8.13729C7.89355 8.79421 7.89332 9.50648 8.11623 10.1635" stroke="#5C93ED" stroke-width="1.4" stroke-linecap="round" stroke-linejoin="round"/>
</g>
<defs>
<clipPath id="clip0_804_4705">
<rect width="18" height="18" rx="9" fill="white"/>
</clipPath>
</defs>
</svg>
