<svg width="6" height="9" viewBox="0 0 6 9" fill="none" xmlns="http://www.w3.org/2000/svg">
<path d="M3 0.5C1.34325 0.5 0 1.84325 0 3.5C0 4.15237 0.213875 4.751 0.569375 5.24125C0.57575 5.253 0.57675 5.26613 0.584 5.27738L2.584 8.27738C2.67675 8.4165 2.833 8.5 3 8.5C3.167 8.5 3.32325 8.4165 3.416 8.27738L5.416 5.27738C5.42337 5.26613 5.42425 5.253 5.43062 5.24125C5.78613 4.751 6 4.15237 6 3.5C6 1.84325 4.65675 0.5 3 0.5ZM3 4.5C2.44775 4.5 2 4.05225 2 3.5C2 2.94775 2.44775 2.5 3 2.5C3.55225 2.5 4 2.94775 4 3.5C4 4.05225 3.55225 4.5 3 4.5Z" fill="#FF3D00"/>
</svg>
