<svg width="220" height="168" viewBox="0 0 220 168" fill="none" xmlns="http://www.w3.org/2000/svg">
<path d="M195.324 120.918H115.796C114.374 120.918 113.217 119.762 113.217 118.34V2.57755C113.217 1.15642 114.374 0 115.796 0H195.324C196.746 0 197.904 1.15598 197.904 2.57755V118.34C197.904 119.762 196.746 120.918 195.324 120.918ZM115.796 0.109926C114.434 0.109926 113.327 1.2171 113.327 2.57755V118.34C113.327 119.701 114.435 120.808 115.796 120.808H195.324C196.686 120.808 197.794 119.7 197.794 118.34V2.57755C197.794 1.2171 196.686 0.109926 195.324 0.109926H115.796Z" fill="#F0F0F0"/>
<path d="M103.616 120.918H24.0881C22.666 120.918 21.5088 119.762 21.5088 118.34V2.57755C21.5088 1.15642 22.6655 0 24.0881 0H103.616C105.038 0 106.196 1.15598 106.196 2.57755V118.34C106.196 119.762 105.039 120.918 103.616 120.918ZM24.0881 0.109926C22.7267 0.109926 21.6188 1.2171 21.6188 2.57755V118.34C21.6188 119.701 22.7267 120.808 24.0881 120.808H103.616C104.978 120.808 106.086 119.7 106.086 118.34V2.57755C106.086 1.2171 104.978 0.109926 103.616 0.109926H24.0881Z" fill="#F0F0F0"/>
<path d="M220 147.771H0V147.881H220V147.771Z" fill="#E0E0E0"/>
<path d="M206.627 95.5383H123.027C123.027 96.9524 124.174 98.0992 125.59 98.0992H204.065C205.48 98.0992 206.627 96.9529 206.627 95.5383Z" fill="#E0E0E0"/>
<path d="M190.207 119.76H140.203V122.13H190.207V119.76Z" fill="#E0E0E0"/>
<path d="M188.439 147.801L195.255 98.0994H192.861L186.045 147.801H188.439Z" fill="#E6E6E6"/>
<path d="M194.042 147.801L187.116 98.0994H189.51L196.436 147.801H194.042Z" fill="#E6E6E6"/>
<path d="M136.377 147.801L143.485 98.0994H141.091L133.983 147.801H136.377Z" fill="#E6E6E6"/>
<path d="M141.981 147.801L135.165 98.0994H137.559L144.375 147.801H141.981Z" fill="#E6E6E6"/>
<path d="M209.433 91.4285H120.223V95.5547H209.433V91.4285Z" fill="#E6E6E6"/>
<path d="M152.374 91.444H191.087L191.507 90.4942C191.772 89.8966 191.082 89.3013 190.126 89.3013H154.404C153.764 89.3013 153.2 89.577 153.023 89.9775L152.374 91.444Z" fill="#E0E0E0"/>
<path d="M201.701 64.5138L196.745 85.4583C196.613 86.0167 196.115 86.4107 195.541 86.4107H165.014C164.215 86.4107 163.625 85.6658 163.809 84.8893L168.764 63.9448C168.897 63.3868 169.395 62.9924 169.969 62.9924H200.495C201.295 62.9924 201.885 63.7373 201.701 64.5138Z" fill="#F0F0F0"/>
<path d="M186.868 75.52C186.722 76.8383 185.535 77.9067 184.216 77.9067C182.897 77.9067 181.945 76.8383 182.091 75.52C182.236 74.2018 183.424 73.1333 184.743 73.1333C186.062 73.1333 187.013 74.2018 186.868 75.52Z" fill="#E0E0E0"/>
<path d="M171.179 62.9924L165.903 86.4107H165.014C164.215 86.4107 163.625 85.6658 163.809 84.8893L168.764 63.9448C168.897 63.3868 169.395 62.9924 169.969 62.9924H171.179Z" fill="#E0E0E0"/>
<path d="M180.021 86.4102L178.98 91.3854H182.039L183.08 86.4102H180.021Z" fill="#E0E0E0"/>
<path d="M174.517 90.5435L175.143 89.6637C175.367 89.3497 175.728 89.1628 176.114 89.1628H184.5C184.944 89.1628 185.351 89.4091 185.556 89.8022L185.979 90.609C186.176 90.9863 185.902 91.4383 185.476 91.4383H174.98C174.518 91.4392 174.25 90.919 174.517 90.5435Z" fill="#E0E0E0"/>
<path d="M162.053 24.0297L161.801 23.6291L176.535 14.3518L190.906 23.8367L190.645 24.232L176.528 14.9159L162.053 24.0297Z" fill="#F0F0F0"/>
<path d="M191.221 23.6528H161.549V42.1987H191.221V23.6528Z" fill="#E0E0E0"/>
<path d="M190.398 41.3773V24.4746L162.371 24.4746V41.3773H190.398Z" fill="white"/>
<path d="M166.354 29.7744H164.562V31.5645H166.354V29.7744Z" fill="#F0F0F0"/>
<path d="M169.114 29.7744H167.323V31.5645H169.114V29.7744Z" fill="#F0F0F0"/>
<path d="M171.875 29.7744H170.084V31.5645H171.875V29.7744Z" fill="#F0F0F0"/>
<path d="M174.636 29.7744H172.845V31.5645H174.636V29.7744Z" fill="#F0F0F0"/>
<path d="M177.398 29.7744H175.606V31.5645H177.398V29.7744Z" fill="#F0F0F0"/>
<path d="M180.157 29.7744H178.366V31.5645H180.157V29.7744Z" fill="#F0F0F0"/>
<path d="M182.919 29.7744H181.128V31.5645H182.919V29.7744Z" fill="#F0F0F0"/>
<path d="M185.68 29.7744H183.889V31.5645H185.68V29.7744Z" fill="#F0F0F0"/>
<path d="M188.441 29.7744H186.649V31.5645H188.441V29.7744Z" fill="#F0F0F0"/>
<path d="M166.354 32.2373H164.562V34.0273H166.354V32.2373Z" fill="#F0F0F0"/>
<path d="M169.114 32.2373H167.323V34.0273H169.114V32.2373Z" fill="#F0F0F0"/>
<path d="M171.875 32.2373H170.084V34.0273H171.875V32.2373Z" fill="#F0F0F0"/>
<path d="M174.636 32.2373H172.845V34.0273H174.636V32.2373Z" fill="#F0F0F0"/>
<path d="M177.398 32.2373H175.606V34.0273H177.398V32.2373Z" fill="#F0F0F0"/>
<path d="M180.157 32.2373H178.366V34.0273H180.157V32.2373Z" fill="#F0F0F0"/>
<path d="M182.919 32.2373H181.128V34.0273H182.919V32.2373Z" fill="#F0F0F0"/>
<path d="M185.68 32.2373H183.889V34.0273H185.68V32.2373Z" fill="#F0F0F0"/>
<path d="M188.441 32.2373H186.649V34.0273H188.441V32.2373Z" fill="#F0F0F0"/>
<path d="M166.354 34.7H164.562V36.49H166.354V34.7Z" fill="#F0F0F0"/>
<path d="M169.114 34.7H167.323V36.49H169.114V34.7Z" fill="#F0F0F0"/>
<path d="M171.875 34.7H170.084V36.49H171.875V34.7Z" fill="#F0F0F0"/>
<path d="M174.636 34.7H172.845V36.49H174.636V34.7Z" fill="#F0F0F0"/>
<path d="M177.398 34.7H175.606V36.49H177.398V34.7Z" fill="#F0F0F0"/>
<path d="M180.157 34.7H178.366V36.49H180.157V34.7Z" fill="#F0F0F0"/>
<path d="M182.919 34.7H181.128V36.49H182.919V34.7Z" fill="#F0F0F0"/>
<path d="M185.68 34.7H183.889V36.49H185.68V34.7Z" fill="#F0F0F0"/>
<path d="M188.441 34.7H186.649V36.49H188.441V34.7Z" fill="#F0F0F0"/>
<path d="M166.354 37.3489H164.562V39.1389H166.354V37.3489Z" fill="#F0F0F0"/>
<path d="M169.114 37.3489H167.323V39.1389H169.114V37.3489Z" fill="#F0F0F0"/>
<path d="M171.875 37.3489H170.084V39.1389H171.875V37.3489Z" fill="#F0F0F0"/>
<path d="M174.636 37.3489H172.845V39.1389H174.636V37.3489Z" fill="#F0F0F0"/>
<path d="M184.468 26.1289H168.536V27.6749H184.468V26.1289Z" fill="#E0E0E0"/>
<path d="M177.479 14.5205C177.479 15.017 177.076 15.4193 176.579 15.4193C176.082 15.4193 175.68 15.017 175.68 14.5205C175.68 14.0241 176.082 13.6213 176.579 13.6213C177.076 13.6218 177.479 14.0241 177.479 14.5205Z" fill="#E0E0E0"/>
<path d="M150.636 5.39294H119.695V80.5166H150.636V5.39294Z" fill="#F0F0F0"/>
<path d="M148.748 7.28064H121.582V78.6316H148.748V7.28064Z" fill="#FAFAFA"/>
<path d="M148.748 10.3367V15.7231L121.582 42.8748V37.4841L148.748 10.3367Z" fill="white"/>
<path d="M148.748 28.9668V36.5649L121.582 63.7123V56.1098L148.748 28.9668Z" fill="white"/>
<path d="M136.1 5.39294H134.23V80.5166H136.1V5.39294Z" fill="#F0F0F0"/>
<path d="M96.2499 5.39294H65.3096V80.5166H96.2499V5.39294Z" fill="#F0F0F0"/>
<path d="M94.3619 7.28064H67.1963V78.6316H94.3619V7.28064Z" fill="#FAFAFA"/>
<path d="M94.3619 10.3367V15.7231L67.1963 42.8748V37.4841L94.3619 10.3367Z" fill="white"/>
<path d="M94.3619 28.9668V36.5649L67.1963 63.7123V56.1098L94.3619 28.9668Z" fill="white"/>
<path d="M81.7147 5.39294H79.8447V80.5166H81.7147V5.39294Z" fill="#F0F0F0"/>
<path d="M74.9533 137.736C74.9533 137.736 71.2138 138.564 71.7695 135.957C72.3252 133.349 72.2843 132.388 70.7645 131.203C69.2448 130.018 67.7153 129.433 68.8791 127.556C70.0429 125.68 67.8346 124.221 66.6936 123.211C65.5523 122.201 66.8406 121.439 67.1429 119.53C67.4452 117.621 65.3899 117.908 65.2284 115.503C65.067 113.098 67.5116 110.288 65.4097 106.978C65.4097 106.978 68.2328 108.44 69.1603 111.011C70.0878 113.581 69.3389 115.566 71.0065 116.542C72.6741 117.519 73.7182 119.209 73.152 120.943C72.5852 122.677 73.3904 123.597 74.7575 124.861C76.1246 126.126 75.7607 126.628 75.5904 128.175C75.4206 129.721 75.762 129.355 77.3271 131.468C78.8926 133.581 78.9322 137.043 74.9533 137.736Z" fill="#F0F0F0"/>
<path d="M75.4855 137.621C75.4776 137.608 75.471 137.595 75.4666 137.581L67.984 114.885C67.9519 114.788 68.0051 114.682 68.1023 114.65C68.1036 114.65 68.1045 114.65 68.1058 114.649C68.2026 114.62 68.3061 114.673 68.3377 114.769L75.8199 137.464C75.8261 137.482 75.8287 137.501 75.8296 137.52L75.4855 137.621Z" fill="#E0E0E0"/>
<path d="M81.701 137.689C81.701 137.689 85.4207 138.513 84.8681 135.919C84.3155 133.326 84.3559 132.369 85.8678 131.191C87.3796 130.012 88.9011 129.43 87.7431 127.563C86.5854 125.696 88.7819 124.245 89.9171 123.241C91.0523 122.236 89.771 121.479 89.4701 119.58C89.1695 117.681 91.2138 117.966 91.3744 115.574C91.535 113.181 89.1031 110.386 91.194 107.093C91.194 107.093 88.3859 108.548 87.4632 111.105C86.541 113.661 87.2855 115.636 85.6267 116.608C83.9679 117.58 82.929 119.26 83.4927 120.985C84.0563 122.71 83.2555 123.625 81.8955 124.883C80.5354 126.141 80.8975 126.641 81.0665 128.179C81.2355 129.717 80.8962 129.353 79.3391 131.454C77.7828 133.556 77.7432 137 81.701 137.689Z" fill="#F0F0F0"/>
<path d="M80.8291 137.473C80.8295 137.455 80.8322 137.436 80.8383 137.418L88.2809 114.843C88.3126 114.747 88.4156 114.694 88.5119 114.724C88.5133 114.724 88.5141 114.725 88.5155 114.725C88.6123 114.757 88.6651 114.862 88.6329 114.958L81.1903 137.534C81.1859 137.548 81.1793 137.562 81.1714 137.574L80.8291 137.473Z" fill="#E0E0E0"/>
<path d="M77.57 137.217C77.57 137.217 73.2896 136.862 74.7513 134.255C76.213 131.646 76.4889 130.603 75.2547 128.83C74.0205 127.056 72.5768 125.921 74.4473 124.298C76.3173 122.675 74.4372 120.379 73.5501 118.919C72.6635 117.458 74.2964 117.07 75.2547 115.125C76.213 113.18 73.9162 112.806 74.5428 110.176C75.1693 107.547 78.7214 105.348 77.5704 101.105C77.5704 101.105 80.1079 103.609 80.2474 106.67C80.3864 109.73 78.9252 111.608 80.3864 113.208C81.8481 114.808 82.4047 116.964 81.2215 118.633C80.0384 120.303 80.595 121.555 81.6391 123.363C82.6832 125.172 82.1262 125.589 81.4301 127.189C80.734 128.788 81.2211 128.51 82.1957 131.292C83.1703 134.074 82.0624 137.796 77.57 137.217Z" fill="#F5F5F5"/>
<path d="M78.1784 137.27C78.174 137.254 78.1714 137.238 78.1714 137.221L77.6993 110.429C77.6971 110.314 77.789 110.219 77.9039 110.217C77.9052 110.217 77.9065 110.217 77.9083 110.217C78.0218 110.217 78.1151 110.308 78.1173 110.422L78.5889 137.213C78.5898 137.235 78.5863 137.256 78.5806 137.276L78.1784 137.27Z" fill="#E0E0E0"/>
<path d="M89.2253 135.148H68.2906C67.6887 135.148 67.2724 135.748 67.4849 136.312L67.7947 137.133L67.9905 137.654L68.5524 139.144L68.7491 139.665L69.3263 141.195L69.5217 141.715L71.8247 147.826H85.6921L87.9951 141.715L88.1909 141.195L88.7682 139.665L88.9649 139.144L89.5267 137.654L89.7225 137.133L90.0323 136.312C90.2426 135.748 89.8268 135.148 89.2253 135.148Z" fill="#E6E6E6"/>
<path d="M39.2163 23.8514C43.3845 23.8514 46.7636 20.4746 46.7636 16.3091C46.7636 12.1436 43.3845 8.76685 39.2163 8.76685C35.048 8.76685 31.6689 12.1436 31.6689 16.3091C31.6689 20.4746 35.048 23.8514 39.2163 23.8514Z" fill="#E0E0E0"/>
<path d="M46.0726 17.4605C46.7081 13.6763 44.1535 10.0938 40.3667 9.45875C36.58 8.8237 32.9951 11.3766 32.3596 15.1608C31.7241 18.945 34.2787 22.5275 38.0655 23.1626C41.8522 23.7976 45.4371 21.2447 46.0726 17.4605Z" fill="#FAFAFA"/>
<path d="M39.2347 9.99292H38.9746V11.4432H39.2347V9.99292Z" fill="#E0E0E0"/>
<path d="M39.2347 21.1394H38.9746V22.5892H39.2347V21.1394Z" fill="#E0E0E0"/>
<path d="M34.253 16.1606H32.8027V16.4211H34.253V16.1606Z" fill="#E0E0E0"/>
<path d="M45.4068 16.1606H43.957V16.4211H45.4068V16.1606Z" fill="#E0E0E0"/>
<path d="M43.469 11.7438L42.4434 12.769L42.6276 12.9531L43.6533 11.9279L43.469 11.7438Z" fill="#E0E0E0"/>
<path d="M35.582 19.6257L34.5566 20.6506L34.7409 20.8347L35.7663 19.8098L35.582 19.6257Z" fill="#E0E0E0"/>
<path d="M34.7399 11.7453L34.5557 11.9294L35.5811 12.9549L35.7653 12.7707L34.7399 11.7453Z" fill="#E0E0E0"/>
<path d="M42.6265 19.6258L42.4424 19.8101L43.468 20.8354L43.6521 20.6512L42.6265 19.6258Z" fill="#E0E0E0"/>
<path d="M39.0583 16.1188L38.9766 16.3264L41.4351 17.2945L41.5169 17.0869L39.0583 16.1188Z" fill="#E0E0E0"/>
<path d="M39.2162 16.4018H35.1611V16.1789H38.9931V13.0337H39.2162V16.4018Z" fill="#E0E0E0"/>
<path d="M92.8668 16.8057C95.6191 14.0552 95.6191 9.5957 92.8668 6.84519C90.1144 4.09468 85.652 4.09468 82.8996 6.84519C80.1472 9.59571 80.1472 14.0552 82.8996 16.8057C85.652 19.5562 90.1144 19.5562 92.8668 16.8057Z" fill="#5C93ED"/>
<path d="M91.4179 11.8232V11.8267C91.4179 12.1517 91.1525 12.4164 90.8239 12.4164H88.4743V14.7644C88.4743 15.0893 88.2089 15.354 87.8842 15.354C87.5555 15.354 87.2902 15.0889 87.2902 14.7644V12.4164H84.9406C84.6155 12.4164 84.3506 12.1512 84.3506 11.8267V11.8232C84.3506 11.4983 84.6159 11.2336 84.9406 11.2336H87.2902V8.88554C87.2902 8.5606 87.5555 8.2959 87.8842 8.2959C88.2094 8.2959 88.4743 8.56104 88.4743 8.88554V11.2336H90.8239C91.1525 11.2336 91.4179 11.4987 91.4179 11.8232Z" fill="white"/>
<path d="M87.8841 20.6552C87.768 20.6552 87.6738 20.5611 87.6738 20.445V20.0246C87.6738 19.9086 87.768 19.8145 87.8841 19.8145C88.0003 19.8145 88.0945 19.9086 88.0945 20.0246V20.445C88.0945 20.5615 88.0003 20.6552 87.8841 20.6552ZM88.0945 30.5244V29.6845C88.0945 29.5684 88.0003 29.4743 87.8841 29.4743C87.768 29.4743 87.6738 29.5684 87.6738 29.6845V30.5244C87.6738 30.6404 87.768 30.7345 87.8841 30.7345C88.0003 30.7345 88.0945 30.6404 88.0945 30.5244ZM88.0945 28.0044V27.1646C88.0945 27.0485 88.0003 26.9544 87.8841 26.9544C87.768 26.9544 87.6738 27.0485 87.6738 27.1646V28.0044C87.6738 28.1205 87.768 28.2146 87.8841 28.2146C88.0003 28.2146 88.0945 28.1205 88.0945 28.0044ZM88.0945 25.4844V24.6446C88.0945 24.5285 88.0003 24.4344 87.8841 24.4344C87.768 24.4344 87.6738 24.5285 87.6738 24.6446V25.4844C87.6738 25.6005 87.768 25.6946 87.8841 25.6946C88.0003 25.6946 88.0945 25.601 88.0945 25.4844ZM88.0945 22.9649V22.1251C88.0945 22.009 88.0003 21.9149 87.8841 21.9149C87.768 21.9149 87.6738 22.009 87.6738 22.1251V22.9649C87.6738 23.081 87.768 23.1751 87.8841 23.1751C88.0003 23.1751 88.0945 23.081 88.0945 22.9649ZM88.5151 32.6244C88.5151 32.5083 88.4209 32.4142 88.3048 32.4142H88.0945V32.204C88.0945 32.0879 88.0003 31.9938 87.8841 31.9938C87.768 31.9938 87.6738 32.0879 87.6738 32.204V32.6244C87.6738 32.7405 87.768 32.8346 87.8841 32.8346H88.3048C88.4209 32.8346 88.5151 32.7405 88.5151 32.6244ZM98.0728 32.6244C98.0728 32.5083 97.9786 32.4142 97.8625 32.4142H97.0661C96.9499 32.4142 96.8557 32.5083 96.8557 32.6244C96.8557 32.7405 96.9499 32.8346 97.0661 32.8346H97.8625C97.9786 32.8346 98.0728 32.7405 98.0728 32.6244ZM95.6831 32.6244C95.6831 32.5083 95.589 32.4142 95.4728 32.4142H94.6764C94.5603 32.4142 94.4661 32.5083 94.4661 32.6244C94.4661 32.7405 94.5603 32.8346 94.6764 32.8346H95.4728C95.589 32.8346 95.6831 32.7405 95.6831 32.6244ZM93.2939 32.6244C93.2939 32.5083 93.1998 32.4142 93.0836 32.4142H92.2872C92.1711 32.4142 92.0769 32.5083 92.0769 32.6244C92.0769 32.7405 92.1711 32.8346 92.2872 32.8346H93.0836C93.1998 32.8346 93.2939 32.7405 93.2939 32.6244ZM90.9047 32.6244C90.9047 32.5083 90.8106 32.4142 90.6944 32.4142H89.898C89.7819 32.4142 89.6877 32.5083 89.6877 32.6244C89.6877 32.7405 89.7819 32.8346 89.898 32.8346H90.6944C90.8106 32.8346 90.9047 32.7405 90.9047 32.6244ZM100.086 32.6244C100.086 32.5083 99.9921 32.4142 99.8759 32.4142H99.4553C99.3391 32.4142 99.2449 32.5083 99.2449 32.6244C99.2449 32.7405 99.3391 32.8346 99.4553 32.8346H99.8759C99.9921 32.8346 100.086 32.7405 100.086 32.6244Z" fill="#5C93ED"/>
<path d="M179.354 157.348L179.796 164.415L176.782 164.655L174.757 157.706L179.354 157.348Z" fill="#CE7A63"/>
<path d="M177.483 163.951C177.483 163.951 177.021 163.38 176.435 163.575C175.849 163.77 175.082 164.729 175.082 164.729C175.082 164.729 171.904 165.747 171.046 165.801C170.187 165.855 169.623 166.405 169.553 167.999H180.362C180.362 167.999 180.362 164.252 179.995 163.602C179.677 163.04 179.039 163.763 179.039 163.763L177.483 163.951Z" fill="#263238"/>
<path d="M169.799 167.506C170.423 167.499 171.05 167.492 171.674 167.485C174.407 167.456 177.143 167.427 179.876 167.402C179.981 167.398 179.981 167.239 179.876 167.239C179.692 167.243 179.505 167.243 179.321 167.243C179.321 167.236 179.321 167.232 179.317 167.225C178.921 166.356 179.378 165.47 180.161 165.027C180.251 164.977 180.172 164.836 180.082 164.89C179.231 165.37 178.766 166.317 179.155 167.247L177.998 167.258C175.265 167.286 172.532 167.315 169.799 167.344C169.695 167.344 169.695 167.506 169.799 167.506Z" fill="white"/>
<path d="M175.451 165.382C175.089 164.874 174.478 164.73 173.964 165.113C173.881 165.175 173.801 165.035 173.883 164.974C174.472 164.534 175.18 164.725 175.59 165.301C175.65 165.386 175.51 165.467 175.451 165.382Z" fill="white"/>
<path d="M174.555 165.653C174.192 165.144 173.581 165 173.068 165.384C172.985 165.446 172.905 165.306 172.986 165.245C173.576 164.804 174.284 164.996 174.694 165.572C174.754 165.656 174.614 165.737 174.555 165.653Z" fill="white"/>
<path d="M173.628 165.923C173.266 165.415 172.655 165.27 172.141 165.654C172.058 165.716 171.978 165.577 172.06 165.515C172.649 165.074 173.357 165.266 173.767 165.842C173.827 165.927 173.688 166.007 173.628 165.923Z" fill="white"/>
<path d="M156.241 157.274L155.821 164.413L152.777 164.655L151.6 157.635L156.241 157.274Z" fill="#CE7A63"/>
<path d="M153.478 163.951C153.478 163.951 153.016 163.38 152.43 163.575C151.844 163.77 151.077 164.729 151.077 164.729C151.077 164.729 147.898 165.748 147.04 165.801C146.182 165.855 145.43 166.337 145.108 167.999H155.517C155.517 167.999 155.926 164.246 155.99 163.603C156.053 162.959 155.034 163.764 155.034 163.764L153.478 163.951Z" fill="#263238"/>
<path d="M145.417 167.506C146.041 167.499 146.668 167.492 147.292 167.485C150.025 167.456 152.761 167.427 155.494 167.402C155.599 167.398 155.599 167.24 155.494 167.24C155.31 167.243 155.123 167.243 154.939 167.243C154.939 167.236 154.939 167.232 154.935 167.225C154.539 166.357 154.997 165.471 155.779 165.027C155.869 164.977 155.79 164.837 155.7 164.891C154.849 165.37 154.384 166.317 154.773 167.247L153.616 167.258C150.883 167.287 148.15 167.316 145.417 167.345C145.313 167.344 145.313 167.506 145.417 167.506Z" fill="white"/>
<path d="M151.446 165.382C151.083 164.874 150.472 164.73 149.958 165.113C149.875 165.175 149.795 165.035 149.877 164.974C150.466 164.534 151.174 164.725 151.584 165.301C151.645 165.386 151.505 165.467 151.446 165.382Z" fill="white"/>
<path d="M150.549 165.653C150.187 165.144 149.575 165 149.062 165.384C148.979 165.446 148.899 165.306 148.981 165.245C149.57 164.804 150.278 164.996 150.688 165.572C150.748 165.656 150.609 165.737 150.549 165.653Z" fill="white"/>
<path d="M149.622 165.923C149.26 165.415 148.649 165.271 148.135 165.654C148.052 165.716 147.972 165.577 148.054 165.515C148.643 165.075 149.351 165.266 149.761 165.842C149.822 165.927 149.682 166.008 149.622 165.923Z" fill="white"/>
<path d="M149.149 82.8895C149.149 82.8895 147.372 106.745 147.489 117.222C147.61 128.12 151.167 159.833 151.167 159.833H156.992C156.992 159.833 158.065 128.677 158.587 117.974C159.155 106.306 162.644 80.9768 162.644 80.9768L149.149 82.8895Z" fill="#263238"/>
<path opacity="0.2" d="M159.697 104.993C160.152 100.712 160.678 96.2886 161.155 92.4223L160.473 88.3418C160.473 88.3418 158.19 94.7118 159.697 104.993Z" fill="black"/>
<path d="M157.43 158.072C157.418 158.701 157.372 159.951 157.372 159.951H150.659L150.457 158.072H157.43Z" fill="#5C93ED"/>
<path d="M159.087 80.9768C159.087 80.9768 160.855 107.252 162.756 117.088C164.837 127.86 174.284 159.833 174.284 159.833H180.58C180.58 159.833 176.536 128.814 175.459 118.148C174.291 106.573 173.782 83.1995 173.782 83.1995L159.087 80.9768Z" fill="#263238"/>
<path d="M180.862 158.025C180.923 158.67 181.021 159.951 181.021 159.951H173.646L173.202 158.025H180.862Z" fill="#5C93ED"/>
<path d="M174.854 85.4361C162.266 86.2936 152.801 86.3595 147.785 84.4688C147.438 62.3164 148.212 48.5361 149.255 45.1679C149.537 44.2621 150.153 43.5059 150.997 43.0749C151.864 42.6264 153.189 42.1076 154.966 41.8438C157.602 41.4524 161.967 41.3381 164.989 41.3469C166.648 41.3513 168.351 41.4788 169.755 41.6195C171.497 41.7998 172.637 43.3564 172.562 45.1064C172.412 48.4745 172.399 51.8822 172.478 55.224C172.527 57.1499 172.601 59.0494 172.698 60.9094C173.327 72.7858 174.832 82.8463 174.854 85.4361Z" fill="#5C93ED"/>
<path opacity="0.2" d="M172.699 60.9093L167.292 49.0342L172.479 55.2239C172.527 57.1498 172.602 59.0493 172.699 60.9093Z" fill="black"/>
<path d="M156.787 24.103C156.122 23.3814 153.892 23.3203 152.829 24.7098C151.696 26.1929 150.256 28.9402 149.341 28.2125C149.341 28.2125 149.718 29.5734 151.273 29.6785C151.273 29.6785 150.343 30.6929 149.148 30.3182C149.148 30.3182 149.681 32.194 151.913 32.5194C153.963 32.818 156.812 26.9558 157.265 25.9946C157.263 24.9349 157.182 24.9754 156.787 24.103Z" fill="#263238"/>
<path d="M158.061 24.3606C159.88 24.1592 161.728 24.6719 163.114 25.8657C164.019 26.6453 164.722 27.6781 164.41 28.9062C163.682 31.7722 161.746 36.3979 161.746 36.3979L153.058 29.7219C153.058 29.7219 153.014 26.9381 154.412 25.5566C155.139 24.8376 156.716 24.5101 158.061 24.3606Z" fill="#263238"/>
<path d="M156.465 24.2041C156.465 24.2041 159.457 22.0707 163.438 25.0286C167.419 27.9864 163.421 33.346 163.421 33.346C163.421 33.346 162.147 35.716 163.271 36.2973C163.271 36.2973 162.559 36.577 162.03 36.5158C162.03 36.5158 162.416 37.2339 162.911 37.1719C162.911 37.1719 162.223 37.4485 160.998 36.9006C159.773 36.3532 156.465 24.2041 156.465 24.2041Z" fill="#263238"/>
<path d="M156.655 38.9787L156.654 38.9827C156.658 38.9967 156.66 39.0055 156.664 39.0192L156.901 40.7551C156.895 41.1029 156.857 41.445 156.79 41.7739C156.734 42.0514 156.656 42.3178 156.566 42.5724C156.133 43.0332 155.816 44.1611 157.129 44.3286C158.787 44.5432 162.13 42.4964 162.33 41.7788C161.842 39.4184 161.527 36.6901 161.919 34.5408L159.773 36.3532L156.655 38.9787Z" fill="#CE7A63"/>
<path opacity="0.2" d="M156.664 39.0195L156.901 40.7555C157.998 40.4103 159.21 39.5234 159.595 38.4506C159.867 37.6754 159.6 36.8856 159.283 36.8052L156.664 39.0195Z" fill="black"/>
<path d="M152.899 34.9804C152.952 35.3581 153.017 35.7319 153.091 36.1017C153.751 39.3665 157.587 40.1281 160.28 38.1151C160.284 38.1111 160.284 38.1067 160.288 38.1067C160.527 37.9278 160.758 37.7281 160.977 37.503C162.755 35.68 162.562 34.0869 162.764 30.5478C162.967 27.013 159.484 24.3593 156.078 25.762C152.935 27.0565 152.363 31.2034 152.899 34.9804Z" fill="#CE7A63"/>
<path d="M157.14 32.101C157.144 32.3866 156.996 32.6198 156.81 32.6224C156.623 32.6251 156.469 32.3958 156.465 32.1103C156.461 31.8247 156.609 31.5915 156.795 31.5889C156.982 31.5862 157.136 31.8155 157.14 32.101Z" fill="#263238"/>
<path d="M154.031 32.1318C154.035 32.4174 153.887 32.6506 153.701 32.6532C153.514 32.6559 153.36 32.4266 153.356 32.1411C153.352 31.8555 153.5 31.6223 153.686 31.6197C153.873 31.617 154.027 31.8463 154.031 32.1318Z" fill="#263238"/>
<path d="M156.014 35.9883C155.954 35.9813 155.919 35.9747 155.916 35.9738C155.858 35.961 155.82 35.9034 155.832 35.8445C155.845 35.786 155.902 35.7491 155.962 35.7605C156.019 35.7728 157.432 36.0516 157.828 34.459C157.842 34.4005 157.904 34.3636 157.96 34.3794C158.019 34.3939 158.054 34.4533 158.04 34.5118C157.656 36.0573 156.379 36.0292 156.014 35.9883Z" fill="#263238"/>
<path d="M162.762 30.8801C162.762 30.8801 161.882 31.5361 161.698 32.4322C161.643 32.7 161.458 32.7303 161.458 32.7303L160.175 32.8346C160.175 32.8346 160.958 29.4229 160.041 29.3517C159.124 29.2804 160.307 27.8509 159.788 27.5577C158.563 26.8651 155.045 26.3898 153.42 28.3381C153.42 28.3381 154.043 26.2926 155.856 25.3758C157.669 24.4591 161.061 24.645 162.213 26.4663C163.364 28.288 162.762 30.8801 162.762 30.8801Z" fill="#263238"/>
<path d="M164.294 32.9006C164.037 33.8205 163.379 34.5363 162.689 34.9109C161.651 35.4742 160.869 34.6097 160.938 33.4933C161 32.4882 161.615 30.9839 162.762 30.8806C163.893 30.7781 164.587 31.8488 164.294 32.9006Z" fill="#CE7A63"/>
<path d="M153.181 30.9496C153.23 30.9492 153.277 30.9232 153.303 30.8775C153.417 30.672 153.564 30.544 153.738 30.4964C154.025 30.4186 154.307 30.5787 154.31 30.5809C154.376 30.6201 154.464 30.599 154.503 30.5312C154.542 30.4643 154.52 30.3781 154.453 30.3385C154.438 30.3297 154.068 30.1154 153.664 30.225C153.414 30.2927 153.209 30.4665 153.057 30.7406C153.019 30.8084 153.043 30.8942 153.111 30.932C153.133 30.9439 153.157 30.9496 153.181 30.9496Z" fill="#263238"/>
<path d="M158.58 30.837C158.6 30.8357 158.621 30.8295 158.64 30.8185C158.707 30.7798 158.731 30.6944 158.692 30.6271C158.683 30.6113 158.468 30.2426 158.063 30.1378C157.812 30.0727 157.548 30.1224 157.28 30.2852C157.213 30.3257 157.192 30.412 157.232 30.4784C157.273 30.5453 157.36 30.566 157.426 30.5255C157.626 30.404 157.816 30.3649 157.99 30.4093C158.28 30.4832 158.446 30.764 158.448 30.767C158.476 30.815 158.528 30.8405 158.58 30.837Z" fill="#263238"/>
<path d="M155.435 31.8577C155.435 31.8577 155.231 32.7687 154.511 33.3795C153.792 33.9902 155.219 34.5227 155.219 34.5227L155.435 31.8577Z" fill="#BA4D3C"/>
<path d="M161.562 31.5652C159.766 31.3845 158.647 32.0243 158.366 32.209C158.282 31.4254 157.771 30.8186 157.149 30.8186C156.492 30.8186 155.959 31.494 155.922 32.3409C155.278 31.9605 154.834 32.1861 154.656 32.3198C154.611 31.483 154.082 30.8186 153.43 30.8186C152.749 30.8186 152.195 31.5424 152.195 32.4328C152.195 33.3223 152.749 34.0465 153.43 34.0465C154.104 34.0465 154.653 33.3355 154.663 32.4574C154.721 32.3985 155.17 31.9926 155.917 32.4666C155.931 33.3403 156.477 34.046 157.149 34.046C157.83 34.046 158.384 33.3223 158.384 32.4323C158.384 32.3989 158.378 32.3677 158.376 32.3347C158.505 32.2411 159.626 31.476 161.551 31.6743C161.581 31.6791 161.609 31.6554 161.611 31.625C161.614 31.5951 161.592 31.5683 161.562 31.5652ZM153.43 33.9361C152.81 33.9361 152.305 33.2616 152.305 32.4323C152.305 31.603 152.81 30.9281 153.43 30.9281C154.05 30.9281 154.555 31.6026 154.555 32.4323C154.555 33.2616 154.05 33.9361 153.43 33.9361ZM157.149 33.9361C156.529 33.9361 156.024 33.2616 156.024 32.4323C156.024 31.603 156.528 30.9281 157.149 30.9281C157.769 30.9281 158.274 31.6026 158.274 32.4323C158.273 33.2616 157.769 33.9361 157.149 33.9361Z" fill="white"/>
<path d="M149.031 46.0518L145.255 55.0833C144.622 56.5783 143.975 58.0645 143.319 59.5199C142.994 60.2454 142.655 60.9622 142.316 61.6525C141.977 62.3428 141.63 63.02 141.3 63.574C141.199 63.7543 141.08 63.9302 141.009 64.0269L141.005 64.0313L140.517 64.2643L139.98 64.5062L138.88 64.9855L134.352 66.9026C131.312 68.1909 128.267 69.5188 125.253 70.9215L126.318 74.2369C129.605 73.6125 132.852 72.8782 136.09 72.0559C137.705 71.6294 139.32 71.2117 140.943 70.7236L142.175 70.3499L142.8 70.152L143.465 69.9233L143.715 69.831L143.83 69.7826L144.283 69.5848C144.367 69.5452 144.424 69.5232 144.521 69.4748C144.617 69.4177 144.71 69.3649 144.798 69.3034C144.89 69.2462 144.983 69.1802 145.035 69.1407C145.304 68.934 145.48 68.7713 145.638 68.613C145.836 68.4108 145.999 68.2261 146.14 68.0546C146.408 67.7336 146.602 67.4566 146.8 67.1796C147.134 66.6959 147.425 66.2298 147.697 65.7769C147.9 65.4472 148.085 65.1262 148.269 64.8052C148.701 64.0313 149.105 63.2662 149.497 62.5055C150.285 60.9797 151.002 59.4496 151.706 57.9194C153.101 54.8503 154.399 51.7899 155.582 48.6284L149.031 46.0518ZM141.212 63.9302L141.185 63.9478L141.168 63.9566L141.212 63.9258C141.225 63.917 141.238 63.9082 141.251 63.9038C141.238 63.9126 141.225 63.9214 141.212 63.9302Z" fill="#5C93ED"/>
<path opacity="0.2" d="M148.693 51.5789C148.327 54.1951 147.703 65.7462 147.703 65.7462C147.703 65.7462 147.703 65.755 147.698 65.7769C147.425 66.2298 147.135 66.6959 146.801 67.1796C146.603 67.4566 146.409 67.7336 146.141 68.0546C146.383 62.5099 148.693 51.5789 148.693 51.5789Z" fill="black"/>
<path d="M126.591 73.1929C126.417 72.0765 126.084 71.2898 126.084 71.2898C126.084 71.2898 125.173 70.3154 124.07 70.2913C122.967 70.2666 122.092 69.954 121.271 69.9923C120.449 70.0309 121.322 70.7156 121.86 70.986C122.399 71.2564 123.006 71.5686 122.737 71.9397C122.468 72.3108 118.875 73.9311 118.562 74.4878C118.248 75.0445 118.911 74.9644 118.911 74.9644C118.911 74.9644 118.108 75.3338 118.121 75.7678C118.134 76.2018 118.709 76.1213 118.709 76.1213C118.709 76.1213 118.178 76.3882 118.409 76.7404C118.531 76.9255 119.444 76.7791 120.306 76.6045C120.128 76.6894 120.002 76.7949 119.982 76.9264C119.901 77.4633 121.089 77.287 122.039 77.166C122.989 77.0451 123.956 76.6147 124.617 75.8935C125.277 75.1724 126.764 74.3093 126.591 73.1929ZM121.817 76.2884C121.856 76.2827 121.885 76.28 121.897 76.2827C121.897 76.2827 121.867 76.2844 121.817 76.2884Z" fill="#CE7A63"/>
<path d="M118.861 76.1504C119.781 75.7344 120.714 75.3493 121.653 75.0015C121.752 75.2464 121.869 75.4781 122.002 75.7072C122.072 75.8184 122.214 75.6742 122.15 75.563C121.745 74.8766 121.499 74.0921 121.416 73.2475C121.402 73.1107 121.222 73.156 121.236 73.2928C121.257 73.5038 121.286 73.7057 121.329 73.9075C121.313 73.8982 121.294 73.8982 121.276 73.9048C120.522 74.1203 119.794 74.429 119.091 74.8304C118.986 74.8937 119.057 75.0859 119.168 75.0226C119.855 74.6303 120.567 74.3252 121.303 74.1163C121.331 74.1067 121.349 74.0878 121.362 74.0631C121.417 74.3208 121.491 74.5719 121.58 74.8137C120.641 75.1615 119.711 75.5436 118.788 75.9627C118.676 76.0123 118.749 76.201 118.861 76.1504Z" fill="#BA4D3C"/>
<path d="M122.386 74.0241C123.099 73.0592 124.175 72.697 125.171 73.0644C125.283 73.1071 125.353 72.9038 125.24 72.8616C124.16 72.4612 123.01 72.8673 122.238 73.9044C122.162 74.014 122.309 74.1275 122.386 74.0241Z" fill="#BA4D3C"/>
<path d="M171.963 42.9551C174.111 45.7472 176.168 48.5978 178.198 51.4757C179.215 52.9126 180.217 54.3623 181.21 55.8222C182.215 57.2864 183.175 58.7339 184.177 60.2944L184.369 60.5943L184.602 60.9768L184.717 61.1685L184.746 61.2165L184.849 61.4077L184.957 61.6351C184.993 61.7142 185.025 61.7938 185.038 61.8321C185.11 62.0295 185.175 62.2485 185.2 62.3672L185.248 62.5809L185.278 62.7493C185.35 63.1886 185.361 63.4968 185.373 63.794C185.381 64.0825 185.381 64.3542 185.375 64.6092C185.35 65.6315 185.271 66.5475 185.185 67.4656C185.002 69.2899 184.75 71.0584 184.478 72.8225C183.929 76.3472 183.238 79.816 182.425 83.2866L178.734 82.8464C178.735 79.3394 178.774 75.82 178.824 72.3454C178.845 70.6094 178.856 68.8744 178.829 67.1894C178.817 66.3535 178.792 65.5124 178.726 64.779C178.71 64.5947 178.689 64.4281 178.668 64.2786C178.647 64.1379 178.615 64.0086 178.607 64.0161C178.606 64.0183 178.605 64.0227 178.605 64.0227L178.614 64.0763C178.615 64.0877 178.643 64.2034 178.68 64.297L178.728 64.4184C178.75 64.4703 178.774 64.5217 178.801 64.5719L178.866 64.6897L178.85 64.6686L178.787 64.5837L178.481 64.17C177.49 62.8381 176.39 61.439 175.343 60.0517C174.279 58.6635 173.215 57.271 172.163 55.8692C170.053 53.0696 167.956 50.2529 165.939 47.3847L171.963 42.9551Z" fill="#5C93ED"/>
<path d="M182.351 83.0639C181.547 80.9766 179.747 81.5096 179.218 82.0394C179.218 82.0394 177.881 83.391 177.61 84.1658C177.339 84.9401 176.942 85.6964 177.08 86.0495C177.145 86.2135 177.377 86.0398 177.609 85.8081C177.47 86.214 177.382 86.5433 177.395 86.7047C177.395 86.7047 177.598 88.8403 178.43 89.5074C179.262 90.1744 179.104 88.2546 179.104 88.2546C179.104 88.2546 179.204 90.1572 181.217 89.5438C181.988 89.309 182.844 87.0274 182.981 85.7549C183.331 84.6728 182.351 83.0639 182.351 83.0639Z" fill="#CE7A63"/>
<path d="M156.937 41.1028C156.937 41.1028 155.222 40.9146 154.307 41.9572C153.941 43.2367 154.749 44.7603 155.622 46.2971L157.519 44.3395C157.647 44.3404 156.665 42.6717 156.937 41.1028Z" fill="#5C93ED"/>
<path opacity="0.2" d="M156.937 41.1028C156.937 41.1028 155.222 40.9146 154.307 41.9572C153.941 43.2367 154.749 44.7603 155.622 46.2971L157.519 44.3395C157.647 44.3404 156.665 42.6717 156.937 41.1028Z" fill="black"/>
<path d="M162.037 40.167C161.224 42.0384 159.492 43.2722 157.52 44.3394L158.591 46.297L165.203 41.3472C165.203 41.3472 163.297 39.6684 162.037 40.167Z" fill="#5C93ED"/>
<path opacity="0.2" d="M162.037 40.167C161.224 42.0384 159.492 43.2722 157.52 44.3394L158.591 46.297L165.203 41.3472C165.203 41.3472 163.297 39.6684 162.037 40.167Z" fill="black"/>
<path opacity="0.2" d="M157.531 47.1634C157.531 47.35 157.38 47.5009 157.194 47.5009C157.007 47.5009 156.856 47.35 156.856 47.1634C156.856 46.9773 157.007 46.8259 157.194 46.8259C157.38 46.8259 157.531 46.9773 157.531 47.1634Z" fill="black"/>
<path opacity="0.2" d="M157.531 49.3714C157.531 49.5575 157.38 49.7089 157.194 49.7089C157.007 49.7089 156.856 49.558 156.856 49.3714C156.856 49.1853 157.007 49.0339 157.194 49.0339C157.38 49.0339 157.531 49.1853 157.531 49.3714Z" fill="black"/>
<path opacity="0.2" d="M157.531 51.5792C157.531 51.7657 157.38 51.9167 157.194 51.9167C157.007 51.9167 156.856 51.7657 156.856 51.5792C156.856 51.3931 157.007 51.2417 157.194 51.2417C157.38 51.2417 157.531 51.3931 157.531 51.5792Z" fill="black"/>
<path d="M115.411 160.006L116.314 164.568H118.727L119.049 160.006H115.411Z" fill="#FFC3BD"/>
<path d="M118.409 163.989C118.409 163.989 118.867 163.424 119.447 163.617C120.028 163.81 120.788 164.76 120.788 164.76C120.788 164.76 123.936 165.769 124.786 165.822C125.636 165.875 126.38 166.353 126.699 168H116.389C116.389 168 115.984 164.282 115.921 163.645C115.858 163.008 116.868 163.804 116.868 163.804L118.409 163.989Z" fill="#263238"/>
<path d="M126.393 167.508C125.773 167.502 125.156 167.496 124.536 167.49C121.828 167.463 119.12 167.432 116.412 167.405C116.309 167.405 116.309 167.244 116.412 167.247C116.594 167.25 116.78 167.25 116.962 167.253C116.962 167.247 116.965 167.238 116.968 167.232C117.357 166.373 116.908 165.495 116.13 165.054C116.039 165.006 116.12 164.866 116.209 164.918C117.051 165.395 117.513 166.333 117.127 167.253C117.509 167.26 117.89 167.263 118.272 167.265C120.977 167.293 123.685 167.323 126.393 167.35C126.496 167.351 126.496 167.512 126.393 167.508Z" fill="#5C93ED"/>
<path d="M120.423 165.408C120.781 164.904 121.387 164.761 121.896 165.141C121.978 165.203 122.058 165.064 121.976 165.003C121.392 164.567 120.691 164.756 120.285 165.327C120.225 165.411 120.364 165.49 120.423 165.408Z" fill="white"/>
<path d="M121.31 165.675C121.669 165.172 122.275 165.029 122.783 165.408C122.865 165.47 122.945 165.331 122.864 165.271C122.28 164.835 121.578 165.024 121.173 165.594C121.113 165.679 121.251 165.759 121.31 165.675Z" fill="white"/>
<path d="M122.229 165.943C122.587 165.439 123.193 165.296 123.701 165.676C123.784 165.738 123.863 165.599 123.782 165.538C123.198 165.102 122.497 165.292 122.091 165.863C122.031 165.947 122.169 166.026 122.229 165.943Z" fill="white"/>
<path d="M93.8164 160.038L94.3171 164.568H96.731L97.4539 160.038H93.8164Z" fill="#FFC3BD"/>
<path d="M96.4133 163.989C96.4133 163.989 96.8709 163.424 97.4513 163.617C98.0317 163.81 98.7915 164.76 98.7915 164.76C98.7915 164.76 101.94 165.769 102.79 165.822C103.64 165.875 104.384 166.353 104.703 168H94.3933C94.3933 168 93.9876 164.282 93.9247 163.645C93.8618 163.008 94.8716 163.804 94.8716 163.804L96.4133 163.989Z" fill="#263238"/>
<path d="M104.397 167.508C103.777 167.502 103.16 167.496 102.54 167.49C99.832 167.463 97.1238 167.432 94.416 167.405C94.3126 167.405 94.3126 167.244 94.416 167.247C94.5982 167.25 94.7839 167.25 94.966 167.253C94.966 167.247 94.9691 167.238 94.9722 167.232C95.3612 166.373 94.9115 165.495 94.1336 165.054C94.0425 165.006 94.1243 164.866 94.2128 164.918C95.0545 165.395 95.5165 166.333 95.1306 167.253C95.5134 167.26 95.8936 167.263 96.2764 167.265C98.9815 167.293 101.689 167.323 104.397 167.35C104.5 167.351 104.5 167.512 104.397 167.508Z" fill="#5C93ED"/>
<path d="M98.4266 165.407C98.7852 164.904 99.3911 164.761 99.8997 165.141C99.982 165.202 100.062 165.064 99.9802 165.003C99.3964 164.567 98.695 164.756 98.2893 165.327C98.229 165.41 98.3672 165.49 98.4266 165.407Z" fill="white"/>
<path d="M99.3141 165.675C99.6727 165.171 100.279 165.028 100.787 165.408C100.87 165.47 100.949 165.331 100.868 165.27C100.284 164.834 99.5825 165.024 99.1768 165.594C99.117 165.678 99.2551 165.758 99.3141 165.675Z" fill="white"/>
<path d="M100.232 165.943C100.59 165.439 101.196 165.296 101.704 165.676C101.787 165.738 101.866 165.599 101.785 165.538C101.201 165.102 100.5 165.291 100.093 165.862C100.034 165.947 100.173 166.026 100.232 165.943Z" fill="white"/>
<path d="M114.608 160.166H119.934C120.395 153.312 121.699 130.6 120.669 119.361C121.41 103.767 119.025 83.0669 119.025 83.0669H102.152C102.152 83.0669 103.389 96.9189 108.938 119.136C108.901 136.739 113.2 154.336 114.608 160.166Z" fill="#5C93ED"/>
<path opacity="0.2" d="M114.608 160.166H119.934C120.395 153.312 121.699 130.6 120.669 119.361C121.41 103.767 119.025 83.0669 119.025 83.0669H102.152C102.152 83.0669 103.389 96.9189 108.938 119.136C108.901 136.739 113.2 154.336 114.608 160.166Z" fill="white"/>
<path opacity="0.2" d="M108.029 115.403C111.079 102.952 108.401 86.8076 108.401 86.8076L105.769 105.249L108.029 115.403Z" fill="black"/>
<path d="M113.974 160.033L114.364 162.056L120.472 162.029L120.476 160.006L113.974 160.033Z" fill="#263238"/>
<path d="M93.0569 160.363H98.3831C100.281 153.312 104.093 130.641 104.703 119.402C107.72 103.808 109.164 83.0669 109.164 83.0669H92.2909C92.2909 83.0669 90.7214 97.0777 93.0288 119.295C92.5804 138.665 92.9359 154.336 93.0569 160.363Z" fill="#5C93ED"/>
<path opacity="0.2" d="M93.0569 160.363H98.3831C100.281 153.312 104.093 130.641 104.703 119.402C107.72 103.808 109.164 83.0669 109.164 83.0669H92.2909C92.2909 83.0669 90.7214 97.0777 93.0288 119.295C92.5804 138.665 92.9359 154.336 93.0569 160.363Z" fill="white"/>
<path d="M92.5911 160.027L92.5801 162.033L98.7361 162.033L99.0586 160.028L92.5911 160.027Z" fill="#263238"/>
<path d="M121.231 85.6121C109.527 90.1059 90.4622 86.8477 90.4622 86.8477C90.5898 83.6422 90.7086 78.6824 90.7746 73.2784C90.7922 71.8274 90.8054 70.3456 90.8142 68.855C90.8318 65.9969 90.8318 63.1124 90.8098 60.3906C90.8054 60.1708 90.8054 59.9509 90.801 59.7355C90.7878 58.3988 90.7658 57.106 90.7394 55.8837C90.735 55.7342 90.735 55.5847 90.7306 55.4352C90.6778 53.03 90.5898 50.9018 90.4798 49.2001C90.2642 45.9947 92.011 43.0091 95.1834 42.477C96.147 42.3144 97.1898 42.1693 98.2722 42.0549C98.5274 42.0241 98.7914 42.0022 99.0554 41.9758C102.061 41.6812 105.361 41.5493 108.37 41.6372C108.52 41.6372 108.674 41.6416 108.823 41.646C108.898 41.6504 108.986 41.6504 109.061 41.6548C109.189 41.6592 109.325 41.6636 109.453 41.6724C110.79 41.7252 112.066 41.8263 113.206 41.9758C115.793 42.31 118.09 44.3502 118.134 46.962C118.173 49.354 118.407 54.4062 118.745 60.1048C118.877 62.2594 119.023 64.5151 119.181 66.7488C119.793 75.5473 120.571 84.0732 121.231 85.6121Z" fill="#263238"/>
<path opacity="0.2" d="M97.3175 51.5789C97.3175 51.5789 97.0645 63.9983 97.8912 65.5065C98.718 67.0147 114.702 71.574 114.702 71.574C106.701 70.4871 98.9617 69.2691 94.8662 66.221L97.3175 51.5789Z" fill="black"/>
<path opacity="0.2" d="M115.253 75.2217C105.938 77.4246 95.0434 74.5973 90.7754 73.2782C90.793 71.8271 90.8062 70.3453 90.815 68.8547C97.3754 73.7047 115.253 75.2217 115.253 75.2217Z" fill="black"/>
<path d="M107.335 49.2371L105.766 66.6243L108.904 72.9403L111.355 66.0378L108.818 49.2371H107.335Z" fill="#5C93ED"/>
<path d="M107.709 45.4968L106.015 48.0075L108.006 50.3094L109.998 47.3462L107.709 45.4968Z" fill="#5C93ED"/>
<path d="M111.153 24.6578C109.324 24.0083 107.291 24.0901 105.569 24.9862C104.445 25.5715 103.468 26.4676 103.493 27.8113C103.549 30.9473 104.424 36.1934 104.424 36.1934L115.017 31.4077C115.017 31.4077 115.788 28.7809 114.548 27.1052C113.626 25.8612 112.505 25.1379 111.153 24.6578Z" fill="#263238"/>
<path d="M107.197 24.3957C107.197 24.3957 105.765 23.5985 104.327 25.0825C103.128 26.3194 103.652 30.3463 103.652 30.3463L107.197 24.3957Z" fill="#263238"/>
<path d="M106.134 24.7273C106.134 24.7273 106.547 22.3345 110.917 23.049C115.288 23.7635 118.753 27.3708 117.158 29.2598C115.622 31.0784 110.917 28.0506 110.917 28.0506L106.134 24.7273Z" fill="#263238"/>
<path d="M109.052 40.0922L109.053 40.0966C109.045 40.1103 109.041 40.1186 109.034 40.1322L108.367 41.8673C108.289 42.2279 108.245 42.5902 108.234 42.9459C108.224 43.2462 108.24 43.5404 108.272 43.8249C108.606 44.4057 108.661 45.647 107.264 45.5015C105.5 45.3208 102.51 42.5559 102.479 41.7666C103.555 39.4476 104.579 36.5478 104.697 34.2332L106.472 36.6252L109.052 40.0922Z" fill="#FFC3BD"/>
<path d="M107.709 45.4968C108.126 44.576 108.122 43.4662 108.269 42.472C108.269 42.472 108.346 41.7324 108.56 41.3648C108.56 41.3648 109.768 41.0839 110.475 41.7219C110.757 43.6491 110.532 45.5601 109.964 47.46L107.709 45.4968Z" fill="#263238"/>
<path d="M101.02 41.808C101.02 41.808 101.997 39.93 103.337 39.7009C103.499 41.9685 104.421 43.7656 107.709 45.4962L105.765 48.3759C103.062 46.1681 101.54 43.9797 101.02 41.808Z" fill="#263238"/>
<g opacity="0.2">
<path d="M109.033 40.1323L108.367 41.8674C107.319 41.2448 106.282 40.0352 106.146 38.8339C106.053 37.9672 106.521 37.2171 106.867 37.2109L109.033 40.1323Z" fill="black"/>
</g>
<path d="M113.901 36.875C113.755 37.2523 113.597 37.6221 113.431 37.9862C111.957 41.1973 107.811 41.0531 105.519 38.3212C105.516 38.3159 105.517 38.3115 105.513 38.3107C105.31 38.0679 105.12 37.8059 104.949 37.5205C103.555 35.2068 104.142 33.6085 104.793 29.9053C105.442 26.2065 109.683 24.3109 112.859 26.5855C115.79 28.6846 115.372 33.105 113.901 36.875Z" fill="#FFC3BD"/>
<path d="M106.928 31.3317C106.928 31.3317 106.909 34.422 108.119 34.8617C109.329 35.3014 110.229 34.2756 111.557 35.5578C111.557 35.5578 112.429 35.0991 113.233 35.7042C114.037 36.3092 113.901 36.6684 113.901 36.6684C113.901 36.6684 113.595 41.2783 109.372 40.7445C105.149 40.2107 104.636 36.0704 104.929 33.8719L105.762 31.1414L106.928 31.3317Z" fill="#263238"/>
<path d="M109.675 35.6426C109.675 35.6426 110.78 36.0414 112.294 36.3949C112.294 36.3949 111.76 37.6331 110.421 37.0589C109.568 36.6926 109.675 35.6426 109.675 35.6426Z" fill="white"/>
<path d="M113.182 26.2413C111.532 24.8549 107.984 24.2239 106.352 25.8253C104.721 27.4267 104.713 30.2496 104.713 30.2496C104.713 30.2496 104.669 30.7601 104.985 31.0965C105.015 31.1259 105.051 31.1787 105.091 31.2389L106.927 31.5384C107.073 30.7825 107.378 29.4036 107.894 29.3315C108.86 29.1961 108.202 28.132 108.41 27.5344C109.084 25.5931 114.369 26.9206 114.977 29.8908C114.977 29.8908 114.831 27.6276 113.182 26.2413Z" fill="#263238"/>
<path d="M102.642 31.9636C102.684 32.9758 103.189 33.8745 103.811 34.4286C104.746 35.2622 105.763 34.5591 105.963 33.3895C106.144 32.3369 105.874 30.6343 104.714 30.2492C103.571 29.8693 102.595 30.8063 102.642 31.9636Z" fill="#FFC3BD"/>
<path d="M110.212 32.1814C110.144 32.4652 110.24 32.7314 110.425 32.7759C110.61 32.8203 110.816 32.6263 110.884 32.3425C110.952 32.0587 110.857 31.7925 110.671 31.748C110.486 31.7036 110.28 31.8976 110.212 32.1814Z" fill="#263238"/>
<path d="M113.213 32.8894C113.144 33.1732 113.239 33.4394 113.425 33.4838C113.611 33.5282 113.816 33.3346 113.884 33.0508C113.952 32.767 113.857 32.5008 113.671 32.4564C113.486 32.4115 113.28 32.6056 113.213 32.8894Z" fill="#263238"/>
<path d="M114.503 32.0289C114.453 32.0166 114.41 31.9783 114.395 31.9247C114.327 31.6849 114.207 31.5172 114.038 31.4257C113.761 31.2757 113.43 31.3725 113.427 31.3738C113.35 31.3984 113.264 31.3553 113.24 31.2757C113.216 31.1969 113.26 31.1133 113.338 31.0887C113.356 31.0829 113.79 30.9518 114.181 31.163C114.423 31.2941 114.591 31.5229 114.683 31.8428C114.705 31.922 114.659 32.0047 114.58 32.0272C114.554 32.0347 114.528 32.0347 114.503 32.0289Z" fill="#263238"/>
<path d="M109.598 30.8608C109.575 30.8551 109.553 30.8441 109.533 30.8278C109.465 30.7711 109.455 30.6694 109.512 30.6008C109.525 30.5849 109.84 30.2087 110.32 30.1683C110.617 30.1436 110.906 30.2505 111.179 30.4877C111.247 30.5467 111.254 30.6487 111.195 30.7161C111.136 30.7838 111.034 30.7904 110.967 30.7319C110.763 30.5555 110.556 30.4741 110.349 30.4903C110.007 30.5176 109.764 30.8036 109.761 30.8067C109.72 30.8564 109.656 30.8749 109.598 30.8608Z" fill="#263238"/>
<path d="M112.185 32.2559C112.185 32.2559 112.335 33.5737 112.735 34.4865C113.138 35.4028 111.558 35.0603 111.558 35.0603L112.185 32.2559Z" fill="#ED847E"/>
<path d="M124.043 74.408C123.453 73.3888 121.299 72.4561 121.299 72.4561C121.018 72.3576 120.309 72.3629 119.534 72.4073L119.619 72.3994C119.619 72.3994 121.029 71.5917 120.674 71.3956C120.319 71.1995 119.461 71.5147 118.601 71.6941C117.741 71.8735 116.775 72.6641 116.775 72.6641C116.146 73.0449 115.782 74.2286 116.227 75.7922C116.227 75.7922 118.024 77.5013 119.302 77.7366C120.564 78.0461 123.142 78.2027 123.716 77.4147C124.92 75.7623 122.697 74.6001 122.697 74.6001C122.697 74.6001 124.632 75.4277 124.043 74.408Z" fill="#FFC3BD"/>
<path d="M116.079 71.9194L115.578 75.3623C111.921 75.1645 108.313 74.8347 104.683 74.351C102.866 74.1136 101.053 73.8234 99.2184 73.4804C98.2988 73.3089 97.3792 73.111 96.4376 72.878C95.496 72.6405 94.5544 72.3899 93.4896 71.9766C93.2212 71.8711 92.9396 71.7523 92.6316 71.6028C92.3236 71.4446 91.998 71.2687 91.5712 70.9433C91.3556 70.7762 91.1136 70.5739 90.8232 70.231C90.6824 70.0639 90.5196 69.8352 90.37 69.5582C90.2908 69.3999 90.2204 69.2592 90.15 69.0657C90.1192 68.969 90.0884 68.8723 90.0576 68.7755L90.0356 68.6788C89.9036 68.1468 89.8728 67.8346 89.8332 67.5224C89.71 66.366 89.688 65.447 89.666 64.4884C89.6484 62.6021 89.6792 60.7773 89.7496 58.9481C89.8728 55.2942 90.1368 51.6974 90.5064 48.0698L97.52 48.681C97.4188 50.4486 97.256 52.2382 97.1416 54.0146L96.728 59.3395C96.596 61.1071 96.4508 62.8747 96.376 64.5895C96.3452 65.1919 96.3188 65.8119 96.3144 66.3484C96.8512 66.599 97.498 66.8452 98.1448 67.0695C98.9368 67.3421 99.7596 67.5971 100.591 67.8522C102.254 68.3578 103.966 68.8151 105.682 69.2724C109.118 70.1694 112.612 71.0488 116.079 71.9194Z" fill="#263238"/>
<path d="M146.98 48.9802C144.618 51.2095 142.162 53.3025 139.624 55.3207C138.361 56.3408 137.058 57.3126 135.716 58.2931C135.034 58.768 134.348 59.2429 133.569 59.7222C133.371 59.8409 133.169 59.9596 132.944 60.0827C132.716 60.2102 132.478 60.3378 132.126 60.4829C131.937 60.5532 131.743 60.6368 131.33 60.7291L131.149 60.7599C131.088 60.7687 130.991 60.7819 130.912 60.7863C130.736 60.7995 130.511 60.8127 130.155 60.7687L130.027 60.7467L129.847 60.7115C129.732 60.6851 129.614 60.65 129.504 60.6104L129.442 60.5928L129.319 60.5488C129.169 60.4917 128.971 60.4213 128.857 60.3685L128.478 60.2015C127.541 59.7661 126.811 59.3528 126.063 58.9263C125.324 58.4954 124.611 58.0733 123.916 57.6248C122.525 56.7366 121.161 55.844 119.832 54.9118C119.762 54.8634 119.692 54.8151 119.621 54.7667C119.208 54.4765 118.798 54.1863 118.394 53.8961C116.233 52.3571 114.134 50.7698 112.075 49.0813L116.378 43.5146C118.944 45.3438 121.482 47.2741 123.995 49.1737C125.258 50.1102 126.503 51.0732 127.757 51.9834C128.386 52.4363 129.002 52.898 129.614 53.3289C130.054 53.6367 130.511 53.9489 130.916 54.2039C131.475 53.9445 132.069 53.6367 132.663 53.3289C134.04 52.6297 135.422 51.8559 136.821 51.104C139.61 49.587 142.431 48.048 145.3 46.6014L146.98 48.9802Z" fill="#263238"/>
<path opacity="0.2" d="M119.621 54.7666C119.208 54.4764 118.798 54.1862 118.394 53.896L118.02 47.8853L119.621 54.7666Z" fill="black"/>
<path d="M146.695 49.0341C146.695 49.0341 147.583 48.9738 147.96 48.3578C148.692 47.1631 149.845 46.9441 150.307 46.6904C150.769 46.4372 150.239 45.6505 149.067 45.902C149.067 45.902 149.57 44.2707 149.974 43.8759C150.378 43.481 152.51 42.6364 152.47 42.3299C152.429 42.0234 150.78 42.519 149.817 42.9547C148.855 43.3905 146.902 45.8066 145.142 46.672C145.143 46.6724 144.45 48.5011 146.695 49.0341Z" fill="#FFC3BD"/>
<path d="M62.957 47.1311C63.3411 50.0261 63.6258 52.9374 63.8797 55.8465C64.0174 57.2997 64.1164 58.7573 64.2409 60.2071L64.4037 62.3766L64.5625 64.3148C64.5515 64.3675 64.6198 64.689 64.702 64.9748C64.7808 65.2681 64.8811 65.5904 64.985 65.9127C65.1922 66.5612 65.4324 67.2256 65.6656 67.8975C66.1338 69.2452 66.6517 70.5968 67.1467 71.963C68.1569 74.6861 69.183 77.4334 70.136 80.2026L67.0134 81.7504C65.3752 79.27 63.8625 76.7417 62.4088 74.1554C61.674 72.8653 60.9823 71.551 60.2897 70.2121C59.9452 69.5394 59.6187 68.8547 59.2909 68.1411C59.1277 67.7819 58.9666 67.4209 58.8069 67.0225C58.6468 66.6188 58.4892 66.2416 58.3225 65.5798L58.2644 65.3155L58.2345 65.1546L58.1799 64.8547L58.0787 64.2787L57.8917 63.1689L57.5406 60.9787C57.3294 59.5211 57.105 58.0701 56.9211 56.6142C56.5334 53.7051 56.1907 50.7969 55.957 47.8711L62.957 47.1311Z" fill="#5C93ED"/>
<path d="M60.3459 87.3378L51.7118 77.1511C51.4957 76.8965 51.5274 76.5149 51.7822 76.299L66.1372 64.1477C66.3919 63.9318 66.7739 63.9635 66.9899 64.2181L75.6245 74.4047C75.8405 74.6593 75.8088 75.041 75.5536 75.2569L61.1986 87.4081C60.9434 87.624 60.5619 87.5924 60.3459 87.3378Z" fill="#263238"/>
<path opacity="0.2" d="M60.3459 87.3378L51.7118 77.1511C51.4957 76.8965 51.5274 76.5149 51.7822 76.299L66.1372 64.1477C66.3919 63.9318 66.7739 63.9635 66.9899 64.2181L75.6245 74.4047C75.8405 74.6593 75.8088 75.041 75.5536 75.2569L61.1986 87.4081C60.9434 87.624 60.5619 87.5924 60.3459 87.3378Z" fill="white"/>
<path d="M65.5622 75.7779C65.5622 76.8235 64.7139 77.6713 63.6675 77.6713C62.6212 77.6713 61.7725 76.8235 61.7725 75.7779C61.7725 74.7323 62.6208 73.8845 63.6675 73.8845C64.7139 73.8841 65.5622 74.7323 65.5622 75.7779Z" fill="#263238"/>
<path d="M54.1195 24.7998C54.1195 24.7998 50.79 24.7602 49.9808 28.5162C49.1374 32.4313 48.8927 30.8884 47.1019 32.7527C45.3111 34.6171 47.2682 37.1441 44.1816 38.5489C44.1816 38.5489 46.7534 41.0491 51.7624 40.0663C56.7714 39.084 56.0709 42.6487 62.534 41.7069C62.534 41.7069 61.5229 39.8373 62.93 38.1558C64.3372 36.4744 63.2908 35.248 63.3489 33.4624C63.407 31.6768 63.8664 27.7946 61.4116 26.1246C58.9568 24.4542 56.7938 25.1841 56.7938 25.1841C56.7938 25.1841 55.3629 24.6059 54.1195 24.7998Z" fill="#263238"/>
<path d="M62.8184 159.14L64.0803 164.329H66.8144L66.9385 159.14H62.8184Z" fill="#FF8B7B"/>
<path d="M74.7548 168C74.6065 166.309 73.8634 165.804 72.946 165.747C71.9912 165.686 68.5834 164.546 68.5834 164.546C68.5834 164.546 67.8715 163.472 67.2445 163.254C66.617 163.036 66.0103 163.675 66.0103 163.675L64.2938 163.466C64.2938 163.466 63.7795 162.694 63.4253 163.37C62.8766 164.418 62.943 167.319 62.9941 168H74.7548V168Z" fill="#5C93ED"/>
<path d="M74.5314 167.557C73.8194 167.554 73.111 167.551 72.3991 167.548C69.2896 167.533 66.1806 167.514 63.0711 167.499C62.9523 167.5 62.9765 167.318 63.0949 167.321C63.3039 167.324 63.5173 167.322 63.7267 167.324C63.7276 167.317 63.7324 167.307 63.7368 167.3C64.3137 166.326 63.9291 165.337 63.101 164.843C63.0034 164.789 63.1191 164.63 63.2124 164.688C64.1082 165.222 64.498 166.281 63.915 167.323C64.3546 167.328 64.7906 167.329 65.2306 167.33C68.3366 167.345 71.4456 167.364 74.5551 167.379C74.6739 167.378 74.6497 167.56 74.5314 167.557Z" fill="black"/>
<path d="M68.0675 165.277C68.5524 164.708 69.2612 164.546 69.7778 164.976C69.8614 165.045 69.9731 164.889 69.8904 164.82C69.2973 164.327 68.4736 164.541 67.9241 165.186C67.8435 165.281 67.9879 165.371 68.0675 165.277Z" fill="white"/>
<path d="M69.0314 165.58C69.5162 165.011 70.2251 164.849 70.7416 165.279C70.8252 165.348 70.937 165.192 70.8543 165.123C70.2612 164.63 69.4375 164.844 68.8879 165.489C68.8074 165.584 68.9517 165.674 69.0314 165.58Z" fill="white"/>
<path d="M70.0287 165.883C70.5135 165.314 71.2219 165.152 71.7385 165.581C71.8221 165.651 71.9339 165.494 71.8511 165.426C71.2585 164.933 70.4343 165.147 69.8848 165.792C69.8047 165.887 69.949 165.977 70.0287 165.883Z" fill="white"/>
<path d="M51.5063 91.1667C52.0625 96.3957 53.1563 103.16 55.1359 111.866C55.711 114.395 56.3613 117.09 57.097 119.959C55.084 136.569 62.9609 160.565 62.9609 160.565L67.1796 160.471C67.1796 160.471 67.7089 133.655 67.2126 119.615C66.3995 96.6129 63.5958 74.701 63.5958 74.701L52.1047 74.6558C52.1047 74.6558 50.1203 78.1132 51.5063 91.1667Z" fill="#263238"/>
<path opacity="0.2" d="M51.5059 91.1667C52.062 96.3957 53.1559 103.16 55.1354 111.866C57.5537 102.666 53.1792 83.0312 53.1792 83.0312L51.5059 91.1667Z" fill="black"/>
<path d="M67.6637 161.463L67.797 159.657H62.1689L62.4871 161.463H67.6637Z" fill="#263238"/>
<path d="M45.3252 159.14L46.5871 164.329H49.3213L49.4454 159.14H45.3252Z" fill="#FF8B7B"/>
<path d="M50.274 161.463L50.4073 159.657H44.7793L45.0974 161.463H50.274Z" fill="#263238"/>
<path d="M57.2616 168C57.1133 166.309 56.3701 165.804 55.4527 165.747C54.4979 165.686 51.0901 164.546 51.0901 164.546C51.0901 164.546 50.3782 163.472 49.7512 163.254C49.1238 163.036 48.517 163.675 48.517 163.675L46.8006 163.466C46.8006 163.466 46.2862 162.694 45.932 163.37C45.3838 164.418 45.4498 167.319 45.5008 168H57.2616V168Z" fill="#5C93ED"/>
<path d="M57.0382 167.557C56.3263 167.554 55.6179 167.551 54.906 167.548C51.7965 167.533 48.6874 167.514 45.578 167.499C45.4592 167.5 45.4834 167.318 45.6017 167.321C45.8107 167.324 46.0241 167.322 46.2331 167.324C46.234 167.317 46.2388 167.307 46.2432 167.3C46.8201 166.326 46.4355 165.337 45.6074 164.843C45.5098 164.789 45.6255 164.63 45.7188 164.688C46.6146 165.222 47.0044 166.281 46.4214 167.323C46.861 167.328 47.2975 167.329 47.737 167.33C50.843 167.345 53.952 167.364 57.0615 167.379C57.1808 167.378 57.1566 167.56 57.0382 167.557Z" fill="black"/>
<path d="M50.5744 165.277C51.0593 164.708 51.7681 164.546 52.2847 164.976C52.3683 165.045 52.48 164.889 52.3973 164.82C51.8046 164.327 50.9805 164.541 50.4309 165.186C50.3504 165.281 50.4943 165.371 50.5744 165.277Z" fill="white"/>
<path d="M51.5382 165.58C52.0231 165.011 52.732 164.849 53.2485 165.279C53.3321 165.348 53.4439 165.192 53.3612 165.123C52.7685 164.63 51.9444 164.844 51.3948 165.489C51.3143 165.584 51.4582 165.674 51.5382 165.58Z" fill="white"/>
<path d="M52.5355 165.883C53.0204 165.314 53.7288 165.152 54.2453 165.581C54.3289 165.651 54.4407 165.494 54.358 165.426C53.7649 164.933 52.9412 165.147 52.3916 165.792C52.3115 165.887 52.4559 165.977 52.5355 165.883Z" fill="white"/>
<path d="M55.4632 75.5852C55.4632 75.5852 53.3142 107.338 52.6124 119.959C51.8103 134.376 50.0045 158.952 49.7603 160.56H45.3999C45.8998 161.046 39.8031 138.988 42.261 121.028C39.9576 103.85 37.1543 91.273 40.7681 75.0994L55.4632 75.5852Z" fill="#263238"/>
<path d="M39.457 76.3521C48.6209 79.3764 64.0209 78.3822 64.0209 76.2861C64.0209 70.3787 61.9278 63.7369 62.4888 59.8882C66.8211 56.8591 63.4362 54.1223 63.8132 49.6329C64.1054 46.2081 61.6779 43.1367 58.2886 42.5528C57.5063 42.4209 56.6954 42.289 55.8985 42.1857C55.7335 42.1619 55.5734 42.143 55.4128 42.1245C53.2823 41.8607 51.2552 41.8088 49.0068 41.8229C48.2245 41.8229 47.4136 41.837 46.5648 41.8466C45.7209 41.8607 44.8963 41.8985 44.1136 41.9548C41.2003 42.1575 39.0932 44.8424 39.6071 47.7255C40.3564 51.9792 40.781 55.9977 40.9412 59.6485C40.979 60.473 41.0072 61.2689 41.0164 62.0511C41.0635 65.1084 40.9222 67.8688 40.6442 70.2476C40.6393 70.2995 40.6301 70.3514 40.6252 70.3985C40.4932 71.4819 40.3331 72.4805 40.1443 73.3946C40.088 73.6822 40.0264 73.9552 39.9604 74.2235C39.8297 74.7929 39.608 75.7866 39.457 76.3521Z" fill="#5C93ED"/>
<path opacity="0.2" d="M64.0198 76.2858C64.0198 78.3832 48.6198 79.3769 39.459 76.3517C39.6086 75.7889 39.8286 74.7908 39.9606 74.2235C40.0266 73.9553 40.0882 73.6827 40.1454 73.3925C40.3346 72.4779 40.493 71.4798 40.625 70.3981C40.6294 70.3497 40.6426 70.297 40.647 70.2486C40.9242 67.8698 41.065 65.1085 41.0166 62.0525C41.0078 61.2698 40.9814 60.474 40.9418 59.6473C40.889 58.4381 40.8098 57.1938 40.691 55.9098C40.6206 55.0832 40.537 54.239 40.4358 53.3859C40.2246 51.5568 39.9518 49.666 39.6086 47.7269C39.0938 44.8425 41.2014 42.1559 44.1142 41.9536C44.8974 41.8964 45.7202 41.8613 46.565 41.8481C47.4142 41.8349 48.2238 41.8217 49.007 41.8217C51.2554 41.8085 53.2838 41.8613 55.4134 42.1251C55.5762 42.1427 55.7346 42.1603 55.8974 42.1866C56.6938 42.2878 57.5078 42.4197 58.291 42.5516C61.679 43.1364 64.1078 46.2099 63.813 49.6308C63.439 54.1202 66.8226 56.8596 62.4886 59.8892C61.9298 63.7366 64.0198 70.3805 64.0198 76.2858Z" fill="white"/>
<path opacity="0.2" d="M45.2623 49.0283L40.6907 55.9097C40.6203 55.0831 40.5367 54.2388 40.4355 53.3858V53.3682L45.2623 49.0283Z" fill="black"/>
<path d="M55.8994 49.678C55.8994 49.8403 56.031 49.9719 56.1933 49.9719C56.3557 49.9719 56.4873 49.8403 56.4873 49.678C56.4873 49.5156 56.3557 49.384 56.1933 49.384C56.031 49.384 55.8994 49.5156 55.8994 49.678Z" fill="#5C93ED"/>
<path d="M56.372 52.612C56.5344 52.612 56.666 52.4804 56.666 52.3181C56.666 52.1558 56.5344 52.0242 56.372 52.0242C56.2097 52.0242 56.0781 52.1558 56.0781 52.3181C56.0781 52.4804 56.2097 52.612 56.372 52.612Z" fill="#5C93ED"/>
<path d="M56.372 55.2985C56.5344 55.2985 56.666 55.1669 56.666 55.0046C56.666 54.8423 56.5344 54.7107 56.372 54.7107C56.2097 54.7107 56.0781 54.8423 56.0781 55.0046C56.0781 55.1669 56.2097 55.2985 56.372 55.2985Z" fill="#5C93ED"/>
<path d="M49.0078 41.8227C51.1779 45.6331 56.2828 47.9152 56.2828 47.9152C56.9718 46.2074 56.7558 43.4698 55.8995 42.1854C55.7345 42.1617 55.5744 42.1428 55.4138 42.1243C53.2833 41.8605 51.2567 41.8086 49.0078 41.8227Z" fill="#FF8B7B"/>
<path d="M55.9575 43.3193C55.976 43.3765 56.0002 43.4341 56.0376 43.493C56.7759 44.6565 55.9734 45.7192 54.7031 45.6278C54.5794 45.619 54.4584 45.6018 54.3396 45.5781C53.8834 45.4866 53.4605 45.2523 53.1446 44.9106C53.1433 44.9093 53.142 44.9075 53.1406 44.9062C51.6187 43.2556 49.9814 42.0046 49.9814 42.0046C51.8902 40.9823 52.5876 37.3512 52.7649 35.0828L55.7283 38.8532L56.2831 39.6764C56.0152 40.1508 55.7754 40.6437 55.6407 41.1322C55.4216 41.8903 55.4436 42.6431 55.9575 43.3193Z" fill="#FF8B7B"/>
<path d="M50.2749 41.8205C50.2749 41.8205 48.5 41.3592 47.1025 41.8205L49.9815 46.7641C51.4977 45.66 53.2344 47.093 56.2831 47.9152C56.2831 47.9152 52.6509 46.09 50.2749 41.8205Z" fill="#5C93ED"/>
<path d="M50.2749 41.8205C50.2749 41.8205 48.5 41.3592 47.1025 41.8205L49.9815 46.7641C51.4977 45.66 53.2344 47.093 56.2831 47.9152C56.2831 47.9152 52.6509 46.09 50.2749 41.8205Z" fill="#5C93ED"/>
<path d="M55.5107 42.0463C55.5107 42.0463 57.2694 41.724 58.2893 42.5524C58.2893 42.5524 58.8772 44.5192 59.1126 46.443C59.1126 46.443 57.4203 45.5987 56.2825 47.9151C56.2825 47.9151 56.8585 44.2255 55.5107 42.0463Z" fill="#5C93ED"/>
<path d="M55.5107 42.0463C55.5107 42.0463 57.2694 41.724 58.2893 42.5524C58.2893 42.5524 58.8772 44.5192 59.1126 46.443C59.1126 46.443 57.4203 45.5987 56.2825 47.9151C56.2825 47.9151 56.8585 44.2255 55.5107 42.0463Z" fill="#5C93ED"/>
<g opacity="0.2">
<path d="M55.6408 41.1328C55.7754 40.6438 56.0152 40.1513 56.2832 39.6769L55.7283 38.8538L53.8623 38.8964C53.8623 38.8964 54.352 40.4011 55.6408 41.1328Z" fill="black"/>
</g>
<path d="M52.2221 31.0406C51.9251 34.768 51.7214 36.3395 53.2865 38.4936C55.6409 41.7338 60.2002 41.2655 61.584 37.6977C62.8296 34.4861 63.106 28.93 59.7624 26.961C56.4686 25.021 52.5191 27.3132 52.2221 31.0406Z" fill="#FF8B7B"/>
<path d="M53.0421 33.4804C51.1721 32.9835 51.9069 31.0532 51.9069 31.0532L54.6613 31.4797C54.6613 31.4797 54.9121 33.9729 53.0421 33.4804Z" fill="#263238"/>
<path d="M60.5918 27.307C60.5918 27.307 60.5439 29.3684 58.0139 29.4783C55.4839 29.5882 55.7056 33.3253 52.8725 32.7347C50.0389 32.1442 51.4416 28.6266 52.6516 27.6922C53.8616 26.7578 56.8452 23.9543 60.5918 27.307Z" fill="#263238"/>
<path d="M60.03 36.7853C60.03 36.7853 58.2132 35.9644 57.8137 35.1733C57.8137 35.1733 57.547 36.5874 58.4988 37.1089C59.4505 37.6304 60.03 36.7853 60.03 36.7853Z" fill="white"/>
<path d="M58.3607 32.703C58.3185 33.004 58.4439 33.2706 58.6406 33.2983C58.8372 33.3261 59.0313 33.1043 59.0735 32.8029C59.1158 32.502 58.9908 32.2353 58.7937 32.2076C58.597 32.1803 58.403 32.4021 58.3607 32.703Z" fill="#263238"/>
<path d="M61.4203 33.2003C61.3781 33.5017 61.5035 33.7679 61.7001 33.7957C61.8968 33.8234 62.0909 33.6016 62.1331 33.3002C62.1753 32.9993 62.0504 32.7326 61.8533 32.7049C61.6561 32.6776 61.4625 32.8994 61.4203 33.2003Z" fill="#263238"/>
<path d="M61.7637 32.7097L62.5161 32.6028C62.5161 32.6028 62.0655 33.1158 61.7637 32.7097Z" fill="#263238"/>
<path d="M60.2962 33.1379C60.2962 33.1379 60.7032 34.0081 61.1691 34.7798C61.3205 35.0304 61.2074 35.3602 60.928 35.4512C60.4484 35.6073 59.9473 35.6381 59.9473 35.6381L60.2962 33.1379Z" fill="#FF5652"/>
<path d="M50.5473 33.4154C50.7787 34.1695 51.2957 34.695 51.8206 34.9245C52.6104 35.2692 53.1455 34.4259 53.0434 33.4787C52.9514 32.6266 52.4296 31.42 51.5804 31.4834C50.7435 31.5453 50.2828 32.5536 50.5473 33.4154Z" fill="#FF8B7B"/>
<path d="M57.536 31.4993C57.5831 31.4993 57.6306 31.48 57.6653 31.4434C58.2123 30.8644 58.8599 30.9735 58.8674 30.9744C58.9633 30.9911 59.0575 30.9278 59.0751 30.8305C59.0927 30.7333 59.028 30.6409 58.9312 30.6228C58.8973 30.6167 58.0842 30.479 57.4057 31.1984C57.3384 31.2701 57.3419 31.3832 57.4132 31.4509C57.4475 31.4835 57.4915 31.4993 57.536 31.4993Z" fill="#263238"/>
<path d="M62.8238 32.0402C62.8678 32.0437 62.9135 32.0318 62.9509 32.0015C63.0275 31.9399 63.0394 31.8272 62.9782 31.7502C62.3587 30.9807 61.5377 31.0533 61.5025 31.0568C61.4044 31.0669 61.3326 31.154 61.3427 31.2526C61.3524 31.3503 61.44 31.422 61.5377 31.4127C61.5698 31.4097 62.2078 31.3626 62.6997 31.9746C62.7318 32.0138 62.7767 32.0367 62.8238 32.0402Z" fill="#263238"/>
<path d="M58.7041 32.2124L59.4565 32.1055C59.4565 32.1055 59.0059 32.6185 58.7041 32.2124Z" fill="#263238"/>
<path d="M35.8288 65.1524C37.3644 67.6148 39.076 70.0903 40.7524 72.5307L38.1608 74.8611C35.8376 72.7857 33.6948 70.6136 31.6444 68.2304C30.6148 67.0344 29.6336 65.79 28.6964 64.3478C28.4632 63.9828 28.2344 63.6047 28.0144 63.1825C27.7944 62.7604 27.5788 62.3075 27.3852 61.7359C27.2884 61.4545 27.2004 61.1291 27.1344 60.7334C27.0728 60.342 27.0156 59.8672 27.1212 59.1988C27.2312 58.5876 27.3852 58.2227 27.5216 57.8929C27.658 57.5675 27.7944 57.3257 27.9264 57.0794C28.4544 56.1517 28.9692 55.4833 29.484 54.8106C30.0032 54.1466 30.5224 53.5266 31.046 52.9242C32.1108 51.737 33.1756 50.5982 34.28 49.5077C36.4756 47.318 38.7152 45.2602 41.122 43.2903L45.6936 48.6415L39.1112 54.5599C38.0332 55.5581 36.9508 56.5342 35.9432 57.5411C35.4328 58.0336 34.9356 58.5305 34.478 59.0229C34.0248 59.5022 33.598 60.0123 33.334 60.3684C33.3296 60.3772 33.3208 60.3816 33.3164 60.3904C33.3472 60.474 33.378 60.5663 33.4132 60.6586C33.5144 60.9181 33.6376 61.2039 33.7696 61.4985C34.324 62.6769 35.072 63.9169 35.8288 65.1524Z" fill="#5C93ED"/>
<path opacity="0.2" d="M35.8288 65.1524C37.3644 67.6148 39.076 70.0903 40.7524 72.5307L38.1608 74.8611C35.8376 72.7857 33.6948 70.6136 31.6444 68.2304C30.6148 67.0344 29.6336 65.79 28.6964 64.3478C28.4632 63.9828 28.2344 63.6047 28.0144 63.1825C27.7944 62.7604 27.5788 62.3075 27.3852 61.7359C27.2884 61.4545 27.2004 61.1291 27.1344 60.7334C27.0728 60.342 27.0156 59.8672 27.1212 59.1988C27.2312 58.5876 27.3852 58.2227 27.5216 57.8929C27.658 57.5675 27.7944 57.3257 27.9264 57.0794C28.4544 56.1517 28.9692 55.4833 29.484 54.8106C30.0032 54.1466 30.5224 53.5266 31.046 52.9242C32.1108 51.737 33.1756 50.5982 34.28 49.5077C36.4756 47.318 38.7152 45.2602 41.122 43.2903L45.6936 48.6415L39.1112 54.5599C38.0332 55.5581 36.9508 56.5342 35.9432 57.5411C35.4328 58.0336 34.9356 58.5305 34.478 59.0229C34.0248 59.5022 33.598 60.0123 33.334 60.3684C33.3296 60.3772 33.3208 60.3816 33.3164 60.3904C33.3472 60.474 33.378 60.5663 33.4132 60.6586C33.5144 60.9181 33.6376 61.2039 33.7696 61.4985C34.324 62.6769 35.072 63.9169 35.8288 65.1524Z" fill="white"/>
<path d="M40.5794 71.4397C40.5794 71.4397 43.5027 72.5231 43.9537 73.0921C44.4047 73.6611 41.5346 76.8907 40.4205 77.3427C39.3064 77.7948 39.8802 76.4541 39.8802 76.4541C39.8802 76.4541 38.4414 76.7896 37.77 75.6982C37.0985 74.6069 37.891 71.6222 40.5794 71.4397Z" fill="#FF8B7B"/>
<path d="M71.6958 79.8015C71.6958 79.8015 71.9602 79.7431 72.4715 79.0409C72.9115 78.4363 72.9278 77.822 72.9546 77.457L71.1088 79.0193C71.1088 79.0193 69.4676 78.3914 68.4552 79.1345C66.4131 80.6339 66.9904 82.3219 67.2263 82.81C67.4617 83.2981 69.1504 82.9982 70.3203 82.0282C71.4907 81.0587 71.6958 79.8015 71.6958 79.8015Z" fill="#FF8B7B"/>
</svg>
