
<svg width="22" height="22" viewBox="0 0 22 22" fill="none" xmlns="http://www.w3.org/2000/svg">
<path d="M17.8081 5.97025C17.3626 2.60608 14.4833 0 11 0C8.03917 0 5.48625 1.86908 4.53108 4.609C1.99008 4.86567 0 7.018 0 9.625C0 11.4978 1.02483 13.1844 2.68583 14.0653L2.82883 14.2083L1.45383 15.5833L2.82883 16.9583L1.45383 18.3333L5.04258 21.9212L8.25 18.7128V13.5126C9.40683 12.5583 10.0833 11.1393 10.0833 9.625C10.0833 7.32417 8.53142 5.38175 6.42033 4.7795C7.22517 3.0085 8.987 1.83333 11 1.83333C13.5163 1.83333 15.6026 3.68958 15.9766 6.10225L11.9167 10.1622V22H22V10.1622L17.8081 5.97025ZM8.25 9.625C8.25 10.6966 7.7165 11.693 6.82275 12.2916L6.41667 12.5647V17.9538L5.04258 19.3288L4.04617 18.3333L5.42117 16.9583L4.04617 15.5833L5.42117 14.2083L3.77208 12.5593L3.63642 12.4923C2.5245 11.9451 1.83333 10.846 1.83333 9.625C1.83333 7.85583 3.2725 6.41667 5.04167 6.41667C6.81083 6.41667 8.25 7.85583 8.25 9.625ZM20.1667 20.1667H13.75V10.9212L16.9583 7.71283L20.1667 10.9212V20.1667ZM5.04167 7.33333C5.80067 7.33333 6.41667 7.94933 6.41667 8.70833C6.41667 9.46733 5.80067 10.0833 5.04167 10.0833C4.28267 10.0833 3.66667 9.46733 3.66667 8.70833C3.66667 7.94933 4.28267 7.33333 5.04167 7.33333Z" fill="#343434"/>
</svg>
