<svg width="60" height="60" viewBox="0 0 60 60" fill="none" xmlns="http://www.w3.org/2000/svg">
<g clip-path="url(#clip0_715_4065)">
<path d="M15 9.99997V50C14.9999 50.4448 15.1184 50.8816 15.3435 51.2653C15.5685 51.649 15.8918 51.9658 16.2801 52.1828C16.6683 52.3999 17.1075 52.5094 17.5522 52.5001C17.9969 52.4908 18.4311 52.3631 18.81 52.13L51.31 32.13C51.674 31.9063 51.9746 31.5931 52.1831 31.2202C52.3917 30.8473 52.5011 30.4272 52.5011 30C52.5011 29.5727 52.3917 29.1526 52.1831 28.7798C51.9746 28.4069 51.674 28.0936 51.31 27.87L18.81 7.86997C18.4311 7.63688 17.9969 7.5091 17.5522 7.49981C17.1075 7.49052 16.6683 7.60006 16.2801 7.81712C15.8918 8.03419 15.5685 8.35092 15.3435 8.73463C15.1184 9.11834 14.9999 9.55515 15 9.99997Z" fill="white" fill-opacity="0.66"/>
</g>
<defs>
<clipPath id="clip0_715_4065">
<rect width="60" height="60" fill="white"/>
</clipPath>
</defs>
</svg>
