<svg width="120" height="80" viewBox="0 0 120 80" fill="none" xmlns="http://www.w3.org/2000/svg">
<path d="M64.0283 39.5804C60.5032 37.1129 60.1633 36.7955 58.3806 33.4915L56.687 36.9495C63.9393 38.9924 70.1957 45.8444 75.6533 51.039C81.2414 56.3577 91.5686 64.1899 93.0829 71.5707C95.0909 66.4875 98.1945 67.1428 101.815 63.0484C89.7811 59.7211 72.7965 45.7179 64.0283 39.5804Z" fill="#EBEBEB"/>
<path d="M80.8643 76.8411C81.7295 74.4662 84.7174 73.3506 87.0219 74.3888C87.0052 74.0296 86.9887 73.6706 86.9721 73.3114C87.1889 71.7214 88.0692 70.2325 89.3579 69.2762C90.6465 68.3198 92.3265 67.9085 93.9111 68.1616C94.0473 66.384 95.903 64.9389 97.6598 65.2422C97.366 63.9843 97.8679 62.576 98.8911 61.7874C99.9143 60.9987 101.404 60.8722 102.546 61.4766C104.365 60.3322 106.892 60.4483 108.599 61.7549C110.306 63.0616 111.077 65.4702 110.447 67.5254C113.211 69.6389 114.209 73.7616 112.718 76.905" fill="#EBEBEB"/>
<path d="M54.5166 35.9291L59.371 32.6264C61.1124 32.3976 62.0414 34.1184 61.9689 35.3566C62.7064 34.9736 63.6835 35.1225 64.2734 35.7078C64.8632 36.2931 65.0198 37.2691 64.6425 38.0094C65.6345 38.0587 66.4617 39.0833 66.3006 40.0635C66.1395 41.0435 65.0278 41.7496 64.0723 41.4787C63.4417 41.3 62.9281 40.7781 62.2769 40.704C61.666 40.6345 61.0942 40.9737 60.5086 41.1606C59.054 41.6249 57.3904 41.1029 56.2929 40.0411C55.1953 38.9795 54.6265 37.452 54.5166 35.9291Z" fill="#EBEBEB"/>
<path d="M57.6327 33.8569C58.1979 34.0123 58.7303 34.2835 59.1914 34.6454C59.4927 34.8819 59.3131 35.3673 58.9303 35.3557L58.9202 35.3553C59.5099 35.7665 60.0728 36.2165 60.6039 36.7011C60.9431 37.0107 60.713 37.5745 60.2541 37.5557C58.456 37.4816 56.6842 36.744 55.3877 35.4923L57.6327 33.8569Z" fill="#E0E0E0"/>
<path d="M48.9766 34.2629C48.9766 34.2685 48.9769 34.2817 48.9777 34.3013C49.0564 36.5417 50.1519 38.6242 51.9486 39.9649L53.0754 40.8058L53.1906 37.4074L48.9766 34.2629Z" fill="#E0E0E0"/>
<path d="M53.7461 27.8712C53.7514 27.8696 53.7639 27.8662 53.7827 27.8614C55.9232 27.3069 58.1999 27.7578 59.9722 29.0802L61.0837 29.9096L57.9027 30.9728L53.7461 27.8712Z" fill="#E0E0E0"/>
<path d="M40.3267 22.8334C40.7041 22.3275 42.7062 22.3734 45.536 23.1395C48.3222 23.8939 50.2345 25.2512 50.2345 25.2512L59.6384 32.2681L57.7894 34.7459L56.7177 36.182L54.8688 38.6598L46.3353 32.2923C45.5014 31.67 44.7257 30.9729 44.0254 30.2036C43.4232 29.5422 42.7211 28.6924 42.1032 27.74C40.5137 25.2905 39.9491 23.3393 40.3267 22.8334Z" fill="#F5F5F5"/>
<path d="M53.3897 37.4559C53.399 37.4629 54.4716 36.0581 55.7855 34.3188C57.0998 32.5788 58.1574 31.1631 58.1483 31.156C58.139 31.1492 57.0665 32.5535 55.7523 34.2935C54.4382 36.0328 53.3804 37.4488 53.3897 37.4559Z" fill="#E0E0E0"/>
<path d="M53.6959 37.6403C53.7051 37.6472 54.7778 36.2425 56.0917 34.5032C57.4059 32.7632 58.4635 31.3475 58.4544 31.3406C58.4451 31.3336 57.3727 32.738 56.0584 34.478C54.7445 36.2172 53.6866 37.6332 53.6959 37.6403Z" fill="#E0E0E0"/>
<path d="M53.9927 37.8695C54.002 37.8764 55.0748 36.4718 56.3886 34.7324C57.7028 32.9924 58.7604 31.5767 58.7513 31.5698C58.742 31.563 57.6695 32.9673 56.3553 34.7073C55.0414 36.4466 53.9836 37.8626 53.9927 37.8695Z" fill="#E0E0E0"/>
<path d="M54.2901 38.0989C54.2994 38.106 55.372 36.7012 56.6859 34.9618C58.0002 33.2218 59.0578 31.8061 59.0487 31.7991C59.0395 31.7922 57.9669 33.1965 56.6527 34.9365C55.3387 36.6761 54.2808 38.0921 54.2901 38.0989Z" fill="#E0E0E0"/>
<path d="M54.587 38.3288C54.5961 38.3356 55.6689 36.931 56.9828 35.1916C58.2971 33.4516 59.3547 32.036 59.3455 32.0291C59.3363 32.022 58.2638 33.4265 56.9495 35.1665C55.6356 36.9057 54.5779 38.3217 54.587 38.3288Z" fill="#E0E0E0"/>
<path d="M51.359 31.085C51.3578 31.0858 51.371 31.0994 51.3975 31.1247C51.4236 31.1514 51.4662 31.1831 51.5194 31.2276C51.627 31.3144 51.785 31.4365 51.9818 31.5858C52.3753 31.8842 52.9234 32.29 53.5314 32.7346C54.1398 33.1792 54.6927 33.5784 55.0943 33.8656C55.2927 34.0063 55.4546 34.121 55.5713 34.2037C55.6254 34.2408 55.6689 34.2708 55.7023 34.2938C55.7326 34.314 55.7489 34.324 55.7497 34.3229C55.7505 34.3218 55.7359 34.3095 55.7073 34.2869C55.675 34.2623 55.633 34.2303 55.5809 34.1904C55.4662 34.1052 55.3068 33.9868 55.1118 33.8416C54.7102 33.5471 54.162 33.1452 53.5562 32.7008C52.9502 32.2575 52.4015 31.8562 51.9997 31.5621C51.8042 31.4176 51.6447 31.2997 51.5297 31.2148C51.4753 31.1727 51.4303 31.1423 51.4036 31.1188C51.3756 31.0959 51.3601 31.0842 51.359 31.085Z" fill="#E0E0E0"/>
<path d="M48.9766 34.2629C48.9859 34.2698 50.0531 32.8575 51.3601 31.1087C52.6675 29.3592 53.7197 27.936 53.7104 27.929C53.7011 27.9221 52.6341 29.3343 51.3267 31.0835C50.0195 32.8325 48.9673 34.256 48.9766 34.2629Z" fill="#E0E0E0"/>
<path d="M54.0777 33.9113C54.0772 33.9092 54.0551 33.9108 54.0207 33.9295C53.9868 33.9479 53.9412 33.9873 53.9134 34.0532C53.8849 34.1164 53.88 34.2159 53.9409 34.2938C53.9976 34.3698 54.1076 34.4233 54.2191 34.3945C54.3299 34.3626 54.3974 34.2606 54.4076 34.1663C54.4204 34.0681 54.3655 33.985 54.3089 33.945C54.2515 33.9025 54.1921 33.8918 54.1535 33.8932C54.1143 33.8946 54.0945 33.9044 54.0951 33.9065C54.0959 33.91 54.1166 33.906 54.1527 33.9095C54.1884 33.9129 54.2412 33.9274 54.2905 33.9684C54.3393 34.0079 54.382 34.0793 54.3692 34.1617C54.359 34.2418 54.2983 34.3287 54.2079 34.3541C54.1171 34.3781 54.0209 34.3341 53.9713 34.2703C53.9184 34.2058 53.9188 34.1226 53.9407 34.0637C53.9623 34.0036 54.0004 33.9641 54.0294 33.9431C54.059 33.9218 54.079 33.9148 54.0777 33.9113Z" fill="#E0E0E0"/>
<path d="M52.2349 32.589C52.2345 32.5869 52.2125 32.5885 52.178 32.6072C52.1441 32.6256 52.0985 32.665 52.0706 32.7309C52.0421 32.7941 52.0372 32.8936 52.0981 32.9716C52.1548 33.0476 52.2649 33.101 52.3764 33.0722C52.4871 33.0404 52.5546 32.9383 52.5649 32.844C52.5777 32.7458 52.5228 32.6628 52.4661 32.6228C52.4087 32.5802 52.3493 32.5695 52.3108 32.5709C52.2716 32.5724 52.2517 32.5821 52.2524 32.5842C52.2532 32.5877 52.2738 32.5836 52.3101 32.5872C52.3458 32.5906 52.3986 32.6052 52.4479 32.6461C52.4967 32.6856 52.5394 32.757 52.5266 32.8396C52.5164 32.9199 52.4557 33.0066 52.3653 33.032C52.2745 33.056 52.1783 33.0122 52.1285 32.9482C52.0756 32.8837 52.0761 32.8005 52.098 32.7416C52.1196 32.6815 52.1577 32.642 52.1866 32.6208C52.2162 32.5994 52.2361 32.5924 52.2349 32.589Z" fill="#E0E0E0"/>
<path d="M60.9598 38.5098C61.1662 38.4317 61.4249 38.5458 61.5068 38.7508C61.5886 38.9557 61.4795 39.2165 61.276 39.3021C61.0724 39.3877 60.8099 39.2834 60.7204 39.0815C60.6312 38.8796 60.7307 38.6151 60.9308 38.522" fill="#E0E0E0"/>
<path d="M44.6784 28.3365C45.0784 29.4563 46.3105 30.0398 47.4304 29.6398C48.5502 29.2397 49.1337 28.0077 48.7337 26.8878C48.3337 25.768 47.1016 25.1845 45.9817 25.5846C44.8617 25.9845 44.2782 27.2166 44.6784 28.3365Z" fill="white"/>
<path d="M44.6785 28.3366C44.6913 28.3332 44.6143 28.1556 44.5831 27.8171C44.5532 27.4849 44.5971 26.9654 44.9313 26.4568C45.0977 26.2072 45.3318 25.9622 45.6399 25.7876C45.9467 25.616 46.3185 25.4955 46.7163 25.5041C46.9143 25.5027 47.1174 25.5347 47.3153 25.596C47.5142 25.6542 47.7083 25.7454 47.8852 25.8683C48.2454 26.106 48.5319 26.4744 48.6897 26.9033C48.8396 27.3352 48.8513 27.8019 48.7235 28.214C48.6643 28.4212 48.5719 28.6148 48.455 28.786C48.3407 28.9588 48.2039 29.1123 48.0497 29.2368C47.7475 29.4956 47.3833 29.638 47.0372 29.6995C46.6881 29.7596 46.3518 29.7185 46.0651 29.6308C45.4843 29.4491 45.1212 29.075 44.9339 28.799C44.7435 28.5172 44.6905 28.3312 44.6785 28.3366C44.6755 28.3377 44.6907 28.3825 44.7225 28.4672C44.7374 28.51 44.7582 28.562 44.7903 28.6201C44.8204 28.6792 44.8537 28.7484 44.9036 28.819C45.0847 29.1056 45.4487 29.4977 46.0451 29.6936C46.3395 29.7881 46.6871 29.8348 47.0495 29.7758C47.4089 29.7156 47.7883 29.5704 48.1047 29.3028C48.266 29.174 48.4094 29.015 48.5292 28.8355C48.6518 28.6576 48.7487 28.4561 48.8111 28.2401C48.9457 27.8104 48.9345 27.3222 48.7777 26.8716C48.6134 26.424 48.3127 26.0392 47.9364 25.7921C47.7513 25.6646 47.5486 25.5702 47.3411 25.5104C47.1347 25.4475 46.923 25.4152 46.7166 25.4177C46.3023 25.4113 45.9169 25.5393 45.6007 25.7204C45.283 25.9044 45.0436 26.1608 44.8758 26.4204C44.5387 26.9497 44.5054 27.4838 44.5468 27.8203C44.5529 27.9065 44.571 27.9811 44.5852 28.0459C44.5972 28.1112 44.614 28.1646 44.6297 28.2073C44.6588 28.2936 44.6755 28.3377 44.6785 28.3366Z" fill="#E0E0E0"/>
<path d="M40.3267 22.8334C40.7041 22.3275 42.7062 22.3734 45.536 23.1395L42.1032 27.74C40.5137 25.2905 39.9491 23.3393 40.3267 22.8334Z" fill="#E0E0E0"/>
<path d="M40.3267 22.8333C40.3267 22.8333 40.3065 22.8648 40.2702 22.9298C40.2417 22.9981 40.2147 23.1064 40.2069 23.2514C40.1945 23.5418 40.2702 23.968 40.4393 24.4925C40.784 25.5395 41.4997 26.9919 42.6709 28.6099C43.2673 29.4096 43.9712 30.256 44.8283 31.0731C45.2579 31.4799 45.7246 31.8791 46.2296 32.2607C46.7353 32.6391 47.2568 33.0293 47.7926 33.4304C49.9379 35.0333 52.315 36.8093 54.8411 38.6967L54.8782 38.7243L54.9059 38.6872C55.6715 37.6615 56.4739 36.5866 57.2907 35.4922C58.1075 34.3971 58.9099 33.3216 59.6753 32.2955L59.703 32.2584L59.6659 32.2307C57.1366 30.3458 54.7568 28.5723 52.6093 26.9719C52.0723 26.572 51.5499 26.1831 51.0432 25.8059C50.7899 25.6175 50.5405 25.4319 50.2953 25.2493C50.0437 25.0704 49.7857 24.9157 49.5296 24.7671C48.5029 24.1773 47.4902 23.7424 46.5467 23.417C45.5987 23.1021 44.7224 22.8933 43.9501 22.7419C43.1768 22.5946 42.5043 22.509 41.9531 22.4906C41.4024 22.4717 40.972 22.513 40.6953 22.6023C40.6285 22.6304 40.5665 22.6482 40.519 22.676C40.4729 22.7061 40.4305 22.7263 40.4033 22.7514C40.3512 22.805 40.3267 22.8333 40.3267 22.8333C40.3267 22.8333 40.3558 22.8087 40.4086 22.7586C40.4361 22.7349 40.4789 22.7163 40.5248 22.688C40.5721 22.6618 40.6341 22.6455 40.7003 22.6191C40.9753 22.5362 41.4033 22.5003 41.9515 22.5243C42.5003 22.5479 43.1701 22.6379 43.9406 22.7896C44.7102 22.945 45.5841 23.1579 46.5267 23.4754C47.4653 23.8034 48.4728 24.2402 49.4931 24.8303C49.747 24.9786 50.0049 25.1344 50.251 25.3104C50.4958 25.4936 50.7446 25.6797 50.9976 25.869C51.5033 26.2472 52.0249 26.6373 52.5609 27.0383C54.7064 28.6411 57.0838 30.4175 59.6105 32.3053L59.6011 32.2407C58.8353 33.2666 58.0328 34.3418 57.2157 35.4367C56.399 36.5314 55.5969 37.6064 54.8317 38.6325L54.8963 38.6231C52.3678 36.7387 49.9885 34.9656 47.8413 33.3653C47.3046 32.9655 46.7824 32.5765 46.276 32.1992C45.7725 31.8205 45.3069 31.4243 44.8779 31.0207C44.0227 30.2103 43.3173 29.3682 42.7198 28.5736C41.5461 26.9663 40.8233 25.5211 40.4707 24.4823C40.2974 23.9618 40.2171 23.5394 40.2238 23.2522C40.2288 23.1088 40.2528 23.0018 40.2781 22.9333C40.3113 22.8682 40.3267 22.8333 40.3267 22.8333Z" fill="#E0E0E0"/>
<path d="M46.8829 29.213C46.8952 29.2113 46.8842 29.0453 46.8468 28.7799C46.8098 28.5143 46.7447 28.15 46.665 27.7498C46.5872 27.3681 46.517 27.0225 46.4567 26.7265C46.4028 26.4649 46.3687 26.3028 46.3554 26.3047C46.3431 26.3065 46.3541 26.4722 46.3916 26.7377C46.4285 27.0033 46.4936 27.3676 46.5733 27.7679C46.6511 28.1495 46.7213 28.4951 46.7816 28.7911C46.8356 29.0529 46.8696 29.2149 46.8829 29.213Z" fill="#E0E0E0"/>
<path d="M47.2641 28.7069C47.2897 28.7036 47.2417 28.281 47.1569 27.7631C47.0721 27.245 46.9827 26.8292 46.9574 26.8343C46.9321 26.8392 46.9801 27.2618 47.0646 27.7781C47.1491 28.2944 47.2385 28.7103 47.2641 28.7069Z" fill="#E0E0E0"/>
<path d="M99.8366 57.0884L95.2909 54.8747C94.9768 54.7217 94.8461 54.343 94.999 54.0289L98.063 47.7369C98.216 47.4228 98.5947 47.2921 98.9088 47.4451L101.792 48.8489L102.903 52.2358L100.682 56.7964C100.529 57.1108 100.151 57.2414 99.8366 57.0884Z" fill="#EBEBEB"/>
<path d="M101.792 48.8491L100.929 50.62C100.787 50.9122 100.908 51.2643 101.201 51.4066L102.903 52.236L101.792 48.8491Z" fill="#E0E0E0"/>
<path d="M100.583 50.362C100.572 50.3847 100.092 50.1739 99.5117 49.8911C98.9309 49.6083 98.4691 49.3606 98.4802 49.3379C98.4912 49.3151 98.9709 49.5259 99.5519 49.8087C100.132 50.0916 100.594 50.3393 100.583 50.362Z" fill="white"/>
<path d="M101.454 52.0248C101.443 52.0475 100.659 51.6886 99.7035 51.2232C98.7475 50.7576 97.9818 50.3619 97.9928 50.3392C98.0038 50.3164 98.7877 50.6752 99.7437 51.1408C100.699 51.6062 101.465 52.0019 101.454 52.0248Z" fill="white"/>
<path d="M101.359 53.0127C101.348 53.0354 100.494 52.6426 99.4521 52.1353C98.41 51.6277 97.5745 51.1981 97.5856 51.1753C97.5966 51.1525 98.4502 51.5453 99.4923 52.0529C100.534 52.5601 101.37 52.99 101.359 53.0127Z" fill="white"/>
<path d="M100.974 53.8015C100.963 53.8242 100.11 53.4314 99.0678 52.9241C98.0258 52.4166 97.1902 51.987 97.2013 51.9641C97.2123 51.9414 98.0659 52.3342 99.108 52.8417C100.15 53.3489 100.985 53.7786 100.974 53.8015Z" fill="white"/>
<path d="M100.591 54.5901C100.58 54.6128 99.7258 54.22 98.6841 53.7126C97.642 53.2051 96.8065 52.7755 96.8175 52.7526C96.8285 52.7299 97.6821 53.1227 98.7242 53.6302C99.766 54.1374 100.602 54.5674 100.591 54.5901Z" fill="white"/>
<path d="M100.206 55.3789C100.195 55.4016 99.3415 55.0088 98.2998 54.5015C97.2577 53.9939 96.4222 53.5643 96.4332 53.5415C96.4443 53.5187 97.2979 53.9115 98.3399 54.4191C99.3815 54.9263 100.217 55.3562 100.206 55.3789Z" fill="white"/>
<path d="M37.4278 34.4716C37.2156 37.498 34.5846 39.7791 31.5513 39.5667C28.5179 39.354 26.2308 36.7284 26.4428 33.7019C26.6548 30.6755 29.2859 28.3945 32.3193 28.607C35.3526 28.8195 37.6398 31.4452 37.4278 34.4716Z" fill="#F5F5F5"/>
<path d="M36.121 34.3801C35.9594 36.6864 33.9544 38.4246 31.6426 38.2627C29.3311 38.1008 27.588 36.0996 27.7496 33.7936C27.9114 31.4872 29.9164 29.7489 32.2279 29.9108C34.5396 30.0729 36.2824 32.0737 36.121 34.3801Z" fill="#EBEBEB"/>
<path d="M36.1292 34.2486C36.1038 34.2478 36.0988 34.0629 36.0539 33.7376C36.0071 33.4141 35.9127 32.9443 35.6609 32.4208C35.535 32.1602 35.3708 31.8874 35.1601 31.6214C34.9473 31.3576 34.691 31.0982 34.3847 30.8728C34.2321 30.7595 34.0689 30.6525 33.8935 30.559C33.7188 30.4646 33.5347 30.3781 33.3399 30.3094C33.1459 30.2402 32.9439 30.1802 32.7345 30.1402C32.5252 30.0998 32.3102 30.0741 32.0915 30.0642C31.8724 30.0573 31.6559 30.0662 31.4443 30.0902C31.2323 30.1139 31.0265 30.1582 30.8275 30.2123C30.6279 30.2659 30.4377 30.3381 30.2563 30.4186C30.0742 30.4981 29.9031 30.5925 29.7423 30.6936C29.4196 30.8949 29.1441 31.1339 28.9118 31.3805C28.6812 31.6293 28.4964 31.8886 28.3508 32.1389C28.0596 32.6413 27.9294 33.1022 27.858 33.4213C27.7883 33.7421 27.7692 33.9261 27.7436 33.925C27.7247 33.9246 27.7012 33.7382 27.7345 33.4013C27.7695 33.0667 27.8699 32.5754 28.1511 32.0304C28.2918 31.759 28.4764 31.476 28.7132 31.2029C28.9518 30.932 29.2396 30.6686 29.5815 30.4453C29.7518 30.3333 29.9337 30.2286 30.1284 30.14C30.3225 30.0502 30.5267 29.9702 30.7411 29.9101C30.9551 29.8494 31.1772 29.8003 31.4059 29.7734C31.6342 29.7462 31.8679 29.736 32.1039 29.7437C32.3399 29.7542 32.5719 29.7826 32.7975 29.8272C33.0235 29.8717 33.2409 29.9379 33.4497 30.0147C33.6588 30.0912 33.8561 30.1869 34.0427 30.2912C34.2299 30.3947 34.4033 30.513 34.5644 30.6376C34.8879 30.8866 35.1548 31.1712 35.3719 31.4597C35.5868 31.7501 35.7494 32.0467 35.8687 32.3282C36.1073 32.8934 36.1695 33.391 36.179 33.7272C36.1859 34.0658 36.1479 34.2496 36.1292 34.2486Z" fill="#E0E0E0"/>
<path d="M32.234 36.6163L32.1936 37.3463L31.542 37.3098L31.5816 36.5997C30.9387 36.5247 30.331 36.2885 29.9883 35.9883L30.3907 35.2133C30.7032 35.4727 31.1624 35.6744 31.6291 35.7463L31.6894 34.6579C30.976 34.4421 30.1814 34.156 30.2332 33.2242C30.2716 32.5335 30.8062 31.9687 31.8422 31.9087L31.8824 31.1853L32.534 31.2215L32.4945 31.9319C32.9811 31.9981 33.4494 32.1547 33.795 32.4027L33.4248 33.1861C33.1028 32.9787 32.7704 32.8491 32.4467 32.7917L32.3852 33.8995C33.099 34.109 33.8806 34.3944 33.8296 35.313C33.7916 35.9906 33.2638 36.5495 32.234 36.6163ZM31.7427 33.7002L31.7939 32.7751C31.4443 32.8341 31.2971 33.0155 31.2849 33.2306C31.2724 33.4584 31.4609 33.5933 31.7427 33.7002ZM32.7761 35.3328C32.7888 35.1047 32.6067 34.9704 32.332 34.857L32.282 35.7562C32.6116 35.7027 32.7644 35.5415 32.7761 35.3328Z" fill="#E0E0E0"/>
<path d="M108.785 17.8479C108.622 20.1604 106.612 21.9033 104.294 21.7409C101.977 21.5785 100.229 19.5722 100.391 17.2597C100.553 14.9474 102.564 13.2045 104.881 13.3669C107.199 13.5293 108.947 15.5356 108.785 17.8479Z" fill="#F5F5F5"/>
<path d="M107.786 17.7781C107.663 19.5402 106.131 20.8685 104.364 20.7446C102.598 20.621 101.266 19.092 101.39 17.3299C101.513 15.5677 103.045 14.2395 104.812 14.3632C106.578 14.487 107.91 16.0158 107.786 17.7781Z" fill="#EBEBEB"/>
<path d="M107.792 17.6776C107.773 17.6769 107.769 17.5356 107.735 17.287C107.699 17.0398 107.627 16.6809 107.434 16.2809C107.338 16.0817 107.213 15.8734 107.052 15.67C106.889 15.4684 106.693 15.2704 106.459 15.098C106.343 15.0115 106.218 14.9297 106.084 14.8584C105.95 14.7862 105.81 14.7201 105.661 14.6676C105.513 14.6147 105.358 14.5688 105.198 14.5384C105.039 14.5076 104.874 14.4878 104.707 14.4803C104.54 14.475 104.374 14.4819 104.212 14.5003C104.051 14.5184 103.893 14.5523 103.741 14.5936C103.589 14.6345 103.443 14.6896 103.305 14.7512C103.165 14.812 103.035 14.8841 102.912 14.9612C102.665 15.115 102.455 15.2977 102.277 15.486C102.101 15.6761 101.96 15.8744 101.849 16.0656C101.626 16.4494 101.527 16.8017 101.472 17.0454C101.419 17.2905 101.404 17.4312 101.385 17.4302C101.371 17.43 101.353 17.2876 101.378 17.03C101.405 16.7745 101.481 16.399 101.696 15.9825C101.804 15.7752 101.945 15.5588 102.126 15.3502C102.308 15.1433 102.528 14.942 102.789 14.7713C102.919 14.6857 103.058 14.6059 103.207 14.538C103.355 14.4696 103.511 14.4083 103.675 14.3624C103.839 14.3161 104.008 14.2785 104.183 14.258C104.358 14.2372 104.536 14.2294 104.716 14.2353C104.897 14.2433 105.074 14.2651 105.246 14.2992C105.419 14.3331 105.585 14.3838 105.745 14.4424C105.904 14.5008 106.055 14.5739 106.198 14.6536C106.341 14.7326 106.473 14.823 106.596 14.9182C106.844 15.1084 107.047 15.326 107.213 15.5464C107.377 15.7683 107.502 15.9948 107.593 16.2099C107.775 16.6417 107.823 17.022 107.83 17.2788C107.836 17.5379 107.807 17.6784 107.792 17.6776Z" fill="#E0E0E0"/>
<path d="M104.816 19.4868L104.785 20.0444L104.287 20.0166L104.318 19.474C103.826 19.4168 103.362 19.2363 103.1 19.0068L103.408 18.4147C103.646 18.6128 103.997 18.767 104.354 18.8219L104.4 17.9904C103.855 17.8254 103.248 17.6068 103.287 16.8948C103.317 16.3672 103.725 15.9355 104.517 15.8896L104.547 15.3369L105.045 15.3646L105.015 15.9073C105.387 15.9579 105.745 16.0776 106.009 16.2672L105.726 16.8657C105.48 16.7073 105.226 16.6083 104.978 16.5644L104.931 17.4108C105.477 17.5708 106.074 17.7891 106.035 18.4908C106.006 19.0088 105.603 19.4358 104.816 19.4868ZM104.441 17.2587L104.48 16.5518C104.213 16.5969 104.1 16.7355 104.091 16.8998C104.081 17.0739 104.226 17.1769 104.441 17.2587ZM105.23 18.5062C105.24 18.3318 105.101 18.2294 104.891 18.1427L104.853 18.8297C105.105 18.7888 105.221 18.6654 105.23 18.5062Z" fill="#E0E0E0"/>
<path d="M60.7309 48.5844C60.9719 50.2431 59.8196 51.7834 58.1572 52.025C56.4948 52.2666 54.9517 51.118 54.7106 49.4593C54.4695 47.8007 55.6218 46.2602 57.2842 46.0186C58.9468 45.7772 60.49 46.926 60.7309 48.5844Z" fill="#F5F5F5"/>
<path d="M60.015 48.6885C60.1986 49.9523 59.3206 51.1262 58.0535 51.3104C56.7868 51.4946 55.6108 50.619 55.4271 49.3552C55.2434 48.0912 56.1217 46.9173 57.3884 46.7331C58.6553 46.5493 59.8313 47.4247 60.015 48.6885Z" fill="#EBEBEB"/>
<path d="M60.0037 48.6166C59.99 48.6192 59.9655 48.5198 59.9031 48.3496C59.8399 48.1804 59.7338 47.9379 59.5362 47.6849C59.4376 47.559 59.317 47.431 59.1719 47.3123C59.026 47.1948 58.8572 47.0849 58.6653 46.9992C58.5696 46.956 58.469 46.9172 58.3632 46.8875C58.2578 46.8571 58.1482 46.832 58.0351 46.8177C57.9221 46.8032 57.8061 46.7945 57.6884 46.7974C57.5706 46.8003 57.4516 46.8115 57.3324 46.832C57.2133 46.8539 57.0975 46.8843 56.9861 46.922C56.8744 46.9598 56.7685 47.0078 56.6674 47.0604C56.566 47.1129 56.4717 47.1742 56.3832 47.2388C56.2943 47.3032 56.213 47.3742 56.1381 47.4476C55.9876 47.5942 55.8669 47.7556 55.7704 47.916C55.6752 48.0774 55.606 48.2392 55.5567 48.3913C55.4584 48.6968 55.4424 48.9609 55.4413 49.1414C55.4413 49.3228 55.4527 49.4243 55.4388 49.4267C55.4285 49.4288 55.394 49.3308 55.3724 49.1451C55.352 48.9604 55.3484 48.6833 55.4362 48.3561C55.4802 48.1931 55.5466 48.0185 55.6424 47.8433C55.7394 47.6691 55.8639 47.4931 56.0221 47.3324C56.1008 47.252 56.1868 47.1742 56.2815 47.1035C56.3757 47.0323 56.4765 46.9651 56.5852 46.9075C56.6936 46.8496 56.8077 46.7969 56.9279 46.7556C57.048 46.714 57.173 46.6811 57.3012 46.6576C57.4298 46.6355 57.5584 46.6236 57.6853 46.6212C57.8125 46.6187 57.9376 46.6289 58.0594 46.6459C58.1813 46.6625 58.2991 46.691 58.4119 46.7254C58.5252 46.7593 58.6327 46.8027 58.7343 46.8512C58.9381 46.9476 59.1157 47.0699 59.2668 47.2001C59.4168 47.3316 59.5394 47.4726 59.637 47.6105C59.8322 47.8876 59.9242 48.1489 59.9688 48.3294C60.0128 48.5113 60.014 48.615 60.0037 48.6166Z" fill="#E0E0E0"/>
<path d="M58.1794 50.3525L58.2433 50.7512L57.8873 50.808L57.8252 50.42C57.4693 50.455 57.1135 50.3989 56.8933 50.2771L57.0194 49.8115C57.2186 49.9147 57.4901 49.9697 57.7506 49.9537L57.6554 49.3592C57.2449 49.3264 56.7825 49.2654 56.701 48.7563C56.6407 48.379 56.8628 48.0112 57.4149 47.8571L57.3517 47.4619L57.7077 47.4048L57.7698 47.7929C58.0402 47.7715 58.3114 47.8011 58.5271 47.8944L58.4193 48.3608C58.2212 48.2867 58.0263 48.2558 57.8449 48.2629L57.9418 48.8681C58.3517 48.8974 58.8071 48.9597 58.8874 49.4614C58.9466 49.8318 58.7274 50.1955 58.1794 50.3525ZM57.5716 48.8361L57.4905 48.3307C57.3087 48.4037 57.2505 48.5189 57.2692 48.6363C57.2893 48.7608 57.4069 48.8113 57.5716 48.8361ZM58.3212 49.596C58.3012 49.4713 58.1871 49.4203 58.0255 49.3913L58.1042 49.8827C58.2759 49.815 58.3394 49.7099 58.3212 49.596Z" fill="#E0E0E0"/>
<path d="M7.95588 57.726V61.068C7.95588 61.1596 7.88149 61.234 7.78965 61.234H7.50853C7.41669 61.234 7.34229 61.3084 7.34229 61.4003V61.4667C7.34229 61.5584 7.41669 61.6328 7.50853 61.6328H7.78965C7.88149 61.6328 7.95588 61.7072 7.95588 61.799V63.9259C7.95588 64.0177 8.03029 64.0921 8.12213 64.0921H19.2572C19.349 64.0921 19.4234 64.0177 19.4234 63.9259V62.0206C19.4234 61.9288 19.349 61.8544 19.2572 61.8544H18.74C18.6482 61.8544 18.574 61.78 18.574 61.6883V61.5332C18.574 61.4414 18.6484 61.367 18.74 61.367H19.2572C19.349 61.367 19.4234 61.2926 19.4234 61.2008V60.802C19.4234 60.7102 19.4978 60.6358 19.5896 60.6358H19.6349C19.7266 60.6358 19.801 60.5614 19.801 60.4696C19.801 60.3777 19.7266 60.3033 19.6349 60.3033H19.5189C19.4271 60.3033 19.3528 60.2289 19.3528 60.1371V57.7256C19.3528 57.6337 19.2784 57.5593 19.1868 57.5593H8.12197C8.03029 57.56 7.95588 57.6344 7.95588 57.726Z" fill="#F5F5F5"/>
<path d="M16.3779 57.7362V63.8852C16.3779 63.977 16.4523 64.0514 16.5442 64.0514H19.2571C19.349 64.0514 19.4234 63.977 19.4234 63.8852V61.9799C19.4234 61.8881 19.349 61.8138 19.2571 61.8138H18.74C18.6482 61.8138 18.5739 61.7394 18.5739 61.6476V61.5364C18.5739 61.4434 18.6501 61.3685 18.743 61.3703L19.2542 61.3794C19.3472 61.381 19.4234 61.3063 19.4234 61.2133V60.8178C19.4234 60.726 19.4979 60.6516 19.5898 60.6516H19.6386C19.7317 60.6517 19.8067 60.5753 19.805 60.4821L19.804 60.4329C19.8022 60.3439 19.7309 60.2722 19.6419 60.27L19.5146 60.2668C19.4245 60.2645 19.3525 60.1908 19.3525 60.1007V57.7268C19.3525 57.6348 19.2778 57.5602 19.1858 57.5605L16.5437 57.57C16.452 57.5705 16.3779 57.6447 16.3779 57.7362Z" fill="#E0E0E0"/>
<path d="M16.5948 61.5804C16.5948 61.6029 14.5198 61.6212 11.9607 61.6212C9.40073 61.6212 7.32617 61.6029 7.32617 61.5804C7.32617 61.558 9.40073 61.5396 11.9607 61.5396C14.5198 61.5396 16.5948 61.5578 16.5948 61.5804Z" fill="#E0E0E0"/>
<path d="M16.5948 61.2069C16.5948 61.2295 14.5198 61.2477 11.9607 61.2477C9.40073 61.2477 7.32617 61.2295 7.32617 61.2069C7.32617 61.1845 9.40073 61.1663 11.9607 61.1663C14.5198 61.1663 16.5948 61.1845 16.5948 61.2069Z" fill="#E0E0E0"/>
<path d="M17.19 60.2025C17.19 60.2251 15.115 60.2431 12.5559 60.2431C9.99595 60.2431 7.92139 60.2249 7.92139 60.2025C7.92139 60.1801 9.99595 60.1619 12.5559 60.1619C15.115 60.1619 17.19 60.1801 17.19 60.2025Z" fill="#E0E0E0"/>
<path d="M17.2476 62.9398C17.2476 62.9624 15.1726 62.9806 12.6136 62.9806C10.0536 62.9806 7.979 62.9624 7.979 62.9398C7.979 62.9174 10.0536 62.8992 12.6136 62.8992C15.1724 62.899 17.2476 62.9174 17.2476 62.9398Z" fill="#E0E0E0"/>
<path d="M8.82063 64.0768V67.4187C8.82063 67.5104 8.74623 67.5848 8.65439 67.5848H8.37327C8.28143 67.5848 8.20703 67.6592 8.20703 67.751V67.8174C8.20703 67.9091 8.28143 67.9835 8.37327 67.9835H8.65439C8.74623 67.9835 8.82063 68.0579 8.82063 68.1498V70.2766C8.82063 70.3685 8.89503 70.4429 8.98687 70.4429H20.1219C20.2138 70.4429 20.288 70.3685 20.288 70.2766V68.3714C20.288 68.2795 20.2136 68.2051 20.1219 68.2051H19.6048C19.5131 68.2051 19.4387 68.1307 19.4387 68.039V67.884C19.4387 67.7922 19.5131 67.7178 19.6048 67.7178H20.1219C20.2138 67.7178 20.288 67.6434 20.288 67.5515V67.1528C20.288 67.0611 20.3624 66.9867 20.4542 66.9867H20.4994C20.5912 66.9867 20.6654 66.9123 20.6654 66.8205C20.6654 66.7286 20.591 66.6544 20.4994 66.6544H20.3834C20.2917 66.6544 20.2173 66.58 20.2173 66.4882V64.0766C20.2173 63.9848 20.1429 63.9104 20.0512 63.9104H8.98671C8.89503 63.9107 8.82063 63.9851 8.82063 64.0768Z" fill="#F5F5F5"/>
<path d="M17.2427 64.0868V70.2358C17.2427 70.3276 17.3171 70.402 17.4089 70.402H20.1219C20.2137 70.402 20.288 70.3276 20.288 70.2358V68.3305C20.288 68.2388 20.2136 68.1644 20.1219 68.1644H19.6048C19.5131 68.1644 19.4387 68.09 19.4387 67.9982V67.887C19.4387 67.794 19.5148 67.7191 19.6078 67.7209L20.119 67.73C20.212 67.7316 20.2881 67.6569 20.2881 67.5639V67.1684C20.2881 67.0766 20.3627 67.0022 20.4545 67.0022H20.5033C20.5964 67.0023 20.6715 66.9259 20.6697 66.8327L20.6688 66.7835C20.667 66.6945 20.5956 66.6228 20.5067 66.6206L20.3793 66.6174C20.2892 66.6151 20.2172 66.5414 20.2172 66.4513V64.0774C20.2172 63.9854 20.1425 63.9108 20.0505 63.9111L17.4084 63.9206C17.3168 63.9211 17.2427 63.9953 17.2427 64.0868Z" fill="#E0E0E0"/>
<path d="M17.4596 67.931C17.4596 67.9536 15.3845 67.9718 12.8255 67.9718C10.2655 67.9718 8.19092 67.9536 8.19092 67.931C8.19092 67.9085 10.2655 67.8904 12.8255 67.8904C15.3845 67.8902 17.4596 67.9085 17.4596 67.931Z" fill="#E0E0E0"/>
<path d="M17.4596 67.5577C17.4596 67.5803 15.3845 67.5985 12.8255 67.5985C10.2655 67.5985 8.19092 67.5803 8.19092 67.5577C8.19092 67.5353 10.2655 67.5171 12.8255 67.5171C15.3845 67.5171 17.4596 67.5353 17.4596 67.5577Z" fill="#E0E0E0"/>
<path d="M18.0549 66.5533C18.0549 66.5759 15.9799 66.594 13.4207 66.594C10.8607 66.594 8.78613 66.5757 8.78613 66.5533C8.78613 66.5308 10.8607 66.5127 13.4207 66.5127C15.9799 66.5127 18.0549 66.5308 18.0549 66.5533Z" fill="#E0E0E0"/>
<path d="M18.1121 69.2906C18.1121 69.3132 16.037 69.3314 13.4778 69.3314C10.9178 69.3314 8.84326 69.3132 8.84326 69.2906C8.84326 69.2682 10.9178 69.25 13.4778 69.25C16.037 69.2498 18.1121 69.2681 18.1121 69.2906Z" fill="#E0E0E0"/>
<path d="M7.81559 70.3419V73.6838C7.81559 73.7756 7.74119 73.85 7.64935 73.85H7.36823C7.27655 73.85 7.20215 73.9244 7.20215 74.0163V74.0827C7.20215 74.1743 7.27655 74.2487 7.36823 74.2487H7.64935C7.74119 74.2487 7.81559 74.3231 7.81559 74.415V76.5419C7.81559 76.6337 7.88999 76.7081 7.98167 76.7081H19.1167C19.2085 76.7081 19.2828 76.6337 19.2828 76.5419V74.6366C19.2828 74.5449 19.2084 74.4705 19.1167 74.4705H18.5996C18.5077 74.4705 18.4335 74.3961 18.4335 74.3043V74.1492C18.4335 74.0574 18.5079 73.9831 18.5996 73.9831H19.1167C19.2085 73.9831 19.2828 73.9087 19.2828 73.8169V73.4182C19.2828 73.3265 19.3572 73.2521 19.4489 73.2521H19.4941C19.586 73.2521 19.6604 73.1777 19.6604 73.0859C19.6604 72.994 19.586 72.9196 19.4941 72.9196H19.3781C19.2863 72.9196 19.2121 72.8452 19.2121 72.7535V70.342C19.2121 70.2502 19.1377 70.1758 19.046 70.1758H7.98167C7.88999 70.1756 7.81559 70.25 7.81559 70.3419Z" fill="#F5F5F5"/>
<path d="M16.2378 70.352V76.501C16.2378 76.5928 16.3122 76.6672 16.4039 76.6672H19.1168C19.2087 76.6672 19.2829 76.5928 19.2829 76.501V74.5957C19.2829 74.5039 19.2085 74.4295 19.1168 74.4295H18.5997C18.5079 74.4295 18.4336 74.3551 18.4336 74.2634V74.1522C18.4336 74.0592 18.5098 73.9844 18.6028 73.9861L19.114 73.9952C19.2069 73.9968 19.2831 73.9221 19.2831 73.8292V73.4336C19.2831 73.3418 19.3576 73.2674 19.4495 73.2676H19.4983C19.5914 73.2677 19.6664 73.1912 19.6647 73.0981L19.6637 73.0488C19.662 72.9599 19.5906 72.8882 19.5016 72.886L19.3744 72.8828C19.2844 72.8805 19.2124 72.8068 19.2124 72.7167V70.3428C19.2124 70.2508 19.1376 70.1762 19.0456 70.1765L16.4036 70.186C16.3119 70.1861 16.2378 70.2604 16.2378 70.352Z" fill="#E0E0E0"/>
<path d="M16.4547 74.1959C16.4547 74.2185 14.3796 74.2366 11.8206 74.2366C9.26059 74.2366 7.18604 74.2183 7.18604 74.1959C7.18604 74.1734 9.26059 74.1553 11.8206 74.1553C14.3796 74.1553 16.4547 74.1734 16.4547 74.1959Z" fill="#E0E0E0"/>
<path d="M16.4547 73.8226C16.4547 73.8452 14.3796 73.8634 11.8206 73.8634C9.26059 73.8634 7.18604 73.8452 7.18604 73.8226C7.18604 73.8002 9.26059 73.782 11.8206 73.782C14.3796 73.782 16.4547 73.8002 16.4547 73.8226Z" fill="#E0E0E0"/>
<path d="M17.0499 72.8182C17.0499 72.8408 14.9748 72.8589 12.4158 72.8589C9.85581 72.8589 7.78125 72.8406 7.78125 72.8182C7.78125 72.7957 9.85581 72.7776 12.4158 72.7776C14.9748 72.7776 17.0499 72.7958 17.0499 72.8182Z" fill="#E0E0E0"/>
<path d="M17.1072 75.5555C17.1072 75.5781 15.0321 75.5963 12.4729 75.5963C9.91294 75.5963 7.83838 75.5781 7.83838 75.5555C7.83838 75.5331 9.91294 75.5149 12.4729 75.5149C15.0321 75.5149 17.1072 75.5331 17.1072 75.5555Z" fill="#E0E0E0"/>
<path d="M8.97672 38.8173V42.1592C8.97672 42.251 8.90232 42.3254 8.81064 42.3254H8.52952C8.43768 42.3254 8.36328 42.3998 8.36328 42.4915V42.5579C8.36328 42.6498 8.43768 42.7242 8.52952 42.7242H8.81064C8.90232 42.7242 8.97672 42.7986 8.97672 42.8902V45.0171C8.97672 45.1088 9.05112 45.1832 9.14296 45.1832H20.278C20.3698 45.1832 20.4442 45.1088 20.4442 45.0171V43.1118C20.4442 43.0202 20.3698 42.9456 20.278 42.9456H19.7609C19.669 42.9456 19.5948 42.8712 19.5948 42.7795V42.6245C19.5948 42.5326 19.6692 42.4582 19.7609 42.4582H20.278C20.3698 42.4582 20.4442 42.3838 20.4442 42.2922V41.8934C20.4442 41.8016 20.5186 41.7272 20.6103 41.7272H20.6556C20.7474 41.7272 20.8217 41.6528 20.8217 41.5611C20.8217 41.4693 20.7473 41.3949 20.6556 41.3949H20.5396C20.4478 41.3949 20.3735 41.3205 20.3735 41.2286V38.8171C20.3735 38.7253 20.2991 38.6509 20.2073 38.6509H9.1428C9.05112 38.651 8.97672 38.7254 8.97672 38.8173Z" fill="#F5F5F5"/>
<path d="M17.3989 38.8271V44.9761C17.3989 45.0678 17.4733 45.1422 17.565 45.1422H20.278C20.3698 45.1422 20.4442 45.0678 20.4442 44.9761V43.0708C20.4442 42.979 20.3698 42.9046 20.278 42.9046H19.7608C19.669 42.9046 19.5948 42.8302 19.5948 42.7385V42.6273C19.5948 42.5343 19.6709 42.4595 19.7639 42.4612L20.2751 42.4703C20.368 42.4719 20.4442 42.3971 20.4442 42.3043V41.9087C20.4442 41.8169 20.5188 41.7425 20.6106 41.7425H20.6594C20.7525 41.7427 20.8276 41.6662 20.8258 41.5731L20.8248 41.5238C20.8231 41.4348 20.7517 41.3631 20.6628 41.3609L20.5354 41.3577C20.4453 41.3555 20.3733 41.2817 20.3733 41.1916V38.8177C20.3733 38.7257 20.2986 38.6511 20.2066 38.6516L17.5645 38.6611C17.473 38.6614 17.3989 38.7356 17.3989 38.8271Z" fill="#E0E0E0"/>
<path d="M17.6158 42.6714C17.6158 42.694 15.5408 42.7121 12.9817 42.7121C10.4217 42.7121 8.34717 42.6938 8.34717 42.6714C8.34717 42.6489 10.4217 42.6306 12.9817 42.6306C15.5408 42.6306 17.6158 42.649 17.6158 42.6714Z" fill="#E0E0E0"/>
<path d="M17.6158 42.298C17.6158 42.3205 15.5408 42.3388 12.9817 42.3388C10.4217 42.3388 8.34717 42.3205 8.34717 42.298C8.34717 42.2756 10.4217 42.2573 12.9817 42.2573C15.5408 42.2573 17.6158 42.2756 17.6158 42.298Z" fill="#E0E0E0"/>
<path d="M18.2112 41.2936C18.2112 41.3161 16.1361 41.3344 13.5769 41.3344C11.0169 41.3344 8.94238 41.3161 8.94238 41.2936C8.94238 41.271 11.0169 41.2529 13.5769 41.2529C16.1361 41.2529 18.2112 41.2712 18.2112 41.2936Z" fill="#E0E0E0"/>
<path d="M18.2686 44.0309C18.2686 44.0534 16.1936 44.0717 13.6346 44.0717C11.0746 44.0717 9 44.0534 9 44.0309C9 44.0085 11.0746 43.9902 13.6346 43.9902C16.1936 43.9902 18.2686 44.0085 18.2686 44.0309Z" fill="#E0E0E0"/>
<path d="M9.84212 45.1677V48.5096C9.84212 48.6015 9.76772 48.6759 9.67588 48.6759H9.39476C9.30292 48.6759 9.22852 48.7503 9.22852 48.8421V48.9085C9.22852 49.0003 9.30292 49.0747 9.39476 49.0747H9.67588C9.76772 49.0747 9.84212 49.1491 9.84212 49.241V51.3679C9.84212 51.4595 9.91652 51.5339 10.0084 51.5339H21.1434C21.2352 51.5339 21.3095 51.4595 21.3095 51.3679V49.4624C21.3095 49.3706 21.2351 49.2962 21.1434 49.2962H20.6263C20.5344 49.2962 20.4602 49.2218 20.4602 49.1301V48.9751C20.4602 48.8832 20.5346 48.8088 20.6263 48.8088H21.1434C21.2352 48.8088 21.3095 48.7344 21.3095 48.6427V48.244C21.3095 48.1522 21.3839 48.0778 21.4757 48.0778H21.521C21.6128 48.0778 21.6872 48.0034 21.6872 47.9117C21.6872 47.8199 21.6128 47.7455 21.521 47.7455H21.405C21.3132 47.7455 21.2388 47.6711 21.2388 47.5792V45.1677C21.2388 45.0759 21.1644 45.0015 21.0727 45.0015H10.0082C9.91652 45.0016 9.84212 45.076 9.84212 45.1677Z" fill="#F5F5F5"/>
<path d="M18.2642 45.1779V51.3268C18.2642 51.4185 18.3386 51.4929 18.4302 51.4929H21.1432C21.235 51.4929 21.3093 51.4185 21.3093 51.3268V49.4216C21.3093 49.3297 21.2349 49.2553 21.1432 49.2553H20.6261C20.5342 49.2553 20.46 49.1809 20.46 49.0891V48.9779C20.46 48.8849 20.5362 48.81 20.6291 48.8118L21.1403 48.8209C21.2333 48.8225 21.3094 48.7476 21.3094 48.6548V48.2593C21.3094 48.1675 21.384 48.0931 21.4758 48.0932H21.5246C21.6178 48.0934 21.6928 48.0169 21.691 47.9238L21.6901 47.8745C21.6883 47.7856 21.617 47.7139 21.528 47.7116L21.4006 47.7084C21.3106 47.7062 21.2386 47.6324 21.2386 47.5424V45.1684C21.2386 45.0764 21.1638 45.0019 21.0718 45.0022L18.4298 45.0116C18.3382 45.0121 18.2642 45.0864 18.2642 45.1779Z" fill="#E0E0E0"/>
<path d="M18.481 49.022C18.481 49.0446 16.406 49.0626 13.847 49.0626C11.287 49.0626 9.2124 49.0444 9.2124 49.022C9.2124 48.9996 11.287 48.9812 13.847 48.9812C16.406 48.9812 18.481 48.9994 18.481 49.022Z" fill="#E0E0E0"/>
<path d="M18.481 48.6485C18.481 48.6711 16.406 48.6894 13.847 48.6894C11.287 48.6894 9.2124 48.6711 9.2124 48.6485C9.2124 48.6261 11.287 48.6079 13.847 48.6079C16.406 48.6079 18.481 48.6261 18.481 48.6485Z" fill="#E0E0E0"/>
<path d="M19.0764 47.6442C19.0764 47.6667 17.0014 47.685 14.4422 47.685C11.8822 47.685 9.80762 47.6667 9.80762 47.6442C9.80762 47.6218 11.8822 47.6035 14.4422 47.6035C17.0014 47.6035 19.0764 47.6218 19.0764 47.6442Z" fill="#E0E0E0"/>
<path d="M19.1335 50.3815C19.1335 50.404 17.0585 50.4221 14.4993 50.4221C11.9393 50.4221 9.86475 50.4039 9.86475 50.3815C9.86475 50.3589 11.9393 50.3408 14.4993 50.3408C17.0585 50.3407 19.1335 50.3589 19.1335 50.3815Z" fill="#E0E0E0"/>
<path d="M8.83674 51.4329V54.7748C8.83674 54.8667 8.76234 54.9409 8.6705 54.9409H8.38938C8.29754 54.9409 8.22314 55.0153 8.22314 55.1072V55.1736C8.22314 55.2652 8.29754 55.3396 8.38938 55.3396H8.6705C8.76234 55.3396 8.83674 55.414 8.83674 55.5059V57.6328C8.83674 57.7244 8.91114 57.7988 9.00298 57.7988H20.138C20.2299 57.7988 20.3043 57.7244 20.3043 57.6328V55.7275C20.3043 55.6356 20.2299 55.5612 20.138 55.5612H19.6209C19.5291 55.5612 19.4547 55.4868 19.4547 55.395V55.24C19.4547 55.1483 19.5291 55.0739 19.6209 55.0739H20.138C20.2299 55.0739 20.3043 54.9995 20.3043 54.9076V54.5089C20.3043 54.4171 20.3787 54.3427 20.4703 54.3427H20.5155C20.6073 54.3427 20.6817 54.2683 20.6817 54.1764C20.6817 54.0846 20.6073 54.0104 20.5155 54.0104H20.3995C20.3076 54.0104 20.2334 53.936 20.2334 53.8441V51.4326C20.2334 51.3408 20.159 51.2664 20.0671 51.2664H9.00282C8.91114 51.2667 8.83674 51.3411 8.83674 51.4329Z" fill="#F5F5F5"/>
<path d="M17.2588 51.4429V57.5919C17.2588 57.6837 17.3332 57.7581 17.4249 57.7581H20.1378C20.2297 57.7581 20.3041 57.6837 20.3041 57.5919V55.6865C20.3041 55.5948 20.2297 55.5204 20.1378 55.5204H19.6207C19.5289 55.5204 19.4545 55.446 19.4545 55.3541V55.2429C19.4545 55.15 19.5306 55.0751 19.6236 55.0769L20.1348 55.086C20.2277 55.0876 20.3039 55.0127 20.3039 54.9199V54.5244C20.3039 54.4325 20.3785 54.3581 20.4703 54.3581H20.5191C20.6122 54.3583 20.6873 54.2818 20.6855 54.1887L20.6845 54.1394C20.6828 54.0505 20.6114 53.9788 20.5225 53.9765L20.3953 53.9733C20.3052 53.9711 20.2332 53.8973 20.2332 53.8073V51.4333C20.2332 51.3413 20.1585 51.2668 20.0665 51.2671L17.4244 51.2765C17.3329 51.277 17.2588 51.3514 17.2588 51.4429Z" fill="#E0E0E0"/>
<path d="M17.4758 55.287C17.4758 55.3095 15.4008 55.3278 12.8418 55.3278C10.2818 55.3278 8.20703 55.3095 8.20703 55.287C8.20703 55.2644 10.2816 55.2463 12.8418 55.2463C15.4008 55.2463 17.4758 55.2646 17.4758 55.287Z" fill="#E0E0E0"/>
<path d="M17.4758 54.9139C17.4758 54.9365 15.4008 54.9546 12.8418 54.9546C10.2818 54.9546 8.20703 54.9363 8.20703 54.9139C8.20703 54.8914 10.2816 54.8733 12.8418 54.8733C15.4008 54.8731 17.4758 54.8914 17.4758 54.9139Z" fill="#E0E0E0"/>
<path d="M18.0714 53.9093C18.0714 53.9319 15.9963 53.9499 13.4373 53.9499C10.8773 53.9499 8.80273 53.9317 8.80273 53.9093C8.80273 53.8869 10.8773 53.8687 13.4373 53.8687C15.9963 53.8687 18.0714 53.8869 18.0714 53.9093Z" fill="#E0E0E0"/>
<path d="M18.1282 56.6466C18.1282 56.6692 16.0531 56.6874 13.4939 56.6874C10.9339 56.6874 8.85938 56.6692 8.85938 56.6466C8.85938 56.6242 10.9339 56.606 13.4939 56.606C16.0531 56.606 18.1282 56.6242 18.1282 56.6466Z" fill="#E0E0E0"/>
<path d="M63.8248 9.95557H61.0684V18.5648H63.8248V9.95557Z" fill="#F5F5F5"/>
<path d="M67.9406 11.9224H65.1841V18.5651H67.9406V11.9224Z" fill="#F5F5F5"/>
<path d="M71.7511 14.6201H68.9946V18.5649H71.7511V14.6201Z" fill="#F5F5F5"/>
<path d="M113.82 76.8309C113.82 76.8539 89.7162 76.8725 59.9898 76.8725C30.2532 76.8725 6.15479 76.8538 6.15479 76.8309C6.15479 76.808 30.2532 76.7893 59.9898 76.7893C89.7162 76.7893 113.82 76.8079 113.82 76.8309Z" fill="#263238"/>
<path d="M95.7044 36.4379C95.6519 33.1581 98.2655 30.4467 101.53 30.3941C104.795 30.3414 107.494 32.967 107.546 36.2469C107.599 39.5267 104.985 42.2381 101.721 42.2907C98.4556 42.3434 95.7569 39.7178 95.7044 36.4379ZM104.456 36.2967C104.431 34.7285 103.141 33.473 101.58 33.4982C100.019 33.5234 98.7692 34.8198 98.7943 36.388C98.8194 37.9562 100.11 39.2117 101.671 39.1864C103.232 39.1613 104.482 37.865 104.456 36.2967Z" fill="#455A64"/>
<path d="M95.7044 36.4379C95.6519 33.1579 98.2654 30.4467 101.53 30.394L101.58 33.4982C100.019 33.5235 98.769 34.8198 98.7941 36.388C98.8193 37.9561 100.11 39.2115 101.671 39.1864L101.72 42.2905C98.4556 42.3433 95.7569 39.7177 95.7044 36.4379Z" fill="#5C93ED"/>
<path d="M100.999 29.9167C104.818 29.8551 107.865 32.8194 107.926 36.6566L104.311 36.7148C104.282 34.8801 102.886 33.725 101.06 33.7545L100.999 29.9167Z" fill="#263238"/>
<path d="M50.3187 14.1587C50.362 11.7374 48.4343 9.73935 46.0129 9.69599C43.5916 9.65264 41.5935 11.5804 41.5502 14.0017C41.5068 16.4231 43.4346 18.4211 45.8559 18.4645C48.2773 18.5078 50.2753 16.5801 50.3187 14.1587Z" fill="#5C93ED"/>
<g opacity="0.1">
<path d="M46.7632 9.77247C44.3846 9.31615 42.0867 10.8742 41.6304 13.253C41.6304 13.253 44.6305 13.9688 45.5923 12.8898C46.5542 11.8109 46.7632 9.77247 46.7632 9.77247Z" fill="white"/>
</g>
<path d="M49.1559 14.6259C48.809 16.434 47.0621 17.6185 45.2539 17.2716C43.4456 16.9247 42.2613 15.1779 42.6082 13.3697C42.9551 11.5615 44.7019 10.3769 46.5101 10.7239C48.3183 11.0708 49.5027 12.8177 49.1559 14.6259Z" fill="#5C93ED"/>
<g opacity="0.2">
<path d="M49.1559 14.6259C48.809 16.434 47.0621 17.6185 45.2539 17.2716C43.4456 16.9247 42.2613 15.1779 42.6082 13.3697C42.9551 11.5615 44.7019 10.3769 46.5101 10.7239C48.3183 11.0708 49.5027 12.8177 49.1559 14.6259Z" fill="black"/>
</g>
<path d="M49.2223 14.78C48.8801 16.5638 47.1567 17.7324 45.3729 17.3902C43.5889 17.048 42.4204 15.3244 42.7626 13.5406C43.1049 11.7568 44.8282 10.5881 46.6122 10.9304C48.3959 11.2726 49.5646 12.9961 49.2223 14.78Z" fill="#5C93ED"/>
<g opacity="0.2">
<path d="M49.2223 14.78C48.8801 16.5638 47.1567 17.7324 45.3729 17.3902C43.5889 17.048 42.4204 15.3244 42.7626 13.5406C43.1049 11.7568 44.8282 10.5881 46.6122 10.9304C48.3959 11.2726 49.5646 12.9961 49.2223 14.78Z" fill="white"/>
</g>
<path d="M46.1748 13.9052L46.3334 13.0789C46.3348 13.0791 46.3361 13.0794 46.3374 13.0797C46.4777 13.1239 46.619 13.1906 46.7546 13.2784C46.8652 13.3656 46.9354 13.4477 46.9354 13.4477L46.9513 13.4242L47.1359 13.1511L47.1783 13.0884L47.0607 12.9055L46.9838 12.9237C46.8206 12.7986 46.6282 12.6882 46.4183 12.636L46.5055 12.1816L46.3858 12.0405L46.3639 12.1546L46.1697 12.1173L46.0809 12.58C45.4305 12.5189 45.0575 12.8252 44.9774 13.2428C44.8682 13.8119 45.3271 14.0527 45.7604 14.2504L45.6033 15.0693C45.2975 14.981 45.0134 14.8032 44.8441 14.601L44.5806 14.9792C44.758 15.2044 45.1218 15.41 45.5185 15.5116L45.4527 15.8548L45.2924 15.8269L45.4314 15.9661L45.7671 16.0306L45.8551 15.572C46.5105 15.6298 46.8866 15.3285 46.9668 14.9109C47.0759 14.3412 46.6081 14.1028 46.1748 13.9052ZM45.8556 13.7548C45.6314 13.6396 45.4727 13.5157 45.5103 13.3192C45.5449 13.1391 45.6959 13.0152 45.9953 13.026L45.8556 13.7548ZM45.9407 15.1252L46.0798 14.4005C46.3121 14.5173 46.4742 14.646 46.4356 14.8466C46.4018 15.0226 46.2482 15.1375 45.9407 15.1252Z" fill="#5C93ED"/>
<g opacity="0.3">
<path d="M46.1748 13.9052L46.3334 13.0789C46.3348 13.0791 46.3361 13.0794 46.3374 13.0797C46.4777 13.1239 46.619 13.1906 46.7546 13.2784C46.8652 13.3656 46.9354 13.4477 46.9354 13.4477L46.9513 13.4242L47.1359 13.1511L47.1783 13.0884L47.0607 12.9055L46.9838 12.9237C46.8206 12.7986 46.6282 12.6882 46.4183 12.636L46.5055 12.1816L46.3858 12.0405L46.3639 12.1546L46.1697 12.1173L46.0809 12.58C45.4305 12.5189 45.0575 12.8252 44.9774 13.2428C44.8682 13.8119 45.3271 14.0527 45.7604 14.2504L45.6033 15.0693C45.2975 14.981 45.0134 14.8032 44.8441 14.601L44.5806 14.9792C44.758 15.2044 45.1218 15.41 45.5185 15.5116L45.4527 15.8548L45.2924 15.8269L45.4314 15.9661L45.7671 16.0306L45.8551 15.572C46.5105 15.6298 46.8866 15.3285 46.9668 14.9109C47.0759 14.3412 46.6081 14.1028 46.1748 13.9052ZM45.8556 13.7548C45.6314 13.6396 45.4727 13.5157 45.5103 13.3192C45.5449 13.1391 45.6959 13.0152 45.9953 13.026L45.8556 13.7548ZM45.9407 15.1252L46.0798 14.4005C46.3121 14.5173 46.4742 14.646 46.4356 14.8466C46.4018 15.0226 46.2482 15.1375 45.9407 15.1252Z" fill="black"/>
</g>
<path d="M45.7376 15.4324L45.6496 15.8911L45.3138 15.8267L45.401 15.3721C45.0045 15.2705 44.6405 15.0649 44.4629 14.8398L44.7264 14.4615C44.8957 14.6638 45.18 14.8414 45.4856 14.9299L45.6427 14.111C45.2094 13.9132 44.7504 13.6723 44.8597 13.1031C44.9399 12.6854 45.3128 12.3791 45.9632 12.4403L46.052 11.9775L46.3879 12.0419L46.3006 12.4964C46.6006 12.571 46.8902 12.7199 47.084 12.9057L46.8368 13.287C46.6442 13.1185 46.4282 13.0049 46.2158 12.9387L46.0571 13.7659C46.4904 13.9636 46.9584 14.202 46.8493 14.7711C46.7693 15.1889 46.393 15.4903 45.7376 15.4324ZM45.7381 13.6155L45.8779 12.8867C45.5786 12.8759 45.4275 12.9998 45.393 13.1799C45.355 13.3764 45.5139 13.5004 45.7381 13.6155ZM46.3183 14.7075C46.3568 14.5068 46.1946 14.3782 45.9623 14.2614L45.8232 14.9862C46.1309 14.9985 46.2845 14.8836 46.3183 14.7075Z" fill="#5C93ED"/>
<path d="M41.8819 15.396C41.8808 15.3963 41.8762 15.3835 41.8683 15.3589C41.8597 15.3307 41.8488 15.2949 41.8352 15.2504C41.8205 15.2033 41.804 15.1453 41.7898 15.0768C41.7749 15.0085 41.7544 14.931 41.7423 14.8437C41.7352 14.8 41.7277 14.7544 41.72 14.707C41.7126 14.6595 41.7091 14.6094 41.7034 14.5579C41.6901 14.4549 41.6872 14.344 41.6818 14.2275C41.6781 13.9942 41.6904 13.7373 41.7293 13.4707C41.7709 13.2043 41.835 12.9552 41.9075 12.7334C41.947 12.6237 41.9827 12.5185 42.0258 12.4241C42.0466 12.3766 42.0647 12.3299 42.0858 12.2865C42.1072 12.2435 42.1277 12.2022 42.1474 12.1625C42.1848 12.0827 42.2272 12.0149 42.2616 11.9539C42.2955 11.8926 42.3283 11.8421 42.3563 11.8014C42.3824 11.763 42.4035 11.732 42.42 11.7077C42.4349 11.6864 42.443 11.6757 42.444 11.6763C42.445 11.6769 42.4386 11.6889 42.4254 11.7113C42.4102 11.7365 42.3909 11.7686 42.3671 11.8083C42.3408 11.8499 42.3096 11.9011 42.2775 11.963C42.2448 12.0246 42.2039 12.0928 42.168 12.1729C42.1491 12.2126 42.1293 12.2541 42.1087 12.2971C42.0882 12.3405 42.0709 12.3872 42.0507 12.4345C42.009 12.5289 41.9746 12.6336 41.936 12.7429C41.8656 12.9637 41.8027 13.2112 41.7614 13.4755C41.7229 13.7403 41.7098 13.9952 41.7117 14.2269C41.7163 14.3427 41.7181 14.4528 41.7301 14.5553C41.7354 14.6065 41.7381 14.6565 41.7448 14.7038C41.7517 14.751 41.7584 14.7965 41.7648 14.84C41.7754 14.9272 41.7943 15.0043 41.8074 15.0728C41.8199 15.1414 41.8344 15.1997 41.8472 15.2472C41.8584 15.2921 41.8674 15.3286 41.8744 15.3571C41.8805 15.3821 41.883 15.3957 41.8819 15.396Z" fill="white"/>
<path d="M45.0739 13.4992C45.0715 13.5015 45.0325 13.4645 44.9969 13.3866C44.9614 13.3099 44.9349 13.1883 44.9643 13.0591C44.9941 12.9299 45.071 12.8319 45.1363 12.7784C45.2022 12.7237 45.2536 12.7074 45.2547 12.7106C45.2574 12.7155 45.2109 12.7391 45.1518 12.7957C45.0931 12.8512 45.024 12.9456 44.9961 13.0664C44.9686 13.1872 44.9897 13.3023 45.0184 13.3779C45.0467 13.4546 45.0785 13.496 45.0739 13.4992Z" fill="white"/>
<path d="M46.0456 12.3858C46.0368 12.3842 46.0411 12.3224 46.0553 12.248C46.0696 12.1736 46.0883 12.1147 46.0973 12.1165C46.1061 12.1183 46.1017 12.1799 46.0875 12.2543C46.0731 12.3285 46.0544 12.3875 46.0456 12.3858Z" fill="white"/>
<path d="M46.8222 10.6965C46.8216 10.6986 46.7843 10.69 46.7177 10.6722C46.6846 10.6629 46.644 10.6522 46.596 10.6425C46.5481 10.6324 46.4944 10.6183 46.4336 10.6093C46.3731 10.5985 46.3068 10.5869 46.235 10.5796C46.1635 10.5692 46.0865 10.565 46.0056 10.5589C45.8435 10.5514 45.6648 10.5529 45.4784 10.5705C45.292 10.5898 45.1164 10.6234 44.959 10.6626C44.8809 10.6844 44.806 10.7036 44.738 10.7279C44.6691 10.7492 44.6064 10.7735 44.5491 10.7961C44.4912 10.8169 44.4412 10.8412 44.3963 10.8605C44.3512 10.8794 44.3134 10.898 44.2827 10.9135C44.2209 10.9439 44.1862 10.9597 44.1851 10.9578C44.184 10.9559 44.2166 10.9362 44.2769 10.9021C44.3068 10.8847 44.344 10.8644 44.3886 10.8439C44.4329 10.8229 44.4827 10.797 44.5404 10.7746C44.5974 10.7506 44.6603 10.7249 44.7294 10.7021C44.7977 10.6765 44.8728 10.6562 44.9515 10.6335C45.1099 10.5924 45.287 10.5575 45.4752 10.538C45.6635 10.5202 45.844 10.5196 46.0073 10.5289C46.0889 10.5357 46.1665 10.541 46.2385 10.5527C46.3108 10.5613 46.3774 10.5743 46.438 10.5866C46.499 10.5972 46.5529 10.6129 46.6004 10.6247C46.6483 10.6362 46.6886 10.6487 46.7212 10.6599C46.787 10.6815 46.8228 10.6945 46.8222 10.6965Z" fill="white"/>
<path d="M45.6781 18.2634C45.6781 18.2656 45.6494 18.2677 45.5973 18.2695C45.5451 18.2717 45.4697 18.2708 45.3766 18.2653C45.1905 18.2549 44.9336 18.2189 44.6603 18.1372C44.3872 18.0546 44.1528 17.9428 43.992 17.8488C43.9113 17.802 43.8478 17.7612 43.8057 17.7304C43.7632 17.7002 43.7405 17.6826 43.7418 17.6808C43.743 17.6789 43.7683 17.693 43.8126 17.7197C43.8568 17.7471 43.9218 17.7845 44.0032 17.8285C44.1659 17.9168 44.3992 18.024 44.6697 18.1058C44.9403 18.1868 45.1941 18.2261 45.3785 18.2423C45.4707 18.2506 45.5458 18.2551 45.5976 18.2567C45.6493 18.2589 45.6781 18.2612 45.6781 18.2634Z" fill="white"/>
<path d="M46.9635 37.3778C47.3619 38.8145 46.5202 40.3022 45.0835 40.7004C43.6467 41.0988 42.1592 40.257 41.761 38.8204C41.3626 37.3836 42.2043 35.8962 43.6411 35.4978C45.0776 35.0993 46.5651 35.941 46.9635 37.3778Z" fill="#5C93ED"/>
<g opacity="0.1">
<path d="M43.6406 35.4976C42.2038 35.896 41.3622 37.3835 41.7604 38.8201C41.7604 38.8201 43.611 38.395 43.8467 37.5371C44.0823 36.679 43.6406 35.4976 43.6406 35.4976Z" fill="white"/>
</g>
<path d="M46.2867 37.521C46.5896 38.6131 45.9497 39.744 44.8574 40.0469C43.7651 40.3498 42.6344 39.7099 42.3315 38.6176C42.0286 37.5254 42.6685 36.3946 43.7608 36.0917C44.8531 35.789 45.9838 36.4288 46.2867 37.521Z" fill="#5C93ED"/>
<g opacity="0.2">
<path d="M46.2867 37.521C46.5896 38.6131 45.9497 39.744 44.8574 40.0469C43.7651 40.3498 42.6344 39.7099 42.3315 38.6176C42.0286 37.5254 42.6685 36.3946 43.7608 36.0917C44.8531 35.789 45.9838 36.4288 46.2867 37.521Z" fill="black"/>
</g>
<path d="M46.3653 37.588C46.6641 38.6654 46.0329 39.7811 44.9553 40.08C43.8777 40.3787 42.7621 39.7475 42.4633 38.6699C42.1645 37.5923 42.7957 36.4768 43.8733 36.1779C44.9509 35.879 46.0666 36.5104 46.3653 37.588Z" fill="#5C93ED"/>
<g opacity="0.2">
<path d="M46.3653 37.588C46.6641 38.6654 46.0329 39.7811 44.9553 40.08C43.8777 40.3787 42.7621 39.7475 42.4633 38.6699C42.1645 37.5923 42.7957 36.4768 43.8733 36.1779C44.9509 35.879 46.0666 36.5104 46.3653 37.588Z" fill="white"/>
</g>
<path d="M44.4453 37.9382L44.3069 37.439C44.3077 37.4387 44.3085 37.4385 44.3093 37.4384C44.3988 37.4243 44.4951 37.4225 44.5938 37.4339C44.6786 37.4518 44.7399 37.4779 44.7399 37.4779L44.7423 37.4606L44.7695 37.2595L44.7757 37.2132L44.6608 37.1444L44.6234 37.1756C44.4992 37.1513 44.3629 37.1428 44.2328 37.1715L44.1567 36.8969L44.052 36.8518L44.0711 36.9206L43.9538 36.9531L44.0312 37.2326C43.6557 37.3766 43.5338 37.6475 43.6037 37.8998C43.6991 38.2435 44.018 38.251 44.3111 38.2417L44.4482 38.7363C44.2554 38.771 44.0501 38.7508 43.9015 38.6854L43.8594 38.966C44.0188 39.0417 44.2757 39.0556 44.5223 39.0033L44.5797 39.2107L44.4836 39.2392L44.5983 39.2779L44.801 39.2217L44.7242 38.9448C45.1015 38.7976 45.2266 38.5284 45.1567 38.2763C45.0615 37.9324 44.7383 37.9288 44.4453 37.9382ZM44.228 37.9424C44.073 37.9401 43.9516 37.9152 43.9186 37.7964C43.8884 37.6876 43.938 37.578 44.106 37.5022L44.228 37.9424ZM44.6496 38.6752L44.5282 38.2374C44.6882 38.2384 44.8128 38.2651 44.8464 38.3862C44.8759 38.4926 44.8226 38.5979 44.6496 38.6752Z" fill="#5C93ED"/>
<g opacity="0.3">
<path d="M44.4453 37.9382L44.3069 37.439C44.3077 37.4387 44.3085 37.4385 44.3093 37.4384C44.3988 37.4243 44.4951 37.4225 44.5938 37.4339C44.6786 37.4518 44.7399 37.4779 44.7399 37.4779L44.7423 37.4606L44.7695 37.2595L44.7757 37.2132L44.6608 37.1444L44.6234 37.1756C44.4992 37.1513 44.3629 37.1428 44.2328 37.1715L44.1567 36.8969L44.052 36.8518L44.0711 36.9206L43.9538 36.9531L44.0312 37.2326C43.6557 37.3766 43.5338 37.6475 43.6037 37.8998C43.6991 38.2435 44.018 38.251 44.3111 38.2417L44.4482 38.7363C44.2554 38.771 44.0501 38.7508 43.9015 38.6854L43.8594 38.966C44.0188 39.0417 44.2757 39.0556 44.5223 39.0033L44.5797 39.2107L44.4836 39.2392L44.5983 39.2779L44.801 39.2217L44.7242 38.9448C45.1015 38.7976 45.2266 38.5284 45.1567 38.2763C45.0615 37.9324 44.7383 37.9288 44.4453 37.9382ZM44.228 37.9424C44.073 37.9401 43.9516 37.9152 43.9186 37.7964C43.8884 37.6876 43.938 37.578 44.106 37.5022L44.228 37.9424ZM44.6496 38.6752L44.5282 38.2374C44.6882 38.2384 44.8128 38.2651 44.8464 38.3862C44.8759 38.4926 44.8226 38.5979 44.6496 38.6752Z" fill="black"/>
</g>
<path d="M44.6215 38.9001L44.6983 39.1772L44.4954 39.2335L44.4192 38.9589C44.1727 39.0113 43.9157 38.9973 43.7564 38.9217L43.7984 38.641C43.9471 38.7063 44.1524 38.7266 44.3452 38.6917L44.208 38.197C43.9149 38.2065 43.5959 38.1989 43.5007 37.8551C43.4308 37.6028 43.5527 37.3319 43.9282 37.1879L43.8508 36.9084L44.0536 36.8521L44.1298 37.1266C44.3156 37.0858 44.5162 37.0887 44.6738 37.1383L44.6416 37.4162C44.4893 37.3759 44.3391 37.3722 44.2039 37.3937L44.3424 37.8933C44.6356 37.8841 44.9588 37.8876 45.0541 38.2314C45.124 38.4837 44.9989 38.7529 44.6215 38.9001ZM44.1252 37.8977L44.0031 37.4573C43.8351 37.5332 43.7855 37.6428 43.8157 37.7517C43.8487 37.8705 43.9701 37.8954 44.1252 37.8977ZM44.7437 38.3415C44.7101 38.2204 44.5855 38.1937 44.4255 38.1927L44.5469 38.6305C44.7199 38.5532 44.7732 38.4479 44.7437 38.3415Z" fill="#5C93ED"/>
<path d="M42.4847 39.9338C42.4842 39.9343 42.4781 39.9285 42.4669 39.917C42.4544 39.9039 42.4386 39.8871 42.4189 39.8663C42.398 39.8443 42.373 39.8168 42.3464 39.7829C42.3196 39.7493 42.2871 39.7122 42.2565 39.6672C42.2407 39.6452 42.2242 39.6219 42.2069 39.5979C42.1898 39.5738 42.1743 39.5471 42.157 39.5202C42.1216 39.4669 42.0896 39.4066 42.0548 39.3439C41.989 39.2162 41.9255 39.0711 41.8741 38.9133C41.8244 38.7551 41.7916 38.6 41.7709 38.4579C41.7628 38.3866 41.7536 38.3189 41.7516 38.2549C41.7501 38.2231 41.7472 38.1924 41.7471 38.1626C41.7471 38.133 41.7471 38.1045 41.7472 38.0773C41.7461 38.0231 41.7509 37.9741 41.7532 37.9309C41.7551 37.8879 41.7594 37.8509 41.7637 37.821C41.7676 37.7927 41.7708 37.7698 41.7732 37.7519C41.7756 37.736 41.7772 37.7279 41.7778 37.728C41.7784 37.7282 41.7783 37.7365 41.7772 37.7525C41.7757 37.7706 41.7738 37.7935 41.7714 37.822C41.7682 37.852 41.7652 37.8888 41.7642 37.9319C41.7629 37.9747 41.7591 38.0236 41.7612 38.0775C41.7615 38.1045 41.762 38.1328 41.7624 38.1623C41.7631 38.1917 41.7663 38.2223 41.768 38.254C41.7708 38.3175 41.7805 38.3845 41.789 38.4554C41.8104 38.5964 41.8436 38.7501 41.893 38.9072C41.944 39.0639 42.0064 39.208 42.0709 39.3352C42.105 39.3978 42.1362 39.4581 42.1709 39.5114C42.1879 39.5383 42.2029 39.565 42.2196 39.5893C42.2364 39.6135 42.2524 39.6367 42.2679 39.6589C42.2976 39.704 42.329 39.7415 42.3549 39.7757C42.3805 39.8101 42.4045 39.8383 42.4245 39.861C42.4429 39.8828 42.4578 39.9004 42.4695 39.9141C42.48 39.9266 42.4852 39.9333 42.4847 39.9338Z" fill="white"/>
<path d="M43.7273 38.0151C43.7267 38.0171 43.695 38.0073 43.6541 37.974C43.6136 37.9415 43.5656 37.8817 43.5465 37.8023C43.5277 37.723 43.5433 37.6479 43.5648 37.6006C43.5862 37.5524 43.6101 37.5294 43.6115 37.5308C43.6144 37.5327 43.595 37.5585 43.5779 37.6059C43.5606 37.6526 43.5483 37.7235 43.5661 37.7977C43.5838 37.8719 43.6269 37.9295 43.6635 37.9635C43.7001 37.9979 43.7289 38.0121 43.7273 38.0151Z" fill="white"/>
<path d="M43.9591 37.1353C43.9538 37.1367 43.9393 37.1015 43.927 37.0567C43.9145 37.0117 43.9087 36.9741 43.9142 36.9727C43.9194 36.9713 43.934 37.0065 43.9463 37.0514C43.9586 37.0962 43.9644 37.1338 43.9591 37.1353Z" fill="white"/>
<path d="M43.9254 35.9913C43.9256 35.9928 43.9027 35.9981 43.8611 36.0064C43.8403 36.0104 43.8149 36.0155 43.7859 36.0232C43.7568 36.0307 43.7232 36.0376 43.6872 36.0493C43.6509 36.0598 43.6112 36.0715 43.5694 36.0872C43.5272 36.1009 43.4835 36.1197 43.4373 36.1385C43.3457 36.1787 43.2477 36.2283 43.1496 36.2889C43.0521 36.3505 42.9645 36.4171 42.8883 36.4817C42.8512 36.5152 42.8152 36.5462 42.7843 36.5781C42.7521 36.6088 42.7241 36.6392 42.6987 36.6673C42.6725 36.6947 42.6515 36.7217 42.632 36.7446C42.6123 36.7673 42.5965 36.788 42.5838 36.8049C42.5581 36.8385 42.5432 36.8568 42.5421 36.8561C42.5409 36.8553 42.5536 36.8357 42.5774 36.8005C42.5891 36.7827 42.6041 36.7614 42.623 36.7377C42.6417 36.7141 42.6621 36.6862 42.6878 36.6581C42.7128 36.6293 42.7403 36.5979 42.7723 36.5665C42.803 36.5337 42.8389 36.5021 42.876 36.468C42.9521 36.4021 43.0403 36.3344 43.1387 36.2721C43.2377 36.2109 43.3371 36.1613 43.4297 36.1217C43.4766 36.1033 43.5209 36.0849 43.5638 36.0717C43.6061 36.0566 43.6464 36.0456 43.6832 36.0358C43.7197 36.0249 43.7537 36.019 43.7832 36.0125C43.8126 36.0057 43.8384 36.0016 43.8595 35.9989C43.9017 35.9926 43.9251 35.9899 43.9254 35.9913Z" fill="white"/>
<path d="M45.3626 40.4779C45.3633 40.4792 45.3479 40.4882 45.3197 40.5034C45.2916 40.5189 45.2497 40.5389 45.1969 40.5615C45.0914 40.6066 44.9397 40.657 44.7666 40.6866C44.5933 40.7157 44.4337 40.7181 44.3191 40.7103C44.2618 40.7064 44.2156 40.7013 44.1841 40.6959C44.1524 40.6907 44.1349 40.6874 44.1353 40.6859C44.1354 40.6845 44.1532 40.6855 44.185 40.688C44.2169 40.6911 44.2629 40.6939 44.3199 40.696C44.4338 40.7002 44.5917 40.6957 44.7633 40.6667C44.9346 40.6375 45.0853 40.5898 45.1916 40.5483C45.2447 40.5277 45.2873 40.5098 45.3164 40.4965C45.3455 40.4832 45.362 40.4767 45.3626 40.4779Z" fill="white"/>
<path d="M71.5893 33.6589C71.8594 34.6329 71.2887 35.6412 70.3149 35.9113C69.341 36.1813 68.3325 35.6106 68.0626 34.6367C67.7925 33.6628 68.3631 32.6545 69.3372 32.3844C70.3109 32.1143 71.3193 32.685 71.5893 33.6589Z" fill="#5C93ED"/>
<g opacity="0.1">
<path d="M69.3371 32.3843C68.3632 32.6544 67.7926 33.6627 68.0626 34.6366C68.0626 34.6366 69.3171 34.3484 69.4768 33.7668C69.6366 33.1852 69.3371 32.3843 69.3371 32.3843Z" fill="white"/>
</g>
<path d="M71.131 33.7558C71.3363 34.4963 70.9025 35.2629 70.1622 35.4681C69.4217 35.6734 68.6551 35.2397 68.4499 34.4993C68.2446 33.7589 68.6783 32.9923 69.4188 32.787C70.159 32.5817 70.9255 33.0155 71.131 33.7558Z" fill="#5C93ED"/>
<g opacity="0.2">
<path d="M71.131 33.7558C71.3363 34.4963 70.9025 35.2629 70.1622 35.4681C69.4217 35.6734 68.6551 35.2397 68.4499 34.4993C68.2446 33.7589 68.6783 32.9923 69.4188 32.787C70.159 32.5817 70.9255 33.0155 71.131 33.7558Z" fill="black"/>
</g>
<path d="M71.1841 33.8013C71.3867 34.5317 70.9587 35.288 70.2283 35.4905C69.4979 35.6931 68.7416 35.2651 68.539 34.5347C68.3365 33.8043 68.7645 33.048 69.4949 32.8454C70.2253 32.6429 70.9816 33.0709 71.1841 33.8013Z" fill="#5C93ED"/>
<g opacity="0.2">
<path d="M71.1841 33.8013C71.3867 34.5317 70.9587 35.288 70.2283 35.4905C69.4979 35.6931 68.7416 35.2651 68.539 34.5347C68.3365 33.8043 68.7645 33.048 69.4949 32.8454C70.2253 32.6429 70.9816 33.0709 71.1841 33.8013Z" fill="white"/>
</g>
<path d="M69.8826 34.0387L69.7889 33.7003C69.7894 33.7002 69.79 33.7 69.7905 33.6998C69.8511 33.6904 69.9164 33.6891 69.9833 33.6968C70.0407 33.709 70.0823 33.7266 70.0823 33.7266L70.0839 33.7149L70.1023 33.5786L70.1065 33.5472L70.0286 33.5006L70.0031 33.5218C69.919 33.5053 69.8265 33.4995 69.7383 33.5189L69.6868 33.3328L69.6159 33.3022L69.6289 33.349L69.5494 33.371L69.6018 33.5605C69.3473 33.6581 69.2646 33.8418 69.3121 34.0128C69.3767 34.2458 69.5929 34.2509 69.7916 34.2445L69.8846 34.5798C69.7538 34.6034 69.6146 34.5896 69.514 34.5454L69.4855 34.7357C69.5937 34.7869 69.7678 34.7965 69.9348 34.761L69.9737 34.9014L69.9086 34.9206L69.9863 34.9469L70.1238 34.9088L70.0718 34.721C70.3276 34.6211 70.4124 34.4387 70.3649 34.2678C70.3004 34.0347 70.0814 34.0323 69.8826 34.0387ZM69.7354 34.0416C69.6303 34.04 69.5479 34.0232 69.5257 33.9427C69.5052 33.869 69.5388 33.7947 69.6527 33.7432L69.7354 34.0416ZM70.0212 34.5382L69.939 34.2414C70.0474 34.2421 70.1319 34.2602 70.1546 34.3424C70.1746 34.4146 70.1385 34.4859 70.0212 34.5382Z" fill="#5C93ED"/>
<g opacity="0.3">
<path d="M69.8826 34.0387L69.7889 33.7003C69.7894 33.7002 69.79 33.7 69.7905 33.6998C69.8511 33.6904 69.9164 33.6891 69.9833 33.6968C70.0407 33.709 70.0823 33.7266 70.0823 33.7266L70.0839 33.7149L70.1023 33.5786L70.1065 33.5472L70.0286 33.5006L70.0031 33.5218C69.919 33.5053 69.8265 33.4995 69.7383 33.5189L69.6868 33.3328L69.6159 33.3022L69.6289 33.349L69.5494 33.371L69.6018 33.5605C69.3473 33.6581 69.2646 33.8418 69.3121 34.0128C69.3767 34.2458 69.5929 34.2509 69.7916 34.2445L69.8846 34.5798C69.7538 34.6034 69.6146 34.5896 69.514 34.5454L69.4855 34.7357C69.5937 34.7869 69.7678 34.7965 69.9348 34.761L69.9737 34.9014L69.9086 34.9206L69.9863 34.9469L70.1238 34.9088L70.0718 34.721C70.3276 34.6211 70.4124 34.4387 70.3649 34.2678C70.3004 34.0347 70.0814 34.0323 69.8826 34.0387ZM69.7354 34.0416C69.6303 34.04 69.5479 34.0232 69.5257 33.9427C69.5052 33.869 69.5388 33.7947 69.6527 33.7432L69.7354 34.0416ZM70.0212 34.5382L69.939 34.2414C70.0474 34.2421 70.1319 34.2602 70.1546 34.3424C70.1746 34.4146 70.1385 34.4859 70.0212 34.5382Z" fill="black"/>
</g>
<path d="M70.0024 34.6909L70.0545 34.8787L69.9171 34.9168L69.8654 34.7307C69.6984 34.7663 69.5241 34.7567 69.416 34.7055L69.4444 34.5152C69.5452 34.5595 69.6844 34.5733 69.8152 34.5496L69.7222 34.2143C69.5235 34.2207 69.3073 34.2155 69.2427 33.9826C69.1953 33.8115 69.2779 33.6279 69.5326 33.5303L69.4801 33.3408L69.6176 33.3027L69.6692 33.4888C69.7952 33.4611 69.9312 33.4632 70.038 33.4967L70.0163 33.6851C69.9131 33.6578 69.8112 33.6554 69.7195 33.6699L69.8134 34.0087C70.0121 34.0023 70.2313 34.0048 70.2958 34.2378C70.343 34.4087 70.2582 34.5911 70.0024 34.6909ZM69.6659 34.0114L69.5832 33.713C69.4692 33.7643 69.4356 33.8387 69.4561 33.9125C69.4784 33.993 69.5608 34.0098 69.6659 34.0114ZM70.0851 34.3122C70.0624 34.2299 69.9779 34.2119 69.8694 34.2114L69.9516 34.5082C70.0689 34.4557 70.1051 34.3843 70.0851 34.3122Z" fill="#5C93ED"/>
<path d="M68.5537 35.3917C68.5534 35.392 68.5492 35.3882 68.5417 35.3803C68.5332 35.3714 68.5225 35.36 68.5092 35.3459C68.495 35.331 68.478 35.3125 68.4601 35.2894C68.4418 35.2666 68.4199 35.2414 68.3991 35.211C68.3884 35.196 68.3772 35.1803 68.3655 35.164C68.354 35.1475 68.3434 35.1294 68.3316 35.1114C68.3076 35.0754 68.286 35.0344 68.2623 34.9918C68.2177 34.9053 68.1746 34.8069 68.1399 34.7C68.1062 34.5926 68.0839 34.4877 68.07 34.3912C68.0646 34.3429 68.0583 34.297 68.0569 34.2536C68.0559 34.232 68.054 34.2112 68.0538 34.191C68.0538 34.171 68.0538 34.1517 68.0538 34.1333C68.053 34.0965 68.0564 34.0632 68.0578 34.0341C68.0591 34.0048 68.062 33.9798 68.065 33.9595C68.0676 33.9403 68.0698 33.9248 68.0714 33.9126C68.073 33.9019 68.0742 33.8963 68.0746 33.8965C68.0751 33.8966 68.075 33.9022 68.0742 33.9131C68.0732 33.9253 68.0719 33.941 68.0703 33.9602C68.0682 33.9805 68.066 34.0054 68.0655 34.0346C68.0647 34.0637 68.062 34.0966 68.0634 34.1333C68.0638 34.1517 68.0639 34.1707 68.0642 34.1907C68.0647 34.2107 68.0668 34.2314 68.0681 34.2528C68.07 34.2958 68.0766 34.3413 68.0823 34.3894C68.0969 34.485 68.1193 34.5893 68.1527 34.6957C68.1873 34.8018 68.2297 34.8995 68.2734 34.9859C68.2966 35.0283 68.3177 35.0693 68.341 35.1053C68.3526 35.1235 68.3628 35.1416 68.374 35.1581C68.3854 35.1744 68.3962 35.1902 68.4066 35.2053C68.4268 35.2358 68.4481 35.2613 68.4657 35.2845C68.4831 35.3078 68.4993 35.3269 68.5129 35.3422C68.5254 35.357 68.5354 35.369 68.5434 35.3782C68.5505 35.3867 68.554 35.3914 68.5537 35.3917Z" fill="white"/>
<path d="M69.3959 34.0911C69.3954 34.0923 69.374 34.0858 69.3463 34.0632C69.3188 34.0411 69.2863 34.0007 69.2733 33.9469C69.2605 33.8931 69.2711 33.8421 69.2856 33.8101C69.3002 33.7775 69.3164 33.7618 69.3173 33.7627C69.3192 33.764 69.3061 33.7815 69.2946 33.8136C69.2829 33.8453 69.2746 33.8933 69.2866 33.9437C69.2988 33.9939 69.3279 34.0331 69.3527 34.056C69.3773 34.0794 69.397 34.089 69.3959 34.0911Z" fill="white"/>
<path d="M69.553 33.4945C69.5493 33.4955 69.5396 33.4717 69.5311 33.4413C69.5226 33.4109 69.5188 33.3853 69.5223 33.3843C69.5258 33.3833 69.5357 33.4072 69.5442 33.4376C69.5527 33.468 69.5567 33.4934 69.553 33.4945Z" fill="white"/>
<path d="M69.5301 32.719C69.5303 32.72 69.5147 32.7235 69.4866 32.7292C69.4725 32.732 69.4552 32.7355 69.4355 32.7408C69.4159 32.7459 69.3931 32.7505 69.3687 32.7585C69.344 32.7657 69.3171 32.7736 69.2888 32.7841C69.2602 32.7934 69.2306 32.8062 69.1992 32.8188C69.1371 32.846 69.0707 32.8796 69.0042 32.9208C68.9381 32.9625 68.8787 33.0076 68.8271 33.0515C68.8019 33.074 68.7775 33.0952 68.7565 33.1168C68.7346 33.1376 68.7157 33.1582 68.6984 33.1772C68.6807 33.1958 68.6664 33.214 68.6533 33.2296C68.64 33.2449 68.6293 33.2588 68.6207 33.2704C68.6032 33.2932 68.5931 33.3056 68.5923 33.3051C68.5915 33.3046 68.6002 33.2912 68.6163 33.2673C68.6243 33.2553 68.6344 33.2408 68.6472 33.2249C68.6599 33.2089 68.6738 33.1899 68.6912 33.1708C68.708 33.1513 68.7267 33.13 68.7485 33.1088C68.7693 33.0865 68.7936 33.0651 68.8187 33.0419C68.8704 32.9971 68.9301 32.9513 68.9968 32.9091C69.0639 32.8675 69.1314 32.8339 69.1941 32.8072C69.2259 32.7947 69.2559 32.7822 69.285 32.7732C69.3136 32.7632 69.3408 32.7556 69.3658 32.7489C69.3906 32.7416 69.4136 32.7374 69.4336 32.7331C69.4536 32.7284 69.4711 32.7257 69.4853 32.7238C69.5143 32.72 69.5301 32.718 69.5301 32.719Z" fill="white"/>
<path d="M70.5044 35.7606C70.5048 35.7614 70.4944 35.7675 70.4752 35.7779C70.4562 35.7885 70.4277 35.8021 70.392 35.8173C70.3205 35.8478 70.2178 35.8821 70.1004 35.9021C69.9829 35.9217 69.8746 35.9233 69.797 35.9181C69.7581 35.9155 69.7269 35.912 69.7055 35.9083C69.684 35.9049 69.6722 35.9025 69.6724 35.9016C69.6725 35.9006 69.6845 35.9013 69.7061 35.903C69.7277 35.9051 69.7589 35.907 69.7976 35.9085C69.8748 35.9113 69.982 35.9081 70.0983 35.8886C70.2144 35.8688 70.3167 35.8365 70.3885 35.8083C70.4245 35.7944 70.4535 35.7821 70.4732 35.7731C70.4927 35.7643 70.5039 35.7597 70.5044 35.7606Z" fill="white"/>
<path d="M63.6496 54.0596H53.1123V76.7492H63.6496V54.0596Z" fill="#5C93ED"/>
<g opacity="0.3">
<path d="M63.6497 54.0596H60.3833V76.7492H63.6497V54.0596Z" fill="black"/>
</g>
<path d="M60.383 76.7491C60.3584 76.7491 60.3384 71.7269 60.3384 65.533C60.3384 59.337 60.3584 54.3157 60.383 54.3157C60.4077 54.3157 60.4277 59.337 60.4277 65.533C60.4277 71.7269 60.4077 76.7491 60.383 76.7491Z" fill="#263238"/>
<path d="M50.7892 46.0605H40.252V76.7492H50.7892V46.0605Z" fill="#5C93ED"/>
<g opacity="0.3">
<path d="M50.7894 46.0605H47.5229V76.7492H50.7894V46.0605Z" fill="black"/>
</g>
<path d="M47.5227 76.7492C47.498 76.7492 47.478 69.9563 47.478 61.5788C47.478 53.1983 47.498 46.407 47.5227 46.407C47.5473 46.407 47.5673 53.1985 47.5673 61.5788C47.5673 69.9564 47.5473 76.7492 47.5227 76.7492Z" fill="#263238"/>
<path d="M76.6501 60.6648H66.1128V76.7491H76.6501V60.6648Z" fill="#5C93ED"/>
<g opacity="0.3">
<path d="M76.6502 60.6648H73.3838V76.7491H76.6502V60.6648Z" fill="black"/>
</g>
<path d="M73.3835 76.7491C73.3589 76.7491 73.3389 73.1889 73.3389 68.798C73.3389 64.4057 73.3589 60.8462 73.3835 60.8462C73.4081 60.8462 73.4281 64.4057 73.4281 68.798C73.4281 73.1889 73.4081 76.7491 73.3835 76.7491Z" fill="#263238"/>
<path d="M89.3698 67.9727H78.8325V76.7491H89.3698V67.9727Z" fill="#5C93ED"/>
<g opacity="0.3">
<path d="M89.3699 67.9727H86.1035V76.7491H89.3699V67.9727Z" fill="black"/>
</g>
<path d="M86.1032 76.7492C86.0786 76.7492 86.0586 74.8065 86.0586 72.4107C86.0586 70.014 86.0786 68.0718 86.1032 68.0718C86.1279 68.0718 86.1479 70.014 86.1479 72.4107C86.1479 74.8067 86.1279 76.7492 86.1032 76.7492Z" fill="#263238"/>
<path d="M102.23 71.0095H91.6929V76.7492H102.23V71.0095Z" fill="#5C93ED"/>
<g opacity="0.3">
<path d="M102.23 71.0095H98.9639V76.7492H102.23V71.0095Z" fill="black"/>
</g>
<path d="M98.9636 76.7491C98.9389 76.7491 98.9189 75.4787 98.9189 73.9118C98.9189 72.3445 98.9389 71.0742 98.9636 71.0742C98.9882 71.0742 99.0082 72.3445 99.0082 73.9118C99.0082 75.4787 98.9882 76.7491 98.9636 76.7491Z" fill="#263238"/>
<path d="M37.9289 35.9719H27.3916V76.7434H37.9289V35.9719Z" fill="#5C93ED"/>
<g opacity="0.3">
<path d="M37.929 35.9719H34.6626V76.7434H37.929V35.9719Z" fill="black"/>
</g>
<path d="M34.6623 76.9092C34.6377 76.9092 34.6177 67.8475 34.6177 56.6716C34.6177 45.492 34.6377 36.4321 34.6623 36.4321C34.687 36.4321 34.707 45.492 34.707 56.6716C34.707 67.8475 34.687 76.9092 34.6623 76.9092Z" fill="#263238"/>
<path d="M25.0685 27.6968H14.5312V76.9093H25.0685V27.6968Z" fill="#5C93ED"/>
<g opacity="0.3">
<path d="M25.0686 27.6968H21.8022V76.9093H25.0686V27.6968Z" fill="black"/>
</g>
<path d="M21.802 76.909C21.7773 76.909 21.7573 66.0159 21.7573 52.5818C21.7573 39.1429 21.7773 28.2522 21.802 28.2522C21.8266 28.2522 21.8466 39.1429 21.8466 52.5818C21.8466 66.016 21.8266 76.909 21.802 76.909Z" fill="#263238"/>
<path d="M22.8935 23.3315C25.9566 21.2579 26.7588 17.0937 24.6851 14.0306C22.6115 10.9675 18.4473 10.1653 15.3842 12.239C12.321 14.3126 11.5189 18.4768 13.5926 21.5399C15.6662 24.6031 19.8304 25.4052 22.8935 23.3315Z" fill="#5C93ED"/>
<path opacity="0.3" d="M22.8935 23.3315C25.9566 21.2579 26.7588 17.0937 24.6851 14.0306C22.6115 10.9675 18.4473 10.1653 15.3842 12.239C12.321 14.3126 11.5189 18.4768 13.5926 21.5399C15.6662 24.6031 19.8304 25.4052 22.8935 23.3315Z" fill="black"/>
<path d="M22.8935 22.5916C25.9566 20.5179 26.7588 16.3537 24.6851 13.2906C22.6115 10.2275 18.4473 9.42534 15.3842 11.499C12.321 13.5726 11.5189 17.7368 13.5926 20.7999C15.6662 23.8631 19.8304 24.6652 22.8935 22.5916Z" fill="#5C93ED"/>
<path d="M19.1386 21.5303C21.6163 21.5303 23.6248 19.5218 23.6248 17.0441C23.6248 14.5664 21.6163 12.5579 19.1386 12.5579C16.6609 12.5579 14.6523 14.5664 14.6523 17.0441C14.6523 19.5218 16.6609 21.5303 19.1386 21.5303Z" fill="white"/>
<path d="M20.6907 18.5965C21.548 17.7392 21.548 16.3492 20.6907 15.4919C19.8334 14.6345 18.4434 14.6345 17.586 15.4919C16.7287 16.3492 16.7287 17.7392 17.586 18.5965C18.4434 19.4539 19.8334 19.4539 20.6907 18.5965Z" fill="#5C93ED"/>
<path d="M24.5234 11.3733L24.3413 9.94434L25.7959 8.3877L25.9005 9.92978L24.5234 11.3733Z" fill="#455A64"/>
<path d="M27.6455 10.2362L26.17 10.1162L24.6909 11.5389L26.1703 11.6972L27.6455 10.2362Z" fill="#455A64"/>
<path opacity="0.3" d="M19.4321 17.0122L24.5534 13.1024C24.3795 12.8426 24.1584 12.5816 23.9125 12.3203L19.4321 16.664V17.0122Z" fill="black"/>
<path d="M26.0339 9.54701C25.2507 10.3406 24.4677 11.1341 23.6845 11.9277C22.4421 13.1865 21.1997 14.4454 19.9573 15.7043C19.6717 15.9937 19.3861 16.283 19.1005 16.5725C18.829 16.8475 19.253 17.2721 19.5248 16.9968C20.308 16.2032 21.091 15.4097 21.8742 14.6161C23.1166 13.3573 24.359 12.0984 25.6014 10.8395C25.887 10.5501 26.1726 10.2608 26.4582 9.97133C26.7296 9.69629 26.3056 9.27165 26.0339 9.54701Z" fill="#263238"/>
<path d="M19.1388 8.64033C19.1157 8.64033 19.0972 7.35873 19.0972 5.77809C19.0972 4.19697 19.1159 2.91553 19.1388 2.91553C19.1618 2.91553 19.1804 4.19697 19.1804 5.77809C19.1804 7.35873 19.1618 8.64033 19.1388 8.64033Z" fill="#263238"/>
<path d="M23.4638 5.65354C23.4822 5.6673 23.0246 6.31003 22.4415 7.08875C21.8585 7.86778 21.371 8.48795 21.3526 8.47419C21.3342 8.46043 21.7918 7.81787 22.3748 7.03883C22.9579 6.25995 23.4454 5.63978 23.4638 5.65354Z" fill="#263238"/>
<path d="M14.762 5.52137C14.7822 5.51033 15.1795 6.19193 15.6492 7.04361C16.1191 7.89577 16.4836 8.59529 16.4635 8.60633C16.4433 8.61737 16.0462 7.93593 15.5763 7.08393C15.1063 6.23225 14.7419 5.53241 14.762 5.52137Z" fill="#263238"/>
<path d="M86.249 23.0743L87.5269 22.9251C88.0418 23.448 88.7031 23.8397 89.4681 24.0277C91.6681 24.5683 93.8897 23.2232 94.4303 21.0234C94.9709 18.8234 93.6258 16.6018 91.426 16.0611C89.2261 15.5205 87.0044 16.8656 86.4637 19.0654C86.238 19.984 86.342 20.9059 86.6988 21.7082L86.6973 21.7064L86.249 23.0743Z" fill="white"/>
<path d="M86.249 23.0742C86.249 23.0742 86.2562 23.0465 86.274 22.9887C86.2933 22.9267 86.3201 22.8404 86.3548 22.7287C86.4297 22.4919 86.5385 22.1475 86.6796 21.7006L86.6897 21.6686L86.7113 21.6947C86.7113 21.6947 86.7122 21.6958 86.7127 21.6964L86.6815 21.7156C86.4604 21.2243 86.265 20.5305 86.3311 19.7057C86.3602 19.2951 86.4642 18.8579 86.6485 18.4241C86.8317 17.9903 87.1017 17.5599 87.4653 17.1807C87.8279 16.8017 88.2833 16.4747 88.8079 16.2476C89.3316 16.0201 89.9247 15.8937 90.5364 15.9055C91.7578 15.9175 93.0487 16.5446 93.8226 17.6481C94.2141 18.2091 94.4751 18.8518 94.5514 19.5063C94.6353 20.1593 94.5601 20.8137 94.3577 21.403C94.157 21.9943 93.8172 22.5126 93.4119 22.9278C93.0052 23.3436 92.5279 23.6551 92.0365 23.8588C91.0481 24.2678 90.0295 24.2431 89.2457 23.9947C88.4519 23.7507 87.8812 23.3163 87.514 22.9377L87.5285 22.9428C87.1127 22.9865 86.7917 23.0203 86.5701 23.0436C86.4665 23.054 86.386 23.0622 86.3279 23.0679C86.2745 23.0729 86.249 23.0742 86.249 23.0742C86.249 23.0742 86.2793 23.0689 86.3351 23.0614C86.3943 23.0535 86.4761 23.0427 86.5815 23.0287C86.7996 23.0007 87.1154 22.9601 87.5247 22.9076L87.533 22.9065L87.5393 22.9127C87.9084 23.2833 88.4767 23.707 89.2617 23.9422C90.0372 24.1819 91.0396 24.1999 92.0098 23.7942C92.4921 23.5919 92.9597 23.2844 93.358 22.875C93.7548 22.4662 94.0869 21.9572 94.2825 21.3767C94.4801 20.7982 94.5527 20.1567 94.47 19.5171C94.3946 18.8756 94.1385 18.246 93.7549 17.6964C92.9964 16.6153 91.7329 15.9996 90.5348 15.9855C89.9349 15.9729 89.353 16.0955 88.8381 16.3174C88.3225 16.5388 87.874 16.8585 87.5162 17.2297C87.1573 17.6009 86.8898 18.023 86.7073 18.4491C86.5236 18.8753 86.4181 19.3055 86.3868 19.7105C86.3161 20.5236 86.5025 21.211 86.7154 21.7009L86.7692 21.8247L86.6842 21.7201C86.6837 21.7195 86.6828 21.7183 86.6828 21.7183L86.7145 21.7124C86.5657 22.1508 86.4508 22.4884 86.3719 22.7207C86.333 22.8335 86.3031 22.9206 86.2815 22.9833C86.2613 23.0423 86.249 23.0742 86.249 23.0742Z" fill="#263238"/>
<path d="M88.4292 20.2002L88.9345 19.6594L89.9738 20.5218L91.8892 18.5488L92.3927 19.0554L89.9334 21.5331L88.4292 20.2002Z" fill="#5C93ED"/>
<path d="M68.0115 25.8941C67.7189 25.5688 67.3312 25.2672 67.2345 25.2075C67.0509 25.0942 66.7683 25.0299 66.7683 25.0299C66.7683 25.0299 64.3894 24.3736 63.8893 24.3293C63.3891 24.285 63.4398 24.6938 63.9048 24.7707C64.3697 24.8477 65.3574 25.2477 65.3574 25.2477C65.3574 25.2477 65.1531 25.2827 65.1392 25.4942C65.1251 25.7056 65.2723 25.7512 65.2723 25.7512C65.2723 25.7512 65.1413 25.9213 65.1409 26.0342C65.1406 26.1472 65.2558 26.3123 65.2558 26.3123C65.2558 26.3123 65.0829 26.453 65.1377 26.6112C65.1925 26.7694 65.4377 26.9917 65.4377 26.9917C65.4377 26.9917 66.4549 27.6349 66.6739 27.6526C66.8931 27.6704 67.1472 27.7186 67.1472 27.7186L67.5051 27.9774L68.4651 26.4712C68.4649 26.4715 68.3222 26.2394 68.0115 25.8941Z" fill="#FFBF9D"/>
<path d="M65.356 25.2383C65.3542 25.2455 65.4462 25.2703 65.5613 25.2937C65.6763 25.317 65.7709 25.3301 65.7726 25.3229C65.7744 25.3157 65.6824 25.2909 65.5673 25.2676C65.4523 25.2442 65.3577 25.2311 65.356 25.2383Z" fill="#FF9A6C"/>
<path d="M65.2564 25.7479C65.2546 25.7552 65.3453 25.7804 65.4559 25.8136C65.5666 25.8466 65.6561 25.8751 65.6597 25.8682C65.6633 25.8618 65.5781 25.8218 65.4655 25.7884C65.353 25.7548 65.258 25.7408 65.2564 25.7479Z" fill="#FF9A6C"/>
<path d="M65.1988 26.2303C65.1959 26.2375 65.2946 26.2741 65.4138 26.3236C65.533 26.3727 65.6281 26.4161 65.6327 26.4097C65.6372 26.4037 65.5482 26.3495 65.4271 26.2996C65.3062 26.2495 65.2014 26.2236 65.1988 26.2303Z" fill="#FF9A6C"/>
<path d="M85.6605 49.3479C85.6605 49.3479 85.2373 45.4617 84.3273 45.0297C83.4173 44.5975 82.1559 44.3141 81.8117 44.8957C81.4676 45.4773 81.1095 46.3538 80.9722 47.2836C80.8349 48.2133 80.9135 49.6341 80.9135 49.6341L81.9504 49.5186C81.9504 49.5186 81.8996 45.6457 82.2146 45.073C82.5296 44.5004 84.1268 44.9605 84.3016 45.6503C84.4765 46.3401 84.86 49.4354 84.86 49.4354L85.6605 49.3479Z" fill="#455A64"/>
<path d="M89.2726 54.8265C89.2241 53.2231 89.0707 49.6895 89.0022 48.1353C88.9835 47.7114 88.6333 47.3785 88.2089 47.3809L78.6769 47.438C78.2515 47.4406 77.9048 47.7798 77.8928 48.2049L77.7064 54.7878C77.6939 55.231 78.0488 55.5975 78.4921 55.5994L88.4806 55.6399C88.9272 55.6417 89.2862 55.273 89.2726 54.8265Z" fill="#455A64"/>
<path d="M78.555 49.8534C78.555 49.8534 78.5535 49.8765 78.5532 49.924C78.5531 49.9746 78.5529 50.0451 78.5527 50.1363C78.5534 50.3272 78.5542 50.6037 78.5553 50.9582C78.5596 51.6792 78.5659 52.7174 78.5734 53.9992C78.574 54.0797 78.5747 54.161 78.5753 54.2432C78.5721 54.3248 78.5859 54.4189 78.6311 54.4957C78.6755 54.573 78.7438 54.6386 78.8276 54.6757C78.9102 54.7173 79.0091 54.7166 79.0932 54.7147C79.4428 54.7142 79.8065 54.7139 80.1831 54.7134C80.9364 54.7122 81.7412 54.7107 82.5879 54.7093C83.4348 54.7074 84.3238 54.7053 85.2452 54.703C85.706 54.7018 86.175 54.7005 86.6508 54.6992C86.8887 54.6986 87.1284 54.6978 87.3697 54.6971L87.551 54.6965C87.6095 54.6952 87.6735 54.701 87.7399 54.6846C87.8689 54.655 87.983 54.5642 88.0383 54.4427C88.0627 54.391 88.0764 54.3346 88.0791 54.2778C88.0809 54.2206 88.0777 54.1718 88.0772 54.1186C88.075 54.0142 88.0727 53.9101 88.0707 53.8062C88.0662 53.5986 88.0619 53.3923 88.0575 53.1872C88.0487 52.7771 88.0401 52.3725 88.0316 51.9742C88.0143 51.1779 87.9975 50.4075 87.9815 49.672L87.9807 49.637L87.9459 49.639C85.2071 49.8059 82.8579 49.8515 81.1953 49.8589C80.3638 49.8627 79.7039 49.8584 79.2518 49.8549C79.0267 49.8536 78.8523 49.8525 78.731 49.8518C78.6747 49.8518 78.631 49.852 78.5987 49.852C78.5689 49.8525 78.5543 49.8528 78.555 49.8534C78.5556 49.8541 78.5716 49.855 78.6022 49.8565C78.6351 49.8578 78.6795 49.8595 78.7366 49.8618C78.8564 49.8654 79.0287 49.8706 79.2511 49.8773C79.7033 49.8878 80.3633 49.8986 81.195 49.9006C82.8583 49.9051 85.2091 49.8685 87.9495 49.7064L87.914 49.6736C87.9291 50.4091 87.9447 51.1795 87.9609 51.976C87.9692 52.3742 87.9775 52.7789 87.986 53.189C87.9903 53.3939 87.9947 53.6003 87.999 53.808C88.0012 53.9118 88.0033 54.0158 88.0055 54.1203C88.0073 54.2272 88.0182 54.3264 87.9734 54.4128C87.9271 54.5146 87.8313 54.5907 87.7236 54.6155C87.6715 54.6293 87.6126 54.6245 87.5505 54.6256L87.3692 54.6262C87.1279 54.627 86.8883 54.6278 86.6503 54.6286C86.1745 54.6302 85.7055 54.632 85.2447 54.6336C84.3233 54.6371 83.4343 54.6406 82.5875 54.644C81.7407 54.6478 80.9359 54.6514 80.1827 54.6547C79.8062 54.6566 79.4425 54.6584 79.0927 54.6602C79.0033 54.6622 78.9233 54.663 78.8497 54.627C78.7764 54.5949 78.7161 54.5376 78.6769 54.4701C78.6369 54.4006 78.6246 54.3254 78.6268 54.2435C78.6257 54.1619 78.6247 54.0813 78.6236 54.0014C78.6044 52.7256 78.5889 51.692 78.578 50.9742C78.5716 50.6171 78.5667 50.3386 78.5631 50.1464C78.5611 50.0534 78.5593 49.9813 78.5582 49.9296C78.5571 49.88 78.555 49.8534 78.555 49.8534Z" fill="#263238"/>
<path d="M81.2941 54.0825C81.2942 54.0777 81.2354 54.0814 81.1274 54.0598C81.0219 54.0355 80.8616 53.9795 80.7146 53.8315C80.5666 53.6856 80.457 53.4385 80.4824 53.1385C80.4813 52.8387 80.4798 52.4984 80.4784 52.1227C80.4774 51.9344 80.4763 51.7373 80.4754 51.532C80.4624 51.3286 80.5099 51.1187 80.645 50.9493C80.7752 50.7801 80.9842 50.6633 81.2112 50.6486C81.4427 50.6417 81.6883 50.6438 81.9363 50.6409C82.932 50.6328 84.0258 50.6237 85.1741 50.6142C85.4498 50.6112 85.7173 50.7609 85.8538 50.9928C85.9251 51.1064 85.9619 51.2384 85.9677 51.3697C85.9694 51.507 85.9712 51.6433 85.973 51.7784C85.9757 52.0493 85.9784 52.3152 85.9811 52.5757C85.9824 52.7059 85.9838 52.8349 85.9853 52.9622C85.9843 53.0889 85.9946 53.2182 85.9795 53.3347C85.9488 53.5728 85.8032 53.783 85.609 53.8998C85.5123 53.9592 85.4045 53.9966 85.2952 54.0102C85.1875 54.0214 85.0707 54.0165 84.9613 54.0197C84.519 54.0253 84.1069 54.0305 83.7301 54.0352C82.981 54.0467 82.3733 54.0561 81.9475 54.0629C81.7408 54.0677 81.5786 54.0713 81.4629 54.0739C81.4107 54.0758 81.3691 54.0774 81.3368 54.0785C81.3086 54.08 81.2941 54.0813 81.2941 54.0825C81.2941 54.0838 81.3086 54.0849 81.337 54.0857C81.3693 54.0864 81.4109 54.0872 81.463 54.0881C81.5787 54.0886 81.7411 54.0894 81.9478 54.0904C82.3738 54.0893 82.9816 54.0875 83.7307 54.0854C84.1075 54.0833 84.5197 54.0811 84.9619 54.0785C85.0736 54.0758 85.1826 54.0821 85.3026 54.0705C85.4203 54.0565 85.537 54.0168 85.6416 53.9531C85.8517 53.828 86.0104 53.6016 86.0446 53.3435C86.0613 53.2128 86.0506 53.0891 86.0523 52.9613C86.0514 52.8339 86.0504 52.7049 86.0494 52.5747C86.0474 52.3142 86.0453 52.0481 86.043 51.7774C86.0414 51.6417 86.0398 51.5048 86.0382 51.3667C86.0322 51.2237 85.9918 51.0793 85.9144 50.9555C85.7659 50.7029 85.4741 50.539 85.1734 50.5425C84.0251 50.5541 82.9314 50.5649 81.9357 50.5749C81.6861 50.5789 81.4462 50.5776 81.2066 50.5857C80.9616 50.6027 80.7371 50.7302 80.5982 50.9125C80.4542 51.0925 80.4048 51.327 80.4202 51.5321C80.4229 51.7374 80.4254 51.9345 80.4278 52.1229C80.4333 52.4985 80.4381 52.8389 80.4424 53.1387C80.4434 53.2133 80.4438 53.2854 80.4507 53.3568C80.4614 53.4269 80.4757 53.4941 80.5008 53.5547C80.5477 53.6768 80.6184 53.7761 80.6949 53.8509C80.8501 54.0009 81.0163 54.0536 81.1245 54.0737C81.2354 54.0912 81.2941 54.0825 81.2941 54.0825Z" fill="#263238"/>
<g opacity="0.3">
<path d="M87.7822 54.6528C84.9585 55.5108 81.8824 55.518 79.0547 54.6733L87.7822 54.6528Z" fill="black"/>
</g>
<path d="M82.3506 51.6323L83.5354 51.6214C83.6952 51.62 83.8236 51.4892 83.822 51.3294L83.8215 51.2697C83.82 51.1099 83.6893 50.9816 83.5295 50.9832L82.3448 50.994C82.185 50.9955 82.0567 51.1262 82.0581 51.2859L82.0586 51.3456C82.06 51.5054 82.1908 51.6337 82.3506 51.6323Z" fill="#E0E0E0"/>
<path d="M82.4295 43.4136C82.4295 43.4136 82.1083 43.6993 81.9958 43.8966C81.8833 44.0941 81.6846 44.9515 81.6846 44.9515C81.6846 44.9515 81.843 45.0949 82.1271 44.6427C82.4113 44.1904 82.4943 43.963 82.4943 43.963L82.4295 43.4136Z" fill="#FFBF9D"/>
<path d="M83.8323 41.7112L83.4544 42.3782L82.4116 43.4317L82.0195 44.9945C81.978 45.1597 81.9931 45.3361 82.0729 45.4865C82.1017 45.5408 82.1368 45.5856 82.178 45.6029C82.295 45.6517 82.6249 45.4827 82.6249 45.4827C82.6249 45.4827 82.8654 45.7816 83.1222 45.6053C83.1222 45.6053 83.4929 45.7961 83.6985 45.611C83.6985 45.611 83.9336 45.7973 84.1086 45.6813C84.2836 45.5654 84.7844 44.835 84.7844 44.835L85.4556 42.4264L83.8323 41.7112Z" fill="#FFBF9D"/>
<path d="M86.2892 28.5342C86.2892 28.5342 86.9515 28.9611 86.9876 29.8411C87.0147 30.4979 87.5068 34.9486 87.4638 36.1462C87.4208 37.3438 85.3814 43.0115 85.3814 43.0115L83.1299 42.3337L85.0768 35.9963L84.8841 32.0183L86.2892 28.5342Z" fill="#EBEBEB"/>
<path d="M82.3413 18.7459C82.2313 18.5169 81.9621 18.3744 81.7091 18.4115C81.4221 18.1694 80.9608 18.1622 80.6662 18.3952C80.4481 18.2566 80.1561 18.2409 79.9243 18.3555C79.6925 18.4699 79.5289 18.7104 79.5089 18.9664C79.2515 18.9166 78.9688 19.0459 78.8401 19.2726C78.7113 19.4993 78.7462 19.8061 78.9225 19.9985C78.6376 20.0797 78.4413 20.3925 78.4939 20.6817C78.5465 20.971 78.8408 21.1963 79.1363 21.1734L82.2038 19.4432C82.3926 19.272 82.4512 18.975 82.3413 18.7459Z" fill="#263238"/>
<path d="M78.7451 24.4962C78.7602 23.8365 78.9024 22.4805 79.0455 21.2547C79.1994 19.9368 80.348 18.9573 81.685 19.0035L81.8178 19.0082C83.2474 19.1406 83.9325 20.4186 83.7594 21.832L83.3567 26.2883L80.5907 28.7827L79.9879 27.0198L80.0839 26.1221C80.0839 26.1221 78.7143 25.8621 78.7451 24.4962Z" fill="#FFBF9D"/>
<path d="M80.0728 26.1197C80.0728 26.1197 80.9503 26.2026 81.8952 25.6584C81.8952 25.6584 81.4363 26.6264 80.0669 26.456L80.0728 26.1197Z" fill="#FF9A6C"/>
<path d="M79.4033 22.4415C79.3959 22.5444 79.4779 22.6352 79.586 22.6447C79.694 22.6541 79.7876 22.5788 79.7948 22.4759C79.802 22.373 79.7203 22.282 79.6123 22.2725C79.5043 22.2631 79.4107 22.3388 79.4033 22.4415Z" fill="#263238"/>
<path d="M79.3183 21.933C79.3418 21.9593 79.4944 21.8551 79.7061 21.863C79.9176 21.8678 80.069 21.981 80.0928 21.9562C80.1045 21.9452 80.0813 21.8985 80.0154 21.8473C79.9506 21.7964 79.8388 21.7452 79.7069 21.7412C79.5751 21.7374 79.4626 21.7817 79.3972 21.8287C79.3303 21.8759 79.3066 21.9212 79.3183 21.933Z" fill="#263238"/>
<path d="M81.3125 22.544C81.3051 22.6469 81.387 22.7378 81.4952 22.7472C81.6032 22.7568 81.6968 22.6813 81.704 22.5784C81.7112 22.4757 81.6294 22.3847 81.5214 22.3751C81.4133 22.3656 81.3197 22.4413 81.3125 22.544Z" fill="#263238"/>
<path d="M81.3963 22.0438C81.4199 22.07 81.5728 21.9659 81.7842 21.9739C81.9955 21.9787 82.1471 22.0921 82.1709 22.0672C82.1826 22.0561 82.1595 22.0094 82.0935 21.9584C82.0287 21.9075 81.9168 21.8563 81.785 21.8523C81.6531 21.8484 81.5407 21.8928 81.4752 21.9398C81.4087 21.9868 81.3848 22.032 81.3963 22.0438Z" fill="#263238"/>
<path d="M80.574 23.5733C80.5754 23.5613 80.4447 23.5343 80.2325 23.4999C80.1788 23.4925 80.1279 23.48 80.12 23.4432C80.1087 23.404 80.1333 23.3471 80.1616 23.2856C80.217 23.1578 80.2749 23.0237 80.3357 22.8832C80.578 22.31 80.7554 21.838 80.732 21.8285C80.7087 21.8191 80.4933 22.276 80.2511 22.8492C80.1927 22.9906 80.1367 23.1253 80.0836 23.2543C80.061 23.3144 80.0234 23.3823 80.0482 23.4636C80.0613 23.5042 80.1 23.5346 80.1343 23.545C80.1685 23.5567 80.1989 23.5583 80.2256 23.5608C80.4397 23.5796 80.5727 23.5852 80.574 23.5733Z" fill="#263238"/>
<path d="M81.1915 23.74C81.1571 23.7368 81.1488 23.9645 80.9465 24.1194C80.7446 24.2747 80.5006 24.2408 80.4977 24.2725C80.494 24.2867 80.5507 24.3186 80.6539 24.325C80.7552 24.332 80.9043 24.3048 81.028 24.2101C81.1513 24.1151 81.2075 23.9847 81.2187 23.8914C81.2308 23.7965 81.2072 23.7392 81.1915 23.74Z" fill="#263238"/>
<path d="M81.3705 21.2197C81.3894 21.2774 81.6015 21.2578 81.8487 21.296C82.0967 21.3293 82.2943 21.4083 82.3291 21.3582C82.3446 21.3342 82.3116 21.2794 82.2326 21.2213C82.1543 21.1634 82.0281 21.1066 81.8796 21.085C81.7311 21.0637 81.5939 21.0824 81.5022 21.1158C81.41 21.1491 81.3625 21.1923 81.3705 21.2197Z" fill="#263238"/>
<path d="M79.417 21.3283C79.4525 21.3772 79.6 21.3327 79.7754 21.3364C79.9509 21.334 80.0979 21.3796 80.1338 21.331C80.1496 21.3073 80.128 21.2587 80.0646 21.2115C80.0024 21.1643 79.8966 21.1238 79.7762 21.1233C79.6557 21.123 79.5498 21.1625 79.487 21.2092C79.4234 21.2561 79.4013 21.3046 79.417 21.3283Z" fill="#263238"/>
<path d="M79.1999 20.6331C79.1999 20.6331 79.5931 19.7905 80.0159 19.6054C80.5278 19.3813 80.7252 19.9366 81.2095 19.8201C81.6939 19.7037 82.1825 19.4886 82.6598 19.8731C83.1822 20.2941 82.9209 20.5678 82.9327 21.1747C82.9809 23.6355 83.4087 24.3457 83.578 23.1933C83.5966 23.067 83.9548 22.9784 84.0262 22.4448C84.1187 21.7528 84.1753 20.9105 84.0363 20.4123C83.9191 19.9925 83.6903 19.6973 83.2732 19.3661C82.6148 18.8433 81.6865 18.8005 81.0537 18.8416C80.4212 18.8829 79.1801 19.5605 79.1999 20.6331Z" fill="#263238"/>
<path d="M83.4917 23.1534C83.5077 22.943 83.6966 22.7828 83.9077 22.8102C84.1635 22.8433 84.4443 22.9977 84.4088 23.5233C84.3459 24.4558 83.4149 24.2007 83.415 24.174C83.4152 24.1556 83.4618 23.5433 83.4917 23.1534Z" fill="#FFBF9D"/>
<path d="M83.6431 23.8367C83.6475 23.8339 83.6588 23.8491 83.6855 23.8635C83.7116 23.8776 83.7576 23.8891 83.8078 23.8741C83.9096 23.8445 84.0038 23.6936 84.0196 23.5259C84.0278 23.4413 84.0153 23.3592 83.9894 23.2904C83.9652 23.2203 83.9241 23.1698 83.8747 23.1576C83.8257 23.1429 83.7883 23.1703 83.775 23.1957C83.7606 23.221 83.7654 23.2399 83.7603 23.2413C83.7574 23.2435 83.7411 23.2243 83.7513 23.1863C83.7564 23.168 83.7689 23.1467 83.7923 23.1303C83.8161 23.1135 83.8499 23.1064 83.8844 23.1125C83.9566 23.1223 84.0174 23.1928 84.0459 23.2683C84.0782 23.3447 84.0942 23.4368 84.0851 23.532C84.0663 23.7195 83.9575 23.889 83.819 23.9189C83.7516 23.9315 83.6979 23.9082 83.6708 23.8843C83.6433 23.8592 83.6398 23.8381 83.6431 23.8367Z" fill="#FF9A6C"/>
<path d="M83.5366 21.3439C83.4115 21.4224 83.2793 21.5032 83.1315 21.5127C82.9836 21.5221 82.8182 21.4323 82.7984 21.2867C82.7896 21.2215 82.8081 21.1466 82.7668 21.0949C82.7176 21.0333 82.622 21.0487 82.5428 21.0543C82.2681 21.0736 81.9947 20.872 81.9342 20.6055C81.8608 20.7067 81.698 20.6965 81.5948 20.6255C81.4916 20.5543 81.4275 20.4415 81.3481 20.3447C81.2688 20.248 81.1556 20.16 81.0307 20.1731C80.9608 20.1805 80.8942 20.2194 80.8244 20.2107C80.7012 20.1955 80.6459 20.0499 80.6315 19.9277C80.6171 19.8053 80.6075 19.6629 80.5051 19.5931C80.4102 19.5285 80.2832 19.5595 80.1689 19.5723C80.0545 19.585 79.9086 19.5535 79.8833 19.4421C79.87 19.3837 79.8972 19.3237 79.9313 19.2743C80.0859 19.0506 80.4091 18.9599 80.659 19.0703C80.7619 18.765 81.0612 18.5351 81.3851 18.5123C81.7089 18.4898 82.0377 18.6759 82.1828 18.9639C82.3881 18.7917 82.6798 18.7266 82.9396 18.7949C83.1995 18.8632 83.4203 19.0631 83.5128 19.3133C83.7438 19.2615 84.0017 19.3583 84.1403 19.5488C84.2788 19.7394 84.2899 20.0127 84.1673 20.2136C84.3332 20.3154 84.4721 20.4871 84.4689 20.6805C84.4656 20.8738 84.2691 21.0597 84.0828 21.0024C84.1536 21.1554 84.0846 21.3575 83.9347 21.4365C83.7848 21.5154 83.5772 21.4591 83.4891 21.3152" fill="#263238"/>
<path d="M84.1518 21.0028C84.1551 21.0004 84.1664 21.0818 84.0868 21.1802C84.0475 21.2268 83.9814 21.2744 83.8944 21.2852C83.8091 21.2964 83.7059 21.2722 83.6287 21.1986L83.6687 21.1941C83.6193 21.2728 83.555 21.3527 83.4728 21.4204C83.4198 21.4636 83.3612 21.4999 83.2975 21.5202C83.235 21.5424 83.1646 21.5424 83.1075 21.5311C82.9886 21.514 82.8868 21.4468 82.8412 21.3672C82.7937 21.2893 82.7804 21.218 82.7718 21.1704C82.7639 21.1223 82.7639 21.0954 82.7671 21.0948C82.7713 21.094 82.7784 21.1199 82.7923 21.1656C82.8065 21.2109 82.826 21.2786 82.8729 21.3461C82.9574 21.4831 83.2457 21.5615 83.438 21.3788C83.5145 21.3159 83.5767 21.2405 83.6249 21.1668L83.6425 21.1399L83.6651 21.1623C83.7275 21.2244 83.8158 21.2487 83.8895 21.2418C83.9644 21.2356 84.0241 21.1981 84.063 21.1586C84.1415 21.0764 84.1436 21 84.1518 21.0028Z" fill="#455A64"/>
<path d="M81.5106 23.887C81.4952 23.8865 81.493 23.7879 81.4157 23.7039C81.3414 23.6172 81.2432 23.6023 81.2446 23.5873C81.2448 23.5807 81.2715 23.5737 81.3139 23.5825C81.3562 23.5908 81.4122 23.6188 81.4563 23.6684C81.5003 23.7182 81.5211 23.7769 81.5242 23.8195C81.5275 23.8623 81.5171 23.8876 81.5106 23.887Z" fill="#FF9A6C"/>
<path d="M81.6028 23.6319C81.5893 23.6394 81.5564 23.6058 81.5071 23.582C81.4586 23.5567 81.4116 23.5503 81.4098 23.5351C81.4064 23.5209 81.4668 23.5012 81.5316 23.534C81.5965 23.5663 81.6164 23.6261 81.6028 23.6319Z" fill="#FF9A6C"/>
<path d="M79.8797 18.3795C79.8756 18.3704 79.7781 18.4314 79.702 18.5861C79.6641 18.6621 79.6276 18.7592 79.618 18.8739C79.6055 18.9882 79.6351 19.1224 79.7151 19.2322C79.7967 19.3411 79.9074 19.4106 80.0087 19.4581C80.1109 19.5063 80.2066 19.5376 80.2866 19.5627C80.4473 19.6111 80.5465 19.6379 80.5498 19.6298C80.5533 19.621 80.4581 19.5779 80.3023 19.5186C80.2249 19.488 80.1325 19.4525 80.0362 19.4035C79.9404 19.3551 79.8405 19.2888 79.7692 19.1935C79.6994 19.0967 79.6714 18.9824 79.6794 18.8783C79.6849 18.7736 79.7143 18.6802 79.745 18.6058C79.8066 18.4539 79.8853 18.3863 79.8797 18.3795Z" fill="#E0E0E0"/>
<path d="M79.2825 18.9932C79.2748 18.9937 79.2689 19.0524 79.2942 19.1434C79.3188 19.234 79.3822 19.3533 79.4894 19.4521C79.5971 19.5503 79.722 19.6036 79.815 19.6209C79.9084 19.6388 79.9671 19.6282 79.9668 19.6207C79.9673 19.6101 79.9108 19.6036 79.8271 19.5756C79.7435 19.5482 79.6334 19.4933 79.5347 19.4034C79.4366 19.313 79.3727 19.2085 79.3387 19.1279C79.3043 19.0471 79.2932 18.9919 79.2825 18.9932Z" fill="#E0E0E0"/>
<path d="M78.2969 27.942L76.9431 38.759C76.8774 39.2849 77.3537 40.2417 77.8676 40.3715L84.7124 41.1171C85.1274 41.1889 85.4644 40.8697 85.5132 40.4515C85.6846 38.9838 85.8018 35.9012 86.0134 33.8927C86.2465 31.6788 86.6714 28.8638 86.1567 28.4639C85.0767 27.6247 83.5356 26.8609 83.5356 26.8609L83.4209 25.8555C83.4209 25.8555 80.3687 26.2075 79.8489 26.658L79.6068 27.63L78.2969 27.942Z" fill="#EBEBEB"/>
<path d="M79.3806 27.7514L73.1011 28.3454L68.2179 25.9529L67.1851 28.0978L67.9324 28.4865C69.1366 29.2548 71.3321 30.867 72.2465 31.2708C73.5284 31.8369 79.9665 31.1063 79.9665 31.1063L79.3806 27.7514Z" fill="#EBEBEB"/>
<path d="M77.6012 31.3714C77.6008 31.3621 77.7528 31.3727 78.015 31.3122C78.2734 31.2516 78.65 31.1029 78.9884 30.7618C79.3238 30.4264 79.608 29.8908 79.6446 29.2596C79.659 28.9469 79.5982 28.6117 79.4432 28.3084C79.3668 28.1573 79.2638 28.0136 79.1084 27.9464C78.9548 27.8797 78.7689 27.8696 78.5905 27.8831C77.1195 27.9914 75.7872 28.1228 74.823 28.2047C74.3481 28.2455 73.9604 28.2789 73.6809 28.3029C73.5528 28.3127 73.4497 28.3207 73.3702 28.3268C73.2992 28.3319 73.2616 28.3332 73.2612 28.3303C73.2609 28.3274 73.2977 28.3205 73.3684 28.3101C73.4476 28.3 73.5502 28.2869 73.6777 28.2708C73.9568 28.2402 74.3436 28.198 74.8174 28.1461C75.7809 28.0492 77.1099 27.9087 78.5859 27.8C78.7734 27.7871 78.9641 27.7946 79.1425 27.8711C79.323 27.9498 79.4379 28.1154 79.5158 28.2714C79.6772 28.5901 79.7382 28.9384 79.7212 29.2637C79.6788 29.9172 79.3803 30.4636 79.0299 30.8039C78.6761 31.1493 78.2865 31.2924 78.0217 31.3442C77.8876 31.3708 77.7816 31.3772 77.71 31.3781C77.6387 31.3773 77.6012 31.3738 77.6012 31.3714Z" fill="#263238"/>
<path d="M83.5357 26.8609C83.5373 26.8738 83.3156 26.9074 82.9605 26.9757C82.6052 27.0433 82.1185 27.1553 81.5812 27.286C81.0437 27.4167 80.5517 27.5204 80.1922 27.5732C80.0124 27.5996 79.8666 27.6178 79.7652 27.6253C79.6639 27.6338 79.6077 27.6357 79.6069 27.63C79.6053 27.617 79.8271 27.5834 80.1821 27.5151C80.5375 27.4476 81.0242 27.3356 81.5617 27.2049C82.0989 27.0741 82.5908 26.9706 82.9505 26.9177C83.1303 26.8913 83.2762 26.873 83.3775 26.8655C83.4788 26.8572 83.5351 26.8553 83.5357 26.8609Z" fill="#263238"/>
<path d="M86.353 29.5867C86.3559 29.587 86.3537 29.6281 86.3468 29.706C86.3381 29.7918 86.3269 29.9049 86.3129 30.0462C86.2817 30.3505 86.238 30.7753 86.1844 31.2964C86.0801 32.3523 85.9525 33.8128 85.8641 35.4291C85.8191 36.2374 85.7874 37.0081 85.766 37.7092C85.7569 38.0595 85.7482 38.3926 85.7402 38.7049C85.7329 39.0164 85.7332 39.3073 85.7154 39.574C85.6959 39.8399 85.6604 40.0808 85.5985 40.2849C85.5378 40.4892 85.4532 40.6556 85.3638 40.7763C85.2762 40.8993 85.1828 40.9724 85.1201 41.0191C85.0533 41.0612 85.018 41.0819 85.0165 41.0795C85.0066 41.0684 85.17 41.0015 85.3373 40.7574C85.4205 40.6371 85.4985 40.4732 85.5538 40.2721C85.6103 40.0712 85.641 39.8336 85.6567 39.5704C85.6705 39.307 85.6669 39.0161 85.6713 38.7038C85.6753 38.3916 85.6797 38.058 85.6895 37.7072C85.7069 37.0052 85.7362 36.2337 85.7812 35.4246C85.8698 33.8065 86.0068 32.3454 86.1261 31.2904C86.1861 30.7628 86.2404 30.3366 86.281 30.0425C86.3015 29.902 86.318 29.7896 86.3305 29.7041C86.3423 29.6267 86.3501 29.5864 86.353 29.5867Z" fill="#263238"/>
<path d="M72.3999 56.1808L73.6258 58.9141C73.6258 58.9141 70.399 60.1773 70.373 60.7777L76.6526 60.6641L76.6449 60.1397L75.2599 55.6309L72.3999 56.1808Z" fill="#455A64"/>
<path d="M75.4657 58.4232C75.5878 58.4543 75.6744 58.5895 75.6485 58.7127C75.6224 58.836 75.4857 58.9252 75.3632 58.8962C75.2405 58.8674 75.1318 58.7084 75.1713 58.5887C75.211 58.4692 75.3771 58.3732 75.4893 58.4308" fill="#E0E0E0"/>
<path d="M76.6527 60.6641L76.645 60.1396L70.6154 60.4547C70.6154 60.4547 70.338 60.5814 70.3732 60.7777L76.6527 60.6641Z" fill="#263238"/>
<path d="M73.5236 58.884C73.5252 58.9147 73.6788 58.9257 73.8313 59.0216C73.9865 59.1134 74.0667 59.2449 74.0947 59.2321C74.1228 59.2257 74.0739 59.0432 73.887 58.9304C73.7012 58.816 73.5164 58.856 73.5236 58.884Z" fill="#263238"/>
<path d="M72.8699 59.1683C72.8633 59.1981 72.9971 59.2479 73.1036 59.3757C73.2139 59.5003 73.2427 59.64 73.2732 59.6383C73.3022 59.6426 73.3201 59.4626 73.1846 59.3063C73.0507 59.1487 72.87 59.1391 72.8699 59.1683Z" fill="#263238"/>
<path d="M72.5101 59.9634C72.5381 59.9694 72.578 59.8154 72.4962 59.649C72.4156 59.4818 72.2698 59.4182 72.2573 59.444C72.2405 59.4694 72.3353 59.5579 72.4002 59.6957C72.4684 59.8317 72.4796 59.9608 72.5101 59.9634Z" fill="#263238"/>
<path d="M73.2946 58.1714C73.3079 58.1991 73.4479 58.1543 73.6215 58.1629C73.7951 58.168 73.9311 58.2237 73.9466 58.1972C73.9639 58.1746 73.8303 58.0636 73.6257 58.0562C73.4212 58.0474 73.2791 58.1476 73.2946 58.1714Z" fill="#263238"/>
<path d="M83.4433 62.8608L83.5831 68.073L80.8422 68.0653L80.6953 62.9796L83.4433 62.8608Z" fill="#455A64"/>
<path d="M82.222 67.809C82.1991 67.8094 82.1645 66.698 82.145 65.3271C82.1253 63.9558 82.128 62.8441 82.1509 62.8438C82.1738 62.8434 82.2082 63.9545 82.2279 65.3258C82.2476 66.697 82.2448 67.8089 82.222 67.809Z" fill="#263238"/>
<path d="M80.7954 66.4402C80.7911 66.4372 80.8137 66.3962 80.863 66.3277C80.9122 66.2592 80.9908 66.165 81.1012 66.061C81.2118 65.9576 81.3558 65.8448 81.5369 65.7541C81.7161 65.6621 81.9358 65.5949 82.1719 65.5919C82.6457 65.582 83.0494 65.8048 83.2506 66.0317C83.3551 66.1436 83.4202 66.2493 83.4578 66.325C83.4948 66.4013 83.5089 66.4459 83.5042 66.448C83.4894 66.4567 83.4193 66.2788 83.2089 66.073C83.005 65.8663 82.6223 65.6659 82.1727 65.6749C81.7246 65.6826 81.3606 65.9173 81.1401 66.105C80.9153 66.2968 80.8071 66.4495 80.7954 66.4402Z" fill="#263238"/>
<path d="M83.5729 68.0781L80.8444 68.0656L80.8242 67.4495L83.5756 67.4621L83.5729 68.0781Z" fill="#263238"/>
<path d="M83.6605 40.7832L77.9779 40.2849L77.8829 40.9089C76.4355 42.0689 71.9226 44.8414 69.5933 47.1123C69.5933 47.1123 68.733 48.3121 69.0758 49.3684L72.7179 57.6259L76.4262 56.7707L74.1634 49.7619L81.1227 46.5118C82.4758 46.0112 83.6949 44.3033 83.9827 43.3243C84.229 42.487 83.697 41.8553 83.6605 40.7832Z" fill="#263238"/>
<path d="M78.8882 47.3599L80.3915 64.9004L84.1861 64.8797C84.1861 64.8797 84.308 59.5249 84.2328 55.914C84.1576 52.3033 84.5962 44.9663 84.5962 44.9663L78.8882 47.3599Z" fill="#263238"/>
<path d="M83.6605 40.7832L85.484 40.984C85.484 40.984 85.6642 44.6275 85.5322 45.0891C85.4002 45.5507 84.4159 47.3798 84.4159 47.3798L79.021 48.9502V44.8421L83.6605 40.7832Z" fill="#263238"/>
<path d="M83.1802 44.5133C83.1826 44.5144 83.1671 44.5482 83.1353 44.6114C83.1012 44.6731 83.061 44.7706 82.9862 44.8826C82.8492 45.1131 82.6188 45.4346 82.2601 45.7582C81.9044 46.0846 81.4242 46.4072 80.8596 46.6994C80.2962 46.9952 79.6532 47.2662 78.9905 47.575C77.6634 48.183 76.4623 48.7331 75.5839 49.1355C75.1522 49.3293 74.8002 49.4874 74.5479 49.6006C74.4303 49.6517 74.3362 49.6925 74.2646 49.7235C74.1994 49.7509 74.1647 49.7642 74.1636 49.7618C74.1625 49.7594 74.1951 49.7416 74.258 49.7098C74.3281 49.6754 74.4202 49.6302 74.5353 49.5739C74.7852 49.4554 75.1337 49.2898 75.5612 49.0869C76.4374 48.6792 77.6353 48.1218 78.9591 47.5058C79.6225 47.1968 80.2658 46.9278 80.8273 46.6373C81.3903 46.3501 81.8679 46.0358 82.2241 45.7184C82.5831 45.4037 82.8174 45.091 82.961 44.8669C83.1065 44.6427 83.1726 44.5091 83.1802 44.5133Z" fill="#455A64"/>
<path d="M71.7505 49.4469C71.7489 49.4378 71.8975 49.3999 72.1435 49.3711C72.3889 49.3424 72.7334 49.3269 73.1099 49.3699C73.4868 49.4109 73.8196 49.5034 74.0513 49.5901C74.283 49.6784 74.4166 49.7543 74.4129 49.7618C74.4078 49.7733 74.267 49.7152 74.0339 49.641C73.8006 49.5683 73.4719 49.4858 73.1014 49.4456C72.7311 49.4034 72.3923 49.4101 72.1479 49.4248C71.9035 49.4395 71.7523 49.4586 71.7505 49.4469Z" fill="#455A64"/>
<path d="M77.8418 40.903L85.5128 41.6276L85.4879 41.0654L77.9776 40.2849L77.8418 40.903Z" fill="#455A64"/>
<path d="M79.4668 41.1361C79.4894 41.091 79.5446 40.4255 79.5446 40.4255L79.962 40.4689L79.8615 41.2827L79.4668 41.1361Z" fill="#263238"/>
<path d="M83.4897 41.5646C83.5123 41.5194 83.5675 40.854 83.5675 40.854L83.985 40.8974L83.8845 41.7111L83.4897 41.5646Z" fill="#263238"/>
</svg>
