<svg width="339" height="110" viewBox="0 0 339 110" fill="none" xmlns="http://www.w3.org/2000/svg">
<rect width="339" height="110" rx="10" fill="white"/>
<path d="M15 65C15 62.2386 17.2386 60 20 60H91.25V70H20C17.2386 70 15 67.7614 15 65Z" fill="#5C93ED"/>
<path opacity="0.1" d="M325 65C325 67.7614 322.761 70 320 70H248.75V60H320C322.761 60 325 62.2386 325 65Z" fill="#5C93ED"/>
<rect x="93" y="60" width="76.25" height="10" fill="#5C93ED"/>
<rect x="171" y="60" width="76.25" height="10" fill="#5C93ED"/>
<circle opacity="0.1" cx="30" cy="30" r="15" fill="#5C93ED"/>
<g clip-path="url(#clip0_215_3689)">
<path d="M36.653 36.657C40.3294 32.9805 40.3294 27.0217 36.653 23.3452C32.9765 19.6688 27.0235 19.6688 23.3471 23.3452C19.6706 27.0276 19.6706 32.9805 23.3471 36.657C27.0177 40.3276 32.9765 40.3335 36.653 36.657ZM25.4647 30.1982C25.6941 29.9688 26.0706 29.9688 26.3 30.1982L28.2177 32.11L33.7 26.6394C33.9353 26.4158 34.3059 26.4158 34.5353 26.6452C34.7647 26.8746 34.7647 27.2452 34.5353 27.4747L28.6294 33.357C28.5177 33.4747 28.3647 33.5276 28.2177 33.5276C28.0647 33.5276 27.9177 33.4747 27.8 33.357L25.4647 31.0335C25.2353 30.8041 25.2353 30.4276 25.4647 30.1982Z" fill="#03B10F"/>
</g>
<circle cx="30" cy="52" r="3" fill="#6691EE"/>
<circle opacity="0.1" cx="109" cy="30" r="15" fill="#5C93ED"/>
<circle opacity="0.1" cx="229" cy="30" r="15" fill="#5C93ED"/>
<circle opacity="0.1" cx="70" cy="30" r="15" fill="#5C93ED"/>
<circle opacity="0.1" cx="189" cy="30" r="15" fill="#5C93ED"/>
<g clip-path="url(#clip1_215_3689)">
<path d="M195.653 36.657C199.329 32.9805 199.329 27.0217 195.653 23.3452C191.976 19.6688 186.024 19.6688 182.347 23.3452C178.671 27.0276 178.671 32.9805 182.347 36.657C186.018 40.3276 191.976 40.3335 195.653 36.657ZM184.465 30.1982C184.694 29.9688 185.071 29.9688 185.3 30.1982L187.218 32.11L192.7 26.6394C192.935 26.4158 193.306 26.4158 193.535 26.6452C193.765 26.8746 193.765 27.2452 193.535 27.4747L187.629 33.357C187.518 33.4747 187.365 33.5276 187.218 33.5276C187.065 33.5276 186.918 33.4747 186.8 33.357L184.465 31.0335C184.235 30.8041 184.235 30.4276 184.465 30.1982Z" fill="#03B10F"/>
</g>
<circle cx="189" cy="52" r="3" fill="#6691EE"/>
<circle opacity="0.1" cx="149" cy="30" r="15" fill="#5C93ED"/>
<g clip-path="url(#clip2_215_3689)">
<path d="M155.653 36.657C159.329 32.9805 159.329 27.0217 155.653 23.3452C151.976 19.6688 146.024 19.6688 142.347 23.3452C138.671 27.0276 138.671 32.9805 142.347 36.657C146.018 40.3276 151.976 40.3335 155.653 36.657ZM144.465 30.1982C144.694 29.9688 145.071 29.9688 145.3 30.1982L147.218 32.11L152.7 26.6394C152.935 26.4158 153.306 26.4158 153.535 26.6452C153.765 26.8746 153.765 27.2452 153.535 27.4747L147.629 33.357C147.518 33.4747 147.365 33.5276 147.218 33.5276C147.065 33.5276 146.918 33.4747 146.8 33.357L144.465 31.0335C144.235 30.8041 144.235 30.4276 144.465 30.1982Z" fill="#03B10F"/>
</g>
<circle cx="149" cy="52" r="3" fill="#6691EE"/>
<circle opacity="0.1" cx="308" cy="30" r="15" fill="#5C93ED"/>
<path d="M302.804 28.486H313.201" stroke="#5C93ED" stroke-linecap="round" stroke-linejoin="round"/>
<path d="M310.591 30.7641H310.597" stroke="#5C93ED" stroke-linecap="round" stroke-linejoin="round"/>
<path d="M308.003 30.7641H308.008" stroke="#5C93ED" stroke-linecap="round" stroke-linejoin="round"/>
<path d="M305.409 30.7641H305.414" stroke="#5C93ED" stroke-linecap="round" stroke-linejoin="round"/>
<path d="M310.591 33.0312H310.597" stroke="#5C93ED" stroke-linecap="round" stroke-linejoin="round"/>
<path d="M308.003 33.0312H308.008" stroke="#5C93ED" stroke-linecap="round" stroke-linejoin="round"/>
<path d="M305.409 33.0312H305.414" stroke="#5C93ED" stroke-linecap="round" stroke-linejoin="round"/>
<path d="M310.359 24.1667V26.0864" stroke="#5C93ED" stroke-linecap="round" stroke-linejoin="round"/>
<path d="M305.647 24.1667V26.0864" stroke="#5C93ED" stroke-linecap="round" stroke-linejoin="round"/>
<path fill-rule="evenodd" clip-rule="evenodd" d="M310.472 25.0879H305.533C303.82 25.0879 302.75 26.0422 302.75 27.7963V33.0753C302.75 34.857 303.82 35.8334 305.533 35.8334H310.467C312.185 35.8334 313.25 34.8735 313.25 33.1194V27.7963C313.255 26.0422 312.191 25.0879 310.472 25.0879Z" stroke="#5C93ED" stroke-linecap="round" stroke-linejoin="round"/>
<path d="M115.128 26.6L112.32 35H111.06L108.768 28.292L106.476 35H105.192L102.384 26.6H103.62L105.888 33.428L108.252 26.6H109.356L111.672 33.464L113.988 26.6H115.128Z" fill="black"/>
<path d="M68.928 27.644H66.048V26.6H72.996V27.644H70.116V35H68.928V27.644Z" fill="black"/>
<path d="M228.708 35.096C228.076 35.096 227.464 35 226.872 34.808C226.288 34.608 225.828 34.352 225.492 34.04L225.936 33.104C226.256 33.392 226.664 33.628 227.16 33.812C227.664 33.988 228.18 34.076 228.708 34.076C229.404 34.076 229.924 33.96 230.268 33.728C230.612 33.488 230.784 33.172 230.784 32.78C230.784 32.492 230.688 32.26 230.496 32.084C230.312 31.9 230.08 31.76 229.8 31.664C229.528 31.568 229.14 31.46 228.636 31.34C228.004 31.188 227.492 31.036 227.1 30.884C226.716 30.732 226.384 30.5 226.104 30.188C225.832 29.868 225.696 29.44 225.696 28.904C225.696 28.456 225.812 28.052 226.044 27.692C226.284 27.332 226.644 27.044 227.124 26.828C227.604 26.612 228.2 26.504 228.912 26.504C229.408 26.504 229.896 26.568 230.376 26.696C230.856 26.824 231.268 27.008 231.612 27.248L231.216 28.208C230.864 27.984 230.488 27.816 230.088 27.704C229.688 27.584 229.296 27.524 228.912 27.524C228.232 27.524 227.72 27.648 227.376 27.896C227.04 28.144 226.872 28.464 226.872 28.856C226.872 29.144 226.968 29.38 227.16 29.564C227.352 29.74 227.588 29.88 227.868 29.984C228.156 30.08 228.544 30.184 229.032 30.296C229.664 30.448 230.172 30.6 230.556 30.752C230.94 30.904 231.268 31.136 231.54 31.448C231.82 31.76 231.96 32.18 231.96 32.708C231.96 33.148 231.84 33.552 231.6 33.92C231.36 34.28 230.996 34.568 230.508 34.784C230.02 34.992 229.42 35.096 228.708 35.096Z" fill="black"/>
<circle opacity="0.1" cx="268.333" cy="30" r="15" fill="#5C93ED"/>
<path d="M268.041 35.096C267.409 35.096 266.797 35 266.205 34.808C265.621 34.608 265.161 34.352 264.825 34.04L265.269 33.104C265.589 33.392 265.997 33.628 266.493 33.812C266.997 33.988 267.513 34.076 268.041 34.076C268.737 34.076 269.257 33.96 269.601 33.728C269.945 33.488 270.117 33.172 270.117 32.78C270.117 32.492 270.021 32.26 269.829 32.084C269.645 31.9 269.413 31.76 269.133 31.664C268.861 31.568 268.473 31.46 267.969 31.34C267.337 31.188 266.825 31.036 266.433 30.884C266.049 30.732 265.717 30.5 265.437 30.188C265.165 29.868 265.029 29.44 265.029 28.904C265.029 28.456 265.145 28.052 265.377 27.692C265.617 27.332 265.977 27.044 266.457 26.828C266.937 26.612 267.533 26.504 268.245 26.504C268.741 26.504 269.229 26.568 269.709 26.696C270.189 26.824 270.601 27.008 270.945 27.248L270.549 28.208C270.197 27.984 269.821 27.816 269.421 27.704C269.021 27.584 268.629 27.524 268.245 27.524C267.565 27.524 267.053 27.648 266.709 27.896C266.373 28.144 266.205 28.464 266.205 28.856C266.205 29.144 266.301 29.38 266.493 29.564C266.685 29.74 266.921 29.88 267.201 29.984C267.489 30.08 267.877 30.184 268.365 30.296C268.997 30.448 269.505 30.6 269.889 30.752C270.273 30.904 270.601 31.136 270.873 31.448C271.153 31.76 271.293 32.18 271.293 32.708C271.293 33.148 271.173 33.552 270.933 33.92C270.693 34.28 270.329 34.568 269.841 34.784C269.353 34.992 268.753 35.096 268.041 35.096Z" fill="black"/>
<circle cx="268.667" cy="52" r="3" fill="#6691EE"/>
<path d="M19.424 88.316C20.3853 88.4093 21.118 88.708 21.622 89.212C22.126 89.7067 22.378 90.3413 22.378 91.116C22.378 91.676 22.238 92.1847 21.958 92.642C21.678 93.09 21.258 93.4493 20.698 93.72C20.1473 93.9813 19.4707 94.112 18.668 94.112C17.968 94.112 17.296 94.0093 16.652 93.804C16.008 93.5893 15.4807 93.2953 15.07 92.922L15.714 91.816C16.05 92.1333 16.4793 92.39 17.002 92.586C17.5247 92.7727 18.08 92.866 18.668 92.866C19.396 92.866 19.9607 92.712 20.362 92.404C20.7727 92.096 20.978 91.6713 20.978 91.13C20.978 90.5887 20.7773 90.1687 20.376 89.87C19.9747 89.5713 19.368 89.422 18.556 89.422H17.772V88.442L20.236 85.418H15.518V84.2H21.986V85.152L19.424 88.316ZM31.2235 94.084C30.4862 94.084 29.8235 93.9207 29.2355 93.594C28.6475 93.2673 28.1855 92.8193 27.8495 92.25C27.5228 91.6713 27.3595 91.018 27.3595 90.29C27.3595 89.562 27.5228 88.9133 27.8495 88.344C28.1855 87.7653 28.6475 87.3173 29.2355 87C29.8235 86.6733 30.4862 86.51 31.2235 86.51C31.9608 86.51 32.6188 86.6733 33.1975 87C33.7855 87.3173 34.2428 87.7653 34.5695 88.344C34.9055 88.9133 35.0735 89.562 35.0735 90.29C35.0735 91.018 34.9055 91.6713 34.5695 92.25C34.2428 92.8193 33.7855 93.2673 33.1975 93.594C32.6188 93.9207 31.9608 94.084 31.2235 94.084ZM31.2235 92.908C31.6995 92.908 32.1242 92.8007 32.4975 92.586C32.8802 92.362 33.1788 92.054 33.3935 91.662C33.6082 91.2607 33.7155 90.8033 33.7155 90.29C33.7155 89.7767 33.6082 89.324 33.3935 88.932C33.1788 88.5307 32.8802 88.2227 32.4975 88.008C32.1242 87.7933 31.6995 87.686 31.2235 87.686C30.7475 87.686 30.3182 87.7933 29.9355 88.008C29.5622 88.2227 29.2635 88.5307 29.0395 88.932C28.8248 89.324 28.7175 89.7767 28.7175 90.29C28.7175 90.8033 28.8248 91.2607 29.0395 91.662C29.2635 92.054 29.5622 92.362 29.9355 92.586C30.3182 92.8007 30.7475 92.908 31.2235 92.908ZM39.6482 84.634C38.8455 84.634 38.4442 85.068 38.4442 85.936V86.58H40.6002V87.686H38.4722V94H37.1282V87.686H35.8682V86.58H37.1282V85.922C37.1282 85.1847 37.3429 84.6013 37.7722 84.172C38.2015 83.7427 38.8035 83.528 39.5782 83.528C39.8769 83.528 40.1569 83.5653 40.4182 83.64C40.6795 83.7147 40.9035 83.822 41.0902 83.962L40.6842 84.984C40.3762 84.7507 40.0309 84.634 39.6482 84.634ZM53.5515 91.592H51.6895V94H50.3315V91.592H44.8855V90.612L49.8975 84.2H51.4095L46.6075 90.388H50.3735V88.26H51.6895V90.388H53.5515V91.592ZM61.9865 94.084C61.2305 94.084 60.5538 93.9207 59.9565 93.594C59.3685 93.2673 58.9065 92.8193 58.5705 92.25C58.2345 91.6713 58.0665 91.018 58.0665 90.29C58.0665 89.562 58.2345 88.9133 58.5705 88.344C58.9065 87.7653 59.3685 87.3173 59.9565 87C60.5538 86.6733 61.2305 86.51 61.9865 86.51C62.6585 86.51 63.2558 86.6453 63.7785 86.916C64.3105 87.1867 64.7212 87.5787 65.0105 88.092L63.9885 88.75C63.7552 88.3953 63.4658 88.1293 63.1205 87.952C62.7752 87.7747 62.3925 87.686 61.9725 87.686C61.4872 87.686 61.0485 87.7933 60.6565 88.008C60.2738 88.2227 59.9705 88.5307 59.7465 88.932C59.5318 89.324 59.4245 89.7767 59.4245 90.29C59.4245 90.8127 59.5318 91.2747 59.7465 91.676C59.9705 92.068 60.2738 92.3713 60.6565 92.586C61.0485 92.8007 61.4872 92.908 61.9725 92.908C62.3925 92.908 62.7752 92.8193 63.1205 92.642C63.4658 92.4647 63.7552 92.1987 63.9885 91.844L65.0105 92.488C64.7212 93.0013 64.3105 93.398 63.7785 93.678C63.2558 93.9487 62.6585 94.084 61.9865 94.084ZM69.8192 94.084C69.0819 94.084 68.4192 93.9207 67.8312 93.594C67.2432 93.2673 66.7812 92.8193 66.4452 92.25C66.1185 91.6713 65.9552 91.018 65.9552 90.29C65.9552 89.562 66.1185 88.9133 66.4452 88.344C66.7812 87.7653 67.2432 87.3173 67.8312 87C68.4192 86.6733 69.0819 86.51 69.8192 86.51C70.5565 86.51 71.2145 86.6733 71.7932 87C72.3812 87.3173 72.8385 87.7653 73.1652 88.344C73.5012 88.9133 73.6692 89.562 73.6692 90.29C73.6692 91.018 73.5012 91.6713 73.1652 92.25C72.8385 92.8193 72.3812 93.2673 71.7932 93.594C71.2145 93.9207 70.5565 94.084 69.8192 94.084ZM69.8192 92.908C70.2952 92.908 70.7199 92.8007 71.0932 92.586C71.4759 92.362 71.7745 92.054 71.9892 91.662C72.2039 91.2607 72.3112 90.8033 72.3112 90.29C72.3112 89.7767 72.2039 89.324 71.9892 88.932C71.7745 88.5307 71.4759 88.2227 71.0932 88.008C70.7199 87.7933 70.2952 87.686 69.8192 87.686C69.3432 87.686 68.9139 87.7933 68.5312 88.008C68.1579 88.2227 67.8592 88.5307 67.6352 88.932C67.4205 89.324 67.3132 89.7767 67.3132 90.29C67.3132 90.8033 67.4205 91.2607 67.6352 91.662C67.8592 92.054 68.1579 92.362 68.5312 92.586C68.9139 92.8007 69.3432 92.908 69.8192 92.908ZM84.8099 86.51C85.7432 86.51 86.4806 86.7807 87.0219 87.322C87.5726 87.8633 87.8479 88.666 87.8479 89.73V94H86.5039V89.884C86.5039 89.1653 86.3359 88.624 85.9999 88.26C85.6732 87.896 85.2019 87.714 84.5859 87.714C83.9046 87.714 83.3632 87.9287 82.9619 88.358C82.5606 88.778 82.3599 89.3847 82.3599 90.178V94H81.0159V89.884C81.0159 89.1653 80.8479 88.624 80.5119 88.26C80.1852 87.896 79.7139 87.714 79.0979 87.714C78.4166 87.714 77.8752 87.9287 77.4739 88.358C77.0726 88.778 76.8719 89.3847 76.8719 90.178V94H75.5279V86.58H76.8159V87.686C77.0866 87.3033 77.4412 87.014 77.8799 86.818C78.3186 86.6127 78.8179 86.51 79.3779 86.51C79.9566 86.51 80.4699 86.6267 80.9179 86.86C81.3659 87.0933 81.7112 87.434 81.9539 87.882C82.2339 87.4527 82.6212 87.1167 83.1159 86.874C83.6199 86.6313 84.1846 86.51 84.8099 86.51ZM94.2549 86.51C94.9735 86.51 95.6175 86.6687 96.1869 86.986C96.7562 87.3033 97.1995 87.7467 97.5169 88.316C97.8435 88.8853 98.0069 89.5433 98.0069 90.29C98.0069 91.0367 97.8435 91.6993 97.5169 92.278C97.1995 92.8473 96.7562 93.2907 96.1869 93.608C95.6175 93.9253 94.9735 94.084 94.2549 94.084C93.7229 94.084 93.2329 93.9813 92.7849 93.776C92.3462 93.5707 91.9729 93.272 91.6649 92.88V96.716H90.3209V86.58H91.6089V87.756C91.9075 87.3453 92.2855 87.0373 92.7429 86.832C93.2002 86.6173 93.7042 86.51 94.2549 86.51ZM94.1429 92.908C94.6189 92.908 95.0435 92.8007 95.4169 92.586C95.7995 92.362 96.0982 92.054 96.3129 91.662C96.5369 91.2607 96.6489 90.8033 96.6489 90.29C96.6489 89.7767 96.5369 89.324 96.3129 88.932C96.0982 88.5307 95.7995 88.2227 95.4169 88.008C95.0435 87.7933 94.6189 87.686 94.1429 87.686C93.6762 87.686 93.2515 87.798 92.8689 88.022C92.4955 88.2367 92.1969 88.54 91.9729 88.932C91.7582 89.324 91.6509 89.7767 91.6509 90.29C91.6509 90.8033 91.7582 91.2607 91.9729 91.662C92.1875 92.054 92.4862 92.362 92.8689 92.586C93.2515 92.8007 93.6762 92.908 94.1429 92.908ZM99.8638 83.612H101.208V94H99.8638V83.612ZM110.48 90.332C110.48 90.4347 110.471 90.57 110.452 90.738H104.432C104.516 91.3913 104.801 91.9187 105.286 92.32C105.781 92.712 106.392 92.908 107.12 92.908C108.007 92.908 108.721 92.6093 109.262 92.012L110.004 92.88C109.668 93.272 109.248 93.5707 108.744 93.776C108.249 93.9813 107.694 94.084 107.078 94.084C106.294 94.084 105.599 93.9253 104.992 93.608C104.385 93.2813 103.914 92.8287 103.578 92.25C103.251 91.6713 103.088 91.018 103.088 90.29C103.088 89.5713 103.247 88.9227 103.564 88.344C103.891 87.7653 104.334 87.3173 104.894 87C105.463 86.6733 106.103 86.51 106.812 86.51C107.521 86.51 108.151 86.6733 108.702 87C109.262 87.3173 109.696 87.7653 110.004 88.344C110.321 88.9227 110.48 89.5853 110.48 90.332ZM106.812 87.644C106.168 87.644 105.627 87.84 105.188 88.232C104.759 88.624 104.507 89.1373 104.432 89.772H109.192C109.117 89.1467 108.861 88.638 108.422 88.246C107.993 87.8447 107.456 87.644 106.812 87.644ZM116.518 93.566C116.322 93.734 116.08 93.8647 115.79 93.958C115.501 94.042 115.202 94.084 114.894 94.084C114.148 94.084 113.569 93.8833 113.158 93.482C112.748 93.0807 112.542 92.5067 112.542 91.76V87.686H111.282V86.58H112.542V84.956H113.886V86.58H116.014V87.686H113.886V91.704C113.886 92.1053 113.984 92.4133 114.18 92.628C114.386 92.8427 114.675 92.95 115.048 92.95C115.459 92.95 115.809 92.8333 116.098 92.6L116.518 93.566ZM124.603 90.332C124.603 90.4347 124.594 90.57 124.575 90.738H118.555C118.639 91.3913 118.924 91.9187 119.409 92.32C119.904 92.712 120.515 92.908 121.243 92.908C122.13 92.908 122.844 92.6093 123.385 92.012L124.127 92.88C123.791 93.272 123.371 93.5707 122.867 93.776C122.372 93.9813 121.817 94.084 121.201 94.084C120.417 94.084 119.722 93.9253 119.115 93.608C118.508 93.2813 118.037 92.8287 117.701 92.25C117.374 91.6713 117.211 91.018 117.211 90.29C117.211 89.5713 117.37 88.9227 117.687 88.344C118.014 87.7653 118.457 87.3173 119.017 87C119.586 86.6733 120.226 86.51 120.935 86.51C121.644 86.51 122.274 86.6733 122.825 87C123.385 87.3173 123.819 87.7653 124.127 88.344C124.444 88.9227 124.603 89.5853 124.603 90.332ZM120.935 87.644C120.291 87.644 119.75 87.84 119.311 88.232C118.882 88.624 118.63 89.1373 118.555 89.772H123.315C123.24 89.1467 122.984 88.638 122.545 88.246C122.116 87.8447 121.579 87.644 120.935 87.644ZM133.469 83.612V94H132.181V92.824C131.883 93.2347 131.505 93.5473 131.047 93.762C130.59 93.9767 130.086 94.084 129.535 94.084C128.817 94.084 128.173 93.9253 127.603 93.608C127.034 93.2907 126.586 92.8473 126.259 92.278C125.942 91.6993 125.783 91.0367 125.783 90.29C125.783 89.5433 125.942 88.8853 126.259 88.316C126.586 87.7467 127.034 87.3033 127.603 86.986C128.173 86.6687 128.817 86.51 129.535 86.51C130.067 86.51 130.557 86.6127 131.005 86.818C131.453 87.014 131.827 87.308 132.125 87.7V83.612H133.469ZM129.647 92.908C130.114 92.908 130.539 92.8007 130.921 92.586C131.304 92.362 131.603 92.054 131.817 91.662C132.032 91.2607 132.139 90.8033 132.139 90.29C132.139 89.7767 132.032 89.324 131.817 88.932C131.603 88.5307 131.304 88.2227 130.921 88.008C130.539 87.7933 130.114 87.686 129.647 87.686C129.171 87.686 128.742 87.7933 128.359 88.008C127.986 88.2227 127.687 88.5307 127.463 88.932C127.249 89.324 127.141 89.7767 127.141 90.29C127.141 90.8033 127.249 91.2607 127.463 91.662C127.687 92.054 127.986 92.362 128.359 92.586C128.742 92.8007 129.171 92.908 129.647 92.908Z" fill="#878589"/>
<path d="M208.71 84.2V94H207.324V85.418H205.112V84.2H208.71ZM222.215 83.612V94H220.927V92.824C220.629 93.2347 220.251 93.5473 219.793 93.762C219.336 93.9767 218.832 94.084 218.281 94.084C217.563 94.084 216.919 93.9253 216.349 93.608C215.78 93.2907 215.332 92.8473 215.005 92.278C214.688 91.6993 214.529 91.0367 214.529 90.29C214.529 89.5433 214.688 88.8853 215.005 88.316C215.332 87.7467 215.78 87.3033 216.349 86.986C216.919 86.6687 217.563 86.51 218.281 86.51C218.813 86.51 219.303 86.6127 219.751 86.818C220.199 87.014 220.573 87.308 220.871 87.7V83.612H222.215ZM218.393 92.908C218.86 92.908 219.285 92.8007 219.667 92.586C220.05 92.362 220.349 92.054 220.563 91.662C220.778 91.2607 220.885 90.8033 220.885 90.29C220.885 89.7767 220.778 89.324 220.563 88.932C220.349 88.5307 220.05 88.2227 219.667 88.008C219.285 87.7933 218.86 87.686 218.393 87.686C217.917 87.686 217.488 87.7933 217.105 88.008C216.732 88.2227 216.433 88.5307 216.209 88.932C215.995 89.324 215.887 89.7767 215.887 90.29C215.887 90.8033 215.995 91.2607 216.209 91.662C216.433 92.054 216.732 92.362 217.105 92.586C217.488 92.8007 217.917 92.908 218.393 92.908ZM227.46 86.51C228.487 86.51 229.271 86.762 229.812 87.266C230.363 87.77 230.638 88.5213 230.638 89.52V94H229.364V93.02C229.14 93.3653 228.818 93.6313 228.398 93.818C227.988 93.9953 227.498 94.084 226.928 94.084C226.098 94.084 225.43 93.8833 224.926 93.482C224.432 93.0807 224.184 92.5533 224.184 91.9C224.184 91.2467 224.422 90.724 224.898 90.332C225.374 89.9307 226.13 89.73 227.166 89.73H229.294V89.464C229.294 88.8853 229.126 88.442 228.79 88.134C228.454 87.826 227.96 87.672 227.306 87.672C226.868 87.672 226.438 87.7467 226.018 87.896C225.598 88.036 225.244 88.2273 224.954 88.47L224.394 87.462C224.777 87.154 225.234 86.9207 225.766 86.762C226.298 86.594 226.863 86.51 227.46 86.51ZM227.152 93.048C227.666 93.048 228.109 92.936 228.482 92.712C228.856 92.4787 229.126 92.152 229.294 91.732V90.696H227.222C226.084 90.696 225.514 91.0787 225.514 91.844C225.514 92.2173 225.659 92.5113 225.948 92.726C226.238 92.9407 226.639 93.048 227.152 93.048ZM239.555 86.58L235.957 94.742C235.64 95.498 235.266 96.03 234.837 96.338C234.417 96.646 233.908 96.8 233.311 96.8C232.947 96.8 232.592 96.7393 232.247 96.618C231.911 96.506 231.631 96.338 231.407 96.114L231.981 95.106C232.364 95.47 232.807 95.652 233.311 95.652C233.638 95.652 233.908 95.5633 234.123 95.386C234.347 95.218 234.548 94.924 234.725 94.504L234.963 93.986L231.687 86.58H233.087L235.677 92.516L238.239 86.58H239.555ZM248.195 88.05C248.839 88.05 249.413 88.1713 249.917 88.414C250.43 88.6567 250.832 89.0067 251.121 89.464C251.41 89.912 251.555 90.43 251.555 91.018C251.555 91.634 251.401 92.1753 251.093 92.642C250.794 93.1087 250.379 93.4727 249.847 93.734C249.324 93.986 248.736 94.112 248.083 94.112C246.767 94.112 245.75 93.6873 245.031 92.838C244.322 91.9887 243.967 90.7847 243.967 89.226C243.967 88.134 244.158 87.2053 244.541 86.44C244.933 85.6653 245.474 85.082 246.165 84.69C246.865 84.2887 247.677 84.088 248.601 84.088C249.077 84.088 249.525 84.1393 249.945 84.242C250.365 84.3353 250.729 84.4753 251.037 84.662L250.505 85.754C250.038 85.446 249.413 85.292 248.629 85.292C247.612 85.292 246.814 85.6093 246.235 86.244C245.656 86.8693 245.367 87.784 245.367 88.988C245.367 89.1373 245.372 89.254 245.381 89.338C245.661 88.918 246.044 88.6007 246.529 88.386C247.024 88.162 247.579 88.05 248.195 88.05ZM248.027 92.978C248.671 92.978 249.194 92.8053 249.595 92.46C249.996 92.1147 250.197 91.6527 250.197 91.074C250.197 90.4953 249.992 90.038 249.581 89.702C249.18 89.3567 248.638 89.184 247.957 89.184C247.518 89.184 247.126 89.268 246.781 89.436C246.445 89.604 246.179 89.8327 245.983 90.122C245.796 90.4113 245.703 90.7333 245.703 91.088C245.703 91.4333 245.792 91.7507 245.969 92.04C246.156 92.32 246.422 92.5487 246.767 92.726C247.122 92.894 247.542 92.978 248.027 92.978ZM260.931 86.51C261.874 86.51 262.621 86.7853 263.171 87.336C263.731 87.8773 264.011 88.6753 264.011 89.73V94H262.667V89.884C262.667 89.1653 262.495 88.624 262.149 88.26C261.804 87.896 261.309 87.714 260.665 87.714C259.937 87.714 259.363 87.9287 258.943 88.358C258.523 88.778 258.313 89.3847 258.313 90.178V94H256.969V83.612H258.313V87.63C258.593 87.2753 258.957 87 259.405 86.804C259.863 86.608 260.371 86.51 260.931 86.51ZM269.718 94.084C268.98 94.084 268.318 93.9207 267.73 93.594C267.142 93.2673 266.68 92.8193 266.344 92.25C266.017 91.6713 265.854 91.018 265.854 90.29C265.854 89.562 266.017 88.9133 266.344 88.344C266.68 87.7653 267.142 87.3173 267.73 87C268.318 86.6733 268.98 86.51 269.718 86.51C270.455 86.51 271.113 86.6733 271.692 87C272.28 87.3173 272.737 87.7653 273.064 88.344C273.4 88.9133 273.568 89.562 273.568 90.29C273.568 91.018 273.4 91.6713 273.064 92.25C272.737 92.8193 272.28 93.2673 271.692 93.594C271.113 93.9207 270.455 94.084 269.718 94.084ZM269.718 92.908C270.194 92.908 270.618 92.8007 270.992 92.586C271.374 92.362 271.673 92.054 271.888 91.662C272.102 91.2607 272.21 90.8033 272.21 90.29C272.21 89.7767 272.102 89.324 271.888 88.932C271.673 88.5307 271.374 88.2227 270.992 88.008C270.618 87.7933 270.194 87.686 269.718 87.686C269.242 87.686 268.812 87.7933 268.43 88.008C268.056 88.2227 267.758 88.5307 267.534 88.932C267.319 89.324 267.212 89.7767 267.212 90.29C267.212 90.8033 267.319 91.2607 267.534 91.662C267.758 92.054 268.056 92.362 268.43 92.586C268.812 92.8007 269.242 92.908 269.718 92.908ZM282.342 86.58V94H281.068V92.88C280.798 93.2627 280.438 93.5613 279.99 93.776C279.552 93.9813 279.071 94.084 278.548 94.084C277.559 94.084 276.78 93.8133 276.21 93.272C275.641 92.7213 275.356 91.914 275.356 90.85V86.58H276.7V90.696C276.7 91.4147 276.873 91.9607 277.218 92.334C277.564 92.698 278.058 92.88 278.702 92.88C279.412 92.88 279.972 92.6653 280.382 92.236C280.793 91.8067 280.998 91.2 280.998 90.416V86.58H282.342ZM286.189 87.826C286.422 87.3967 286.768 87.07 287.225 86.846C287.682 86.622 288.238 86.51 288.891 86.51V87.812C288.816 87.8027 288.714 87.798 288.583 87.798C287.855 87.798 287.281 88.0173 286.861 88.456C286.45 88.8853 286.245 89.5013 286.245 90.304V94H284.901V86.58H286.189V87.826ZM292.73 94.084C292.123 94.084 291.54 94.0047 290.98 93.846C290.42 93.678 289.981 93.468 289.664 93.216L290.224 92.152C290.551 92.3853 290.947 92.572 291.414 92.712C291.881 92.852 292.352 92.922 292.828 92.922C294.004 92.922 294.592 92.586 294.592 91.914C294.592 91.69 294.513 91.5127 294.354 91.382C294.195 91.2513 293.995 91.158 293.752 91.102C293.519 91.0367 293.183 90.9667 292.744 90.892C292.147 90.7987 291.657 90.6913 291.274 90.57C290.901 90.4487 290.579 90.2433 290.308 89.954C290.037 89.6647 289.902 89.2587 289.902 88.736C289.902 88.064 290.182 87.5273 290.742 87.126C291.302 86.7153 292.053 86.51 292.996 86.51C293.491 86.51 293.985 86.5707 294.48 86.692C294.975 86.8133 295.381 86.9767 295.698 87.182L295.124 88.246C294.517 87.854 293.803 87.658 292.982 87.658C292.413 87.658 291.979 87.7513 291.68 87.938C291.381 88.1247 291.232 88.372 291.232 88.68C291.232 88.9227 291.316 89.114 291.484 89.254C291.652 89.394 291.857 89.4967 292.1 89.562C292.352 89.6273 292.702 89.702 293.15 89.786C293.747 89.8887 294.228 90.0007 294.592 90.122C294.965 90.234 295.283 90.43 295.544 90.71C295.805 90.99 295.936 91.382 295.936 91.886C295.936 92.558 295.647 93.0947 295.068 93.496C294.499 93.888 293.719 94.084 292.73 94.084ZM301.376 83.612H302.72V94H301.376V83.612ZM311.992 90.332C311.992 90.4347 311.982 90.57 311.964 90.738H305.944C306.028 91.3913 306.312 91.9187 306.798 92.32C307.292 92.712 307.904 92.908 308.632 92.908C309.518 92.908 310.232 92.6093 310.774 92.012L311.516 92.88C311.18 93.272 310.76 93.5707 310.256 93.776C309.761 93.9813 309.206 94.084 308.59 94.084C307.806 94.084 307.11 93.9253 306.504 93.608C305.897 93.2813 305.426 92.8287 305.09 92.25C304.763 91.6713 304.6 91.018 304.6 90.29C304.6 89.5713 304.758 88.9227 305.076 88.344C305.402 87.7653 305.846 87.3173 306.406 87C306.975 86.6733 307.614 86.51 308.324 86.51C309.033 86.51 309.663 86.6733 310.214 87C310.774 87.3173 311.208 87.7653 311.516 88.344C311.833 88.9227 311.992 89.5853 311.992 90.332ZM308.324 87.644C307.68 87.644 307.138 87.84 306.7 88.232C306.27 88.624 306.018 89.1373 305.944 89.772H310.704C310.629 89.1467 310.372 88.638 309.934 88.246C309.504 87.8447 308.968 87.644 308.324 87.644ZM316.574 84.634C315.771 84.634 315.37 85.068 315.37 85.936V86.58H317.526V87.686H315.398V94H314.054V87.686H312.794V86.58H314.054V85.922C314.054 85.1847 314.269 84.6013 314.698 84.172C315.127 83.7427 315.729 83.528 316.504 83.528C316.803 83.528 317.083 83.5653 317.344 83.64C317.605 83.7147 317.829 83.822 318.016 83.962L317.61 84.984C317.302 84.7507 316.957 84.634 316.574 84.634ZM322.966 93.566C322.77 93.734 322.527 93.8647 322.238 93.958C321.948 94.042 321.65 94.084 321.342 94.084C320.595 94.084 320.016 93.8833 319.606 93.482C319.195 93.0807 318.99 92.5067 318.99 91.76V87.686H317.73V86.58H318.99V84.956H320.334V86.58H322.462V87.686H320.334V91.704C320.334 92.1053 320.432 92.4133 320.628 92.628C320.833 92.8427 321.122 92.95 321.496 92.95C321.906 92.95 322.256 92.8333 322.546 92.6L322.966 93.566Z" fill="#878589"/>
<path fill-rule="evenodd" clip-rule="evenodd" d="M197.052 88.5003C197.052 92.1192 194.119 95.0524 190.5 95.0524C186.881 95.0524 183.948 92.1192 183.948 88.5003C183.948 84.8815 186.881 81.9482 190.5 81.9482C194.119 81.9482 197.052 84.8815 197.052 88.5003Z" stroke="#878589" stroke-linecap="round" stroke-linejoin="round"/>
<path d="M192.931 90.5844L190.26 88.9914V85.5581" stroke="#878589" stroke-linecap="round" stroke-linejoin="round"/>
<defs>
<clipPath id="clip0_215_3689">
<rect width="20" height="20" fill="white" transform="translate(20 20)"/>
</clipPath>
<clipPath id="clip1_215_3689">
<rect width="20" height="20" fill="white" transform="translate(179 20)"/>
</clipPath>
<clipPath id="clip2_215_3689">
<rect width="20" height="20" fill="white" transform="translate(139 20)"/>
</clipPath>
</defs>
</svg>
