<svg width="22" height="22" viewBox="0 0 26 22" fill="" xmlns="http://www.w3.org/2000/svg">
<path d="M5.63104 18.0734L7.05181 10.2739C7.10663 9.97297 6.94098 9.67747 6.68184 9.61382C6.42271 9.55017 6.16821 9.74251 6.11339 10.0434L4.69261 17.843C4.63779 18.1439 4.80344 18.4394 5.06258 18.503C5.32172 18.5667 5.57622 18.3743 5.63104 18.0734ZM19.0038 10.2757L20.4505 18.0811C20.5062 18.3818 20.7613 18.573 21.0202 18.5083C21.2792 18.4436 21.4439 18.1474 21.3882 17.8468L19.9415 10.0414C19.8858 9.74072 19.6307 9.54943 19.3718 9.61414C19.1128 9.67886 18.9481 9.97504 19.0038 10.2757Z" fill=""/>
<path d="M23.6552 7.06509L13.5494 2.20414C13.301 2.08453 12.8336 2.08336 12.5844 2.20175L2.35406 7.06506L12.5847 11.9282C12.8334 12.0466 13.3008 12.0455 13.5496 11.9259L23.6552 7.06506V7.06509ZM13.9167 12.9548C13.4341 13.1869 12.7039 13.1887 12.221 12.9588L1.5723 7.89689C0.809198 7.53365 0.809198 6.59592 1.57251 6.23318L12.2211 1.17108C12.7044 0.941379 13.4345 0.943173 13.9167 1.17532L24.4272 6.23095C25.1875 6.59644 25.1875 7.53371 24.4273 7.89917L13.9167 12.9548ZM20.6766 17.4839C18.3817 19.0491 15.7667 19.8863 13.0452 19.8863C10.3203 19.8863 7.70224 19.047 5.40537 17.4782C5.17707 17.3223 4.88314 17.4108 4.74884 17.6758C4.61454 17.9409 4.69074 18.2822 4.91904 18.4381C7.36231 20.107 10.1481 21 13.0452 21C15.9387 21 18.7212 20.1092 21.1624 18.4442C21.3908 18.2884 21.4672 17.9472 21.3331 17.682C21.1989 17.4168 20.905 17.3281 20.6766 17.4839Z" fill="" stroke="#5C93ED" stroke-width="0.5"/>
<path d="M24.041 6.96042V15.015C24.041 15.3226 24.2557 15.5719 24.5206 15.5719C24.7855 15.5719 25.0002 15.3226 25.0002 15.015V6.96042C25.0002 6.65287 24.7855 6.40356 24.5206 6.40356C24.2557 6.40356 24.041 6.65287 24.041 6.96042Z" fill=""/>
</svg>
