<svg width="18" height="18" viewBox="0 0 18 18" fill="none" xmlns="http://www.w3.org/2000/svg">
<g clip-path="url(#clip0_12_668)">
<path d="M2.25 16.5H5.25V18H2.25C1.0095 18 0 16.9905 0 15.75V12.75H1.5V15.75C1.5 16.164 1.83675 16.5 2.25 16.5ZM16.5 15.75C16.5 16.164 16.1632 16.5 15.75 16.5H12.75V18H15.75C16.9905 18 18 16.9905 18 15.75V12.75H16.5V15.75ZM15.75 0H12.75V1.5H15.75C16.1632 1.5 16.5 1.83675 16.5 2.25V5.25H18V2.25C18 1.0095 16.9905 0 15.75 0ZM1.5 2.25C1.5 1.83675 1.83675 1.5 2.25 1.5H5.25V0H2.25C1.0095 0 0 1.0095 0 2.25V5.25H1.5V2.25ZM10.3448 6.59475L9 7.9395L7.65525 6.59475L6.59475 7.65525L7.9395 9L6.59475 10.3448L7.65525 11.4052L9 10.0605L10.3448 11.4052L11.4052 10.3448L10.0605 9L11.4052 7.65525L10.3448 6.59475ZM13.6553 11.4052L15 10.0605L16.3447 11.4052L17.4053 10.3448L16.0605 9L17.4053 7.65525L16.3447 6.59475L15 7.9395L13.6553 6.59475L12.5947 7.65525L13.9395 9L12.5947 10.3448L13.6553 11.4052ZM4.34475 6.59475L3 7.9395L1.65525 6.59475L0.59475 7.65525L1.9395 9L0.59475 10.3448L1.65525 11.4052L3 10.0605L4.34475 11.4052L5.40525 10.3448L4.0605 9L5.40525 7.65525L4.34475 6.59475Z" fill="#878589"/>
</g>
<defs>
<clipPath id="clip0_12_668">
<rect width="18" height="18" fill="white"/>
</clipPath>
</defs>
</svg>
