<svg width="20" height="20" viewBox="0 0 20 20" fill="none" xmlns="http://www.w3.org/2000/svg">
<path fill-rule="evenodd" clip-rule="evenodd" d="M9.99984 2.29175C5.74264 2.29175 2.2915 5.74289 2.2915 10.0001C2.2915 14.2573 5.74264 17.7084 9.99984 17.7084C14.257 17.7084 17.7082 14.2573 17.7082 10.0001C17.7082 5.74289 14.257 2.29175 9.99984 2.29175ZM1.0415 10.0001C1.0415 5.05253 5.05229 1.04175 9.99984 1.04175C14.9474 1.04175 18.9582 5.05253 18.9582 10.0001C18.9582 14.9476 14.9474 18.9584 9.99984 18.9584C5.05229 18.9584 1.0415 14.9476 1.0415 10.0001ZM9.99984 7.41716C9.90072 7.56424 9.7786 7.78106 9.5968 8.10719L9.48757 8.30314C9.47946 8.31769 9.47109 8.33289 9.46243 8.34863C9.37195 8.51305 9.24904 8.7364 9.04605 8.89049C8.83934 9.04742 8.59004 9.1023 8.4118 9.14153C8.39488 9.14526 8.3786 9.14884 8.36306 9.15236L8.15094 9.20035C7.7633 9.28806 7.52171 9.3442 7.35938 9.40095C7.45976 9.55175 7.62824 9.75093 7.90154 10.0705L8.04614 10.2396C8.05678 10.2521 8.06787 10.2649 8.07931 10.2781C8.20244 10.4207 8.36623 10.6103 8.44193 10.8537C8.51685 11.0946 8.49149 11.3439 8.47211 11.5344C8.4703 11.5522 8.46854 11.5695 8.46692 11.5862L8.44506 11.8118C8.406 12.2149 8.38193 12.4756 8.38262 12.66C8.5428 12.6032 8.76218 12.5036 9.097 12.3494L9.29561 12.258C9.31022 12.2513 9.32552 12.2441 9.34146 12.2366C9.50634 12.1595 9.74022 12.05 9.99984 12.05C10.2595 12.05 10.4933 12.1595 10.6582 12.2366C10.6742 12.2441 10.6895 12.2513 10.7041 12.258L10.9027 12.3494C11.2375 12.5036 11.4569 12.6032 11.6171 12.66C11.6177 12.4756 11.5937 12.2149 11.5546 11.8118L11.5328 11.5862C11.5311 11.5695 11.5294 11.5522 11.5276 11.5344C11.5082 11.3439 11.4828 11.0946 11.5577 10.8537C11.6334 10.6103 11.7972 10.4207 11.9204 10.2781C11.9318 10.2649 11.9429 10.2521 11.9535 10.2396L12.0981 10.0705C12.3714 9.75093 12.5399 9.55175 12.6403 9.40095C12.478 9.3442 12.2364 9.28806 11.8487 9.20035L11.6366 9.15236C11.6211 9.14884 11.6048 9.14525 11.5879 9.14153C11.4096 9.10229 11.1603 9.04742 10.9536 8.89049C10.7506 8.7364 10.6277 8.51305 10.5372 8.34864C10.5286 8.33289 10.5202 8.31769 10.5121 8.30314L10.4029 8.10719C10.2211 7.78106 10.099 7.56424 9.99984 7.41716ZM11.7939 12.7086C11.7949 12.7086 11.7954 12.7086 11.7954 12.7087L11.7939 12.7086ZM8.20428 12.7087C8.20429 12.7086 8.20479 12.7086 8.20573 12.7086L8.20428 12.7087ZM9.06913 6.57078C9.24885 6.33609 9.5423 6.04175 9.99984 6.04175C10.4574 6.04175 10.7508 6.33609 10.9305 6.57078C11.1036 6.79678 11.2808 7.11468 11.4734 7.46041C11.4805 7.47309 11.4876 7.48581 11.4947 7.49856L11.6039 7.69451C11.6346 7.74953 11.6583 7.79205 11.6794 7.82851C11.6935 7.85301 11.7046 7.87152 11.7136 7.8858C11.7276 7.88967 11.7453 7.89427 11.7681 7.8998C11.8072 7.90934 11.8528 7.91967 11.9125 7.93317L12.1246 7.98117C12.139 7.98444 12.1535 7.9877 12.1679 7.99096C12.5403 8.07515 12.8879 8.15374 13.1504 8.25718C13.4348 8.36927 13.7784 8.57127 13.9108 8.99707C14.0411 9.41605 13.8807 9.77776 13.7187 10.0352C13.5665 10.277 13.3314 10.5517 13.0761 10.8502L12.9035 11.052C12.8629 11.0995 12.8316 11.1361 12.805 11.1682C12.7832 11.1946 12.7681 11.2136 12.7574 11.2279C12.7588 11.2743 12.7647 11.3397 12.7769 11.4657L12.8029 11.7337C12.8417 12.1331 12.877 12.4976 12.8642 12.7847C12.851 13.0829 12.7806 13.4821 12.426 13.7513C12.0613 14.0282 11.6537 13.9742 11.3647 13.8914C11.0941 13.8139 10.7691 13.6641 10.4206 13.5036C10.407 13.4974 10.3935 13.4911 10.3799 13.4849L10.1813 13.3934C10.1254 13.3677 10.0827 13.348 10.0455 13.3316C10.0273 13.3236 10.0123 13.3172 9.99984 13.3121C9.98742 13.3172 9.97242 13.3236 9.95413 13.3316C9.917 13.348 9.87425 13.3677 9.81839 13.3934L9.61979 13.4849C9.6062 13.4911 9.59264 13.4974 9.57912 13.5036C9.23059 13.6641 8.90554 13.8139 8.63501 13.8914C8.34595 13.9742 7.93841 14.0282 7.57365 13.7513C7.21909 13.4821 7.14873 13.0829 7.13544 12.7847C7.12265 12.4976 7.15802 12.1331 7.19677 11.7337L7.22275 11.4657C7.23495 11.3397 7.24091 11.2743 7.24231 11.2279C7.23153 11.2136 7.21646 11.1946 7.19465 11.1682C7.16806 11.1361 7.13676 11.0995 7.09614 11.052L6.95154 10.8829C6.94218 10.872 6.93284 10.8611 6.92353 10.8502C6.66823 10.5517 6.43322 10.277 6.28099 10.0352C6.11895 9.77776 5.95855 9.41605 6.08884 8.99707C6.22124 8.57127 6.56488 8.36927 6.84929 8.25718C7.11178 8.15374 7.45938 8.07515 7.83181 7.99095C7.8462 7.9877 7.86063 7.98444 7.87509 7.98117L8.08721 7.93317C8.14688 7.91967 8.19245 7.90934 8.23162 7.89981C8.25436 7.89427 8.27208 7.88968 8.2861 7.8858C8.29504 7.87152 8.30614 7.85301 8.32029 7.82851C8.34136 7.79205 8.36508 7.74953 8.39575 7.69451L8.50498 7.49856C8.51209 7.48581 8.51918 7.47309 8.52624 7.46041C8.71891 7.11467 8.89606 6.79678 9.06913 6.57078Z" fill="#5C93ED"/>
</svg>
