<svg width="50" height="50" viewBox="0 0 50 50" fill="none" xmlns="http://www.w3.org/2000/svg">
<path d="M50 24.9803C50 21.59 48.5113 18.3915 45.9862 16.3814C46.2781 12.9994 45.0688 9.68625 42.6709 7.28632C40.2731 4.89056 36.9682 3.6833 33.753 4.04402C29.5537 -1.28545 20.4815 -1.38553 16.3801 3.97104C12.994 3.67079 9.68495 4.88639 7.28711 7.28632C4.89135 9.68416 3.682 12.9994 4.04481 16.2042C-1.28466 20.4036 -1.38683 29.4758 3.97183 33.5792C3.67992 36.9612 4.88926 40.2744 7.28711 42.6743C9.68495 45.0701 12.994 46.2815 16.205 45.9166C20.4044 51.2461 29.4765 51.3462 33.5779 45.9896C36.9557 46.2732 40.271 45.0743 42.6709 42.6743C45.0667 40.2765 46.276 36.9612 45.9132 33.7564C48.5113 31.5713 50 28.3728 50 24.9824V24.9803ZM36.5304 21.9903L26.6492 31.515C24.2242 33.9357 20.2563 33.9149 17.8314 31.4879L13.1358 27.1259C12.2934 26.3419 12.2433 25.022 13.0273 24.1797C13.8134 23.3352 15.1354 23.2893 15.9736 24.0712L20.7234 28.4853C21.5949 29.3548 22.9127 29.3527 23.7259 28.5375L33.6342 18.9857C34.4641 18.1892 35.7839 18.2121 36.5825 19.0399C37.3832 19.8677 37.3582 21.1896 36.5304 21.9882V21.9903Z" fill="#03B10F"/>
</svg>
