<svg width="19" height="19" viewBox="0 0 19 19" fill="none" xmlns="http://www.w3.org/2000/svg">
<path d="M9.5 0.75C4.67875 0.75 0.75 4.67875 0.75 9.5C0.75 14.3212 4.67875 18.25 9.5 18.25C14.3212 18.25 18.25 14.3212 18.25 9.5C18.25 4.67875 14.3212 0.75 9.5 0.75ZM13 10.1562H10.1562V13C10.1562 13.3588 9.85875 13.6562 9.5 13.6562C9.14125 13.6562 8.84375 13.3588 8.84375 13V10.1562H6C5.64125 10.1562 5.34375 9.85875 5.34375 9.5C5.34375 9.14125 5.64125 8.84375 6 8.84375H8.84375V6C8.84375 5.64125 9.14125 5.34375 9.5 5.34375C9.85875 5.34375 10.1562 5.64125 10.1562 6V8.84375H13C13.3588 8.84375 13.6562 9.14125 13.6562 9.5C13.6562 9.85875 13.3588 10.1562 13 10.1562Z" fill="white"/>
</svg>
