<svg width="18" height="18" viewBox="0 0 20 20" fill="none" xmlns="http://www.w3.org/2000/svg">
<g clip-path="url(#clip0_351_3895)">
<path d="M13.4934 6.42189L13.4933 6.42182L13.4881 6.42702L8.21758 11.6862L6.51216 9.98606C6.1656 9.6395 5.59917 9.63947 5.25262 9.98606C4.90603 10.3326 4.90603 10.899 5.25262 11.2456L5.25315 11.2461L7.58789 13.5691C7.58794 13.5692 7.588 13.5693 7.58805 13.5693C7.7667 13.7479 7.99223 13.8276 8.21768 13.8276C8.43275 13.8276 8.66739 13.7506 8.84372 13.567L14.747 7.68722L14.7475 7.68679C15.094 7.34022 15.094 6.77967 14.7475 6.4331L14.7474 6.43308C14.3999 6.08556 13.8434 6.08936 13.4934 6.42189ZM16.4408 3.55738C20.0001 7.11669 20.0001 12.8856 16.4408 16.4449C12.8816 20.0041 7.11275 19.9984 3.55921 16.4449C-1.30534e-05 12.8857 -0.000256896 7.12254 3.55938 3.55721C7.1187 -0.00193757 12.8816 -0.00188106 16.4408 3.55738Z" stroke="#DEDEDE" stroke-width="0.6"/>
</g>
<defs>
<clipPath id="clip0_351_3895">
<rect width="20" height="20" fill="white"/>
</clipPath>
</defs>
</svg>
