<svg width="18" height="18" viewBox="0 0 18 18" fill="none" xmlns="http://www.w3.org/2000/svg">
<path d="M11.7274 1.88001L10.9845 2.61715L10.6092 2.23884C10.1955 1.82242 9.52387 1.81998 9.10741 2.23281L7.24328 4.08247L9.27928 6.13441L6.15047 9.23893L4.11447 7.187L2.25032 9.03668C1.83431 9.44989 1.83146 10.1216 2.24466 10.5384L2.62004 10.9167L1.87713 11.6539C1.46106 12.0671 1.45822 12.7388 1.87145 13.1556L3.88589 15.1858C4.29906 15.6019 4.97098 15.6045 5.38742 15.1917L6.13033 14.4545L6.50548 14.8326C6.91909 15.2491 7.59077 15.2515 8.00724 14.8387L9.87139 12.989L9.66077 12.7767L7.83536 10.937L10.9642 7.83252L13.0002 9.88447L13.2125 9.67385L14.8643 8.03481C15.2804 7.62158 15.2832 6.9499 14.87 6.53303L14.4948 6.15495L15.2377 5.4178C15.6537 5.00459 15.6564 4.33269 15.2436 3.91627L13.2292 1.88608C12.8155 1.46963 12.1439 1.46722 11.7274 1.88001ZM5.70913 14.03L4.96622 14.7671C4.78421 14.9469 4.49099 14.9457 4.31043 14.7646L2.29599 12.7344C2.11581 12.552 2.11696 12.2588 2.29835 12.0784L3.04126 11.3412L5.70913 14.03ZM9.02565 12.9857L7.58602 14.4142C7.40403 14.5939 7.11102 14.593 6.93005 14.4114L2.66918 10.1172C2.489 9.93481 2.49017 9.6416 2.67152 9.46122L4.11115 8.03276L9.02565 12.9857ZM10.5429 7.408L7.41416 10.5125L6.5717 9.66345L9.70051 6.55892L10.543 7.40798L10.5429 7.408ZM14.4455 6.95426C14.6256 7.13666 14.6243 7.42967 14.4431 7.61025L13.0035 9.03869L8.08902 4.08577L9.52861 2.65735C9.71042 2.47739 10.0036 2.47853 10.1846 2.66011L14.4454 6.95428L14.4455 6.95426ZM14.8191 4.33747C14.9988 4.51946 14.9977 4.81266 14.8165 4.99326L14.0736 5.73041L11.4058 3.04167L12.1487 2.30452C12.3304 2.12452 12.6237 2.12571 12.8047 2.30728L14.8191 4.33747Z" fill="black"/>
</svg>
