<svg width="15" height="15" viewBox="0 0 15 15" fill="none" xmlns="http://www.w3.org/2000/svg">
<path d="M1.09303 11.8921L6.84003 1.39011C6.90475 1.2716 7.00018 1.1727 7.11632 1.1038C7.23245 1.0349 7.36499 0.998535 7.50003 0.998535C7.63506 0.998535 7.7676 1.0349 7.88374 1.1038C7.99987 1.1727 8.09531 1.2716 8.16003 1.39011L13.907 11.8921C13.9696 12.0065 14.0013 12.1352 13.999 12.2655C13.9966 12.3959 13.9604 12.5234 13.8937 12.6354C13.8271 12.7475 13.7324 12.8402 13.619 12.9045C13.5056 12.9688 13.3774 13.0025 13.247 13.0021H1.75303C1.62266 13.0025 1.49445 12.9688 1.38104 12.9045C1.26764 12.8402 1.17295 12.7475 1.10632 12.6354C1.0397 12.5234 1.00343 12.3959 1.0011 12.2655C0.998765 12.1352 1.03045 12.0065 1.09303 11.8921ZM8.30003 8.00011L8.70303 5.58211C8.71493 5.51052 8.7111 5.43719 8.69181 5.36722C8.67252 5.29725 8.63823 5.23232 8.59132 5.17694C8.5444 5.12155 8.486 5.07705 8.42015 5.04652C8.35431 5.01598 8.28261 5.00015 8.21003 5.00011H6.79003C6.71745 5.00015 6.64574 5.01598 6.5799 5.04652C6.51406 5.07705 6.45565 5.12155 6.40874 5.17694C6.36183 5.23232 6.32753 5.29725 6.30824 5.36722C6.28895 5.43719 6.28512 5.51052 6.29703 5.58211L6.70003 8.00011H8.30003ZM8.60003 9.90011C8.60003 9.60837 8.48413 9.32859 8.27784 9.1223C8.07155 8.91601 7.79176 8.80011 7.50003 8.80011C7.20829 8.80011 6.9285 8.91601 6.72221 9.1223C6.51592 9.32859 6.40003 9.60837 6.40003 9.90011C6.40003 10.1919 6.51592 10.4716 6.72221 10.6779C6.9285 10.8842 7.20829 11.0001 7.50003 11.0001C7.79176 11.0001 8.07155 10.8842 8.27784 10.6779C8.48413 10.4716 8.60003 10.1919 8.60003 9.90011Z" fill="#FF4242"/>
</svg>
